<svg width="27" height="27" viewBox="0 0 27 27" fill="none" xmlns="http://www.w3.org/2000/svg">
  <path d="M13.9276 0.704712C6.75155 0.704712 0.927551 6.52871 0.927551 13.7047C0.927551 20.8807 6.75155 26.7047 13.9276 26.7047C21.1035 26.7047 26.9276 20.8807 26.9276 13.7047C26.9276 6.52871 21.1035 0.704712 13.9276 0.704712ZM18.6206 8.94671C20.0116 8.94671 21.1296 10.0647 21.1296 11.4557C21.1296 12.8467 20.0116 13.9647 18.6206 13.9647C17.2296 13.9647 16.1116 12.8467 16.1116 11.4557C16.0986 10.0647 17.2296 8.94671 18.6206 8.94671ZM10.8206 6.89271C12.5106 6.89271 13.8886 8.27071 13.8886 9.96071C13.8886 11.6507 12.5106 13.0287 10.8206 13.0287C9.13055 13.0287 7.75255 11.6507 7.75255 9.96071C7.75255 8.25771 9.11755 6.89271 10.8206 6.89271ZM10.8206 18.7617V23.6367C7.70055 22.6617 5.23055 20.2567 4.13855 17.1887C5.50355 15.7327 8.90955 14.9917 10.8206 14.9917C11.5096 14.9917 12.3806 15.0957 13.2906 15.2777C11.1586 16.4087 10.8206 17.9037 10.8206 18.7617ZM13.9276 24.1047C13.5766 24.1047 13.2386 24.0917 12.9006 24.0527V18.7617C12.9006 16.9157 16.7226 15.9927 18.6206 15.9927C20.0116 15.9927 22.4166 16.4997 23.6126 17.4877C22.0916 21.3487 18.3346 24.1047 13.9276 24.1047Z" fill="currentColor" />
</svg>