<svg width="35" height="22" viewBox="0 0 35 22" fill="none" xmlns="http://www.w3.org/2000/svg">
<path d="M9.83636 8.74133L5.31906 13.2586L0.801758 8.74133" stroke="#70707B" stroke-width="2"/>
<path d="M29.1838 10.2245C29.1838 11.0681 28.9336 11.8928 28.4649 12.5942C27.9962 13.2957 27.3301 13.8424 26.5506 14.1652C25.7712 14.488 24.9136 14.5725 24.0862 14.4079C23.2588 14.2434 22.4988 13.8371 21.9022 13.2406C21.3057 12.644 20.8995 11.884 20.7349 11.0566C20.5703 10.2292 20.6548 9.37157 20.9776 8.59216C21.3004 7.81276 21.8472 7.14659 22.5486 6.6779C23.25 6.20921 24.0747 5.95905 24.9183 5.95905C26.0492 5.96033 27.1334 6.41013 27.933 7.20978C28.7327 8.00942 29.1825 9.0936 29.1838 10.2245ZM35.0002 11C35.0002 12.994 34.409 14.9432 33.3011 16.6012C32.1933 18.2592 30.6187 19.5514 28.7765 20.3145C26.9343 21.0775 24.9072 21.2772 22.9515 20.8882C20.9958 20.4992 19.1993 19.539 17.7894 18.129C16.3794 16.719 15.4192 14.9226 15.0302 12.9669C14.6411 11.0112 14.8408 8.98405 15.6039 7.14182C16.3669 5.29959 17.6592 3.72501 19.3171 2.6172C20.9751 1.50938 22.9243 0.918091 24.9183 0.918091C27.5914 0.920914 30.1541 1.98402 32.0442 3.87413C33.9343 5.76424 34.9974 8.32698 35.0002 11ZM33.4492 11C33.4479 9.85176 33.2152 8.71556 32.7647 7.65936C32.3143 6.60315 31.6555 5.64863 30.8277 4.85288C29.9999 4.05713 29.0202 3.43649 27.947 3.02808C26.8738 2.61967 25.7293 2.43188 24.582 2.47594C20.016 2.65237 16.3749 6.45539 16.3875 11.0242C16.3919 13.1041 17.159 15.1102 18.5435 16.6624C19.1073 15.8446 19.8235 15.1432 20.6529 14.5965C20.7236 14.5498 20.8077 14.5276 20.8923 14.5332C20.9768 14.5388 21.0572 14.5719 21.1211 14.6275C22.1751 15.5391 23.522 16.0408 24.9154 16.0408C26.3089 16.0408 27.6558 15.5391 28.7097 14.6275C28.7737 14.5719 28.854 14.5388 28.9386 14.5332C29.0232 14.5276 29.1072 14.5498 29.1779 14.5965C30.0084 15.1429 30.7256 15.8443 31.2903 16.6624C32.6816 15.1045 33.4502 13.0887 33.4492 11Z" fill="#70707B"/>
</svg>
