<svg width="25" height="19" viewBox="0 0 25 19" fill="none" xmlns="http://www.w3.org/2000/svg">
  <path d="M22.0258 0.451355H7.02576C6.33576 0.451355 5.79576 0.801355 5.43576 1.33136L0.0257568 9.45135L5.43576 17.5614C5.79576 18.0914 6.33576 18.4514 7.02576 18.4514H22.0258C23.1258 18.4514 24.0258 17.5514 24.0258 16.4514V2.45135C24.0258 1.35135 23.1258 0.451355 22.0258 0.451355ZM19.0258 13.0414L17.6158 14.4514L14.0258 10.8614L10.4358 14.4514L9.02576 13.0414L12.6158 9.45135L9.02576 5.86135L10.4358 4.45135L14.0258 8.04136L17.6158 4.45135L19.0258 5.86135L15.4358 9.45135L19.0258 13.0414Z" fill="currentColor" />
</svg>