<svg width="11" height="17" viewBox="0 0 11 17" fill="none" xmlns="http://www.w3.org/2000/svg">
<path d="M6.32212 2.02661C6.96595 2.02661 7.63363 2.11007 8.32515 2.27699C9.01667 2.44391 9.62474 2.73602 10.1493 3.15332L8.43246 5.24577C8.14631 4.99539 7.81843 4.81655 7.44883 4.70924C7.07922 4.59002 6.70365 4.51848 6.32212 4.49463V7.33822L8.03901 7.83898C8.82591 8.07744 9.45186 8.47089 9.91685 9.01934C10.3938 9.55586 10.6322 10.2414 10.6322 11.076C10.6322 11.7079 10.5189 12.2623 10.2924 12.7393C10.0659 13.2162 9.75589 13.6215 9.36244 13.9554C8.96898 14.2892 8.50996 14.5515 7.98535 14.7423C7.46075 14.933 6.90634 15.0582 6.32212 15.1179V16.3697H5.14176V15.1179C4.35486 15.1179 3.56795 15.0105 2.78105 14.7959C2.00607 14.5813 1.32051 14.2058 0.724365 13.6692L2.62009 11.541C2.93008 11.9225 3.30565 12.1968 3.7468 12.3637C4.18794 12.5187 4.65293 12.6141 5.14176 12.6498V9.6274L3.83622 9.23395C2.93008 8.9478 2.23856 8.54839 1.76165 8.03571C1.29666 7.5111 1.06417 6.79573 1.06417 5.8896C1.06417 5.32923 1.17743 4.82251 1.40397 4.36944C1.6305 3.91638 1.92857 3.52889 2.29818 3.20697C2.67971 2.88505 3.11489 2.62275 3.60372 2.42007C4.10448 2.21738 4.61716 2.08623 5.14176 2.02661V0.774719H6.32212V2.02661ZM5.14176 4.54829C4.80793 4.61982 4.50986 4.74501 4.24755 4.92385C3.98525 5.1027 3.8541 5.38288 3.8541 5.76441C3.8541 6.03864 3.90775 6.25325 4.01506 6.40824C4.12236 6.56324 4.24755 6.68843 4.39063 6.78381C4.5337 6.86727 4.67677 6.92689 4.81985 6.96265C4.96292 6.99842 5.07023 7.02823 5.14176 7.05208V4.54829ZM6.32212 12.6141C6.50096 12.5783 6.67981 12.5306 6.85865 12.471C7.04941 12.3995 7.21633 12.31 7.35941 12.2027C7.50248 12.0954 7.61575 11.9702 7.69921 11.8272C7.79459 11.6722 7.84228 11.4933 7.84228 11.2906C7.84228 11.0999 7.80651 10.9389 7.73497 10.8078C7.67536 10.6766 7.5919 10.5693 7.48459 10.4858C7.37729 10.3905 7.2521 10.313 7.10903 10.2533C6.96595 10.1818 6.81692 10.1162 6.66192 10.0566L6.32212 9.93143V12.6141Z" fill="#FFB156"/>
</svg>
