<svg width="25" height="25" viewBox="0 0 25 25" fill="none" xmlns="http://www.w3.org/2000/svg">
  <path d="M21.3927 13.766C21.4423 13.3939 21.4671 13.0094 21.4671 12.6001C21.4671 12.2031 21.4423 11.8062 21.3803 11.4341L23.8982 9.47436C24.1215 9.30071 24.1835 8.96581 24.0471 8.71774L21.6656 4.59975C21.5168 4.32688 21.2067 4.24005 20.9338 4.32687L17.9693 5.51762C17.3491 5.04628 16.6918 4.64937 15.9599 4.35168L15.5134 1.20117C15.4638 0.903488 15.2157 0.692627 14.918 0.692627H10.1551C9.85739 0.692627 9.62172 0.903488 9.57211 1.20117L9.12558 4.35168C8.39377 4.64937 7.72397 5.05869 7.1162 5.51762L4.15174 4.32687C3.87887 4.22765 3.56878 4.32688 3.41993 4.59975L1.05085 8.71774C0.902007 8.97822 0.951621 9.30071 1.19969 9.47436L3.71762 11.4341C3.6556 11.8062 3.60599 12.2156 3.60599 12.6001C3.60599 12.9846 3.63079 13.3939 3.69281 13.766L1.17489 15.7258C0.951621 15.8994 0.889603 16.2343 1.02604 16.4824L3.40753 20.6004C3.55637 20.8732 3.86646 20.9601 4.13934 20.8732L7.1038 19.6825C7.72397 20.1538 8.38136 20.5508 9.11317 20.8484L9.5597 23.999C9.62172 24.2966 9.85739 24.5075 10.1551 24.5075H14.918C15.2157 24.5075 15.4638 24.2966 15.501 23.999L15.9475 20.8484C16.6794 20.5508 17.3491 20.1538 17.9569 19.6825L20.9214 20.8732C21.1943 20.9725 21.5043 20.8732 21.6532 20.6004L24.0347 16.4824C24.1835 16.2095 24.1215 15.8994 23.8858 15.7258L21.3927 13.766ZM12.5366 17.0653C10.0807 17.0653 8.07127 15.056 8.07127 12.6001C8.07127 10.1442 10.0807 8.13477 12.5366 8.13477C14.9925 8.13477 17.0019 10.1442 17.0019 12.6001C17.0019 15.056 14.9925 17.0653 12.5366 17.0653Z" fill="currentColor" />
</svg>