<svg width="23" height="28" viewBox="0 0 23 28" fill="none" xmlns="http://www.w3.org/2000/svg">
<path d="M14.5 0.5H8.5C3.73375 0.5 0 6.43 0 14C0 21.57 3.73375 27.5 8.5 27.5H14.5C19.2663 27.5 23 21.57 23 14C23 6.43 19.2663 0.5 14.5 0.5ZM19.1513 19.5H16.2887C16.6419 18.192 16.8634 16.852 16.95 15.5H19.9412C19.8428 16.8607 19.5774 18.2041 19.1513 19.5ZM16.95 12.5C16.8634 11.148 16.6419 9.80797 16.2887 8.5H19.1513C19.5774 9.79594 19.8428 11.1393 19.9412 12.5H16.95ZM17.6537 5.5H15.1537C14.8022 4.79478 14.3836 4.12503 13.9037 3.5H14.5C15.1713 3.5 16.4062 3.78125 17.6537 5.5ZM4.84625 21.73C3.655 19.6887 3 16.9438 3 14C3 11.0562 3.655 8.31125 4.84625 6.27C6.25 3.86 7.73875 3.5 8.5 3.5C9.26125 3.5 10.75 3.86 12.1537 6.27C13.345 8.31125 14 11.0562 14 14C14 16.9438 13.345 19.6887 12.1537 21.73C10.75 24.14 9.26125 24.5 8.5 24.5C7.73875 24.5 6.25 24.14 4.84625 21.73ZM14.5 24.5H13.9013C14.3811 23.875 14.7997 23.2052 15.1513 22.5H17.6513C16.4062 24.2188 15.1713 24.5 14.5 24.5Z" fill="currentColor"/>
</svg>
