<svg width="16" height="17" viewBox="0 0 16 17" fill="none" xmlns="http://www.w3.org/2000/svg">
<path d="M14.8748 3.98838L8.80052 0.663409C8.59753 0.551687 8.36958 0.493103 8.13788 0.493103C7.90617 0.493103 7.67822 0.551687 7.47523 0.663409L1.40097 3.98838C1.18362 4.1073 1.00228 4.28252 0.875975 4.49567C0.749667 4.70881 0.683048 4.95202 0.683106 5.19978V11.8C0.683048 12.0478 0.749667 12.291 0.875975 12.5041C1.00228 12.7173 1.18362 12.8925 1.40097 13.0114L7.47523 16.3364C7.67818 16.4482 7.90615 16.5069 8.13788 16.5069C8.36961 16.5069 8.59757 16.4482 8.80052 16.3364L14.8748 13.0114C15.0921 12.8925 15.2735 12.7173 15.3998 12.5041C15.5261 12.291 15.5927 12.0478 15.5926 11.8V5.19978C15.5927 4.95202 15.5261 4.70881 15.3998 4.49567C15.2735 4.28252 15.0921 4.1073 14.8748 3.98838ZM8.13788 2.18888L13.1077 4.91056L11.6285 5.72023L6.65866 2.99924L8.13788 2.18888ZM8.13788 7.63017L3.16803 4.91056L4.93233 3.9442L9.90217 6.6645L8.13788 7.63017ZM2.33972 6.3456L7.30957 9.06521V14.3574L2.33972 11.6364V6.3456ZM8.96619 14.3574V9.06521L10.6228 8.15891V10.1565C10.6228 10.3762 10.7101 10.5869 10.8654 10.7422C11.0207 10.8975 11.2314 10.9848 11.4511 10.9848C11.6708 10.9848 11.8815 10.8975 12.0368 10.7422C12.1921 10.5869 12.2794 10.3762 12.2794 10.1565V7.25191L13.936 6.3456V11.6364L8.96619 14.3574Z" fill="currentColor"/>
</svg>
