<svg width="17" height="16" viewBox="0 0 17 16" fill="none" xmlns="http://www.w3.org/2000/svg">
<path fill-rule="evenodd" clip-rule="evenodd" d="M11.561 0.3125C10.2155 0.3125 9.12354 1.4045 9.12354 2.75C9.12354 4.0955 10.2155 5.1875 11.561 5.1875C12.712 5.1875 13.6717 4.38583 13.9268 3.3125H15.686C15.9965 3.3125 16.2485 3.0605 16.2485 2.75C16.2485 2.4395 15.9965 2.1875 15.686 2.1875H13.9268C13.6717 1.11417 12.712 0.3125 11.561 0.3125ZM11.561 1.4375C12.2855 1.4375 12.8735 2.0255 12.8735 2.75C12.8735 3.4745 12.2855 4.0625 11.561 4.0625C10.8365 4.0625 10.2485 3.4745 10.2485 2.75C10.2485 2.0255 10.8365 1.4375 11.561 1.4375ZM0.686035 2.1875C0.375535 2.1875 0.123535 2.4395 0.123535 2.75C0.123535 3.0605 0.375535 3.3125 0.686035 3.3125H7.81104C8.12154 3.3125 8.37354 3.0605 8.37354 2.75C8.37354 2.4395 8.12154 2.1875 7.81104 2.1875H0.686035ZM6.68604 5.5625C5.53503 5.5625 4.57539 6.36417 4.32031 7.4375H0.686035C0.375535 7.4375 0.123535 7.6895 0.123535 8C0.123535 8.3105 0.375535 8.5625 0.686035 8.5625H4.32031C4.57539 9.63584 5.53503 10.4375 6.68604 10.4375C8.03154 10.4375 9.12354 9.3455 9.12354 8C9.12354 6.6545 8.03154 5.5625 6.68604 5.5625ZM6.68604 6.6875C7.41054 6.6875 7.99854 7.2755 7.99854 8C7.99854 8.7245 7.41054 9.3125 6.68604 9.3125C5.96154 9.3125 5.37354 8.7245 5.37354 8C5.37354 7.2755 5.96154 6.6875 6.68604 6.6875ZM10.436 7.4375C10.1255 7.4375 9.87354 7.6895 9.87354 8C9.87354 8.3105 10.1255 8.5625 10.436 8.5625H15.686C15.9965 8.5625 16.2485 8.3105 16.2485 8C16.2485 7.6895 15.9965 7.4375 15.686 7.4375H10.436ZM11.561 10.8125C10.2155 10.8125 9.12354 11.9045 9.12354 13.25C9.12354 14.5955 10.2155 15.6875 11.561 15.6875C12.712 15.6875 13.6717 14.8858 13.9268 13.8125H15.686C15.9965 13.8125 16.2485 13.5605 16.2485 13.25C16.2485 12.9395 15.9965 12.6875 15.686 12.6875H13.9268C13.6717 11.6142 12.712 10.8125 11.561 10.8125ZM11.561 11.9375C12.2855 11.9375 12.8735 12.5255 12.8735 13.25C12.8735 13.9745 12.2855 14.5625 11.561 14.5625C10.8365 14.5625 10.2485 13.9745 10.2485 13.25C10.2485 12.5255 10.8365 11.9375 11.561 11.9375ZM0.686035 12.6875C0.375535 12.6875 0.123535 12.9395 0.123535 13.25C0.123535 13.5605 0.375535 13.8125 0.686035 13.8125H7.81104C8.12154 13.8125 8.37354 13.5605 8.37354 13.25C8.37354 12.9395 8.12154 12.6875 7.81104 12.6875H0.686035Z" fill="#747474"/>
</svg>
