<svg width="72" height="72" viewBox="0 0 72 72" fill="none" xmlns="http://www.w3.org/2000/svg">
<path fill-rule="evenodd" clip-rule="evenodd" d="M36.1661 71.6422C55.8385 71.6422 71.7861 55.6946 71.7861 36.0222C71.7861 16.3497 55.8385 0.4021 36.1661 0.4021C16.4937 0.4021 0.546021 16.3497 0.546021 36.0222C0.546021 55.6946 16.4937 71.6422 36.1661 71.6422ZM20.7915 19.8487C21.836 18.8042 23.2526 18.2174 24.7298 18.2174H44.3794C45.3354 18.2174 46.2522 18.5972 46.9282 19.2732C47.6042 19.9492 47.984 20.866 47.984 21.822V26.0772H48.3093C49.2653 26.0772 50.1821 26.457 50.8581 27.133C51.5341 27.809 51.9139 28.7258 51.9139 29.6818V33.937H52.2392C53.1447 33.937 53.8788 34.6711 53.8788 35.5767V43.4365C53.8788 44.342 53.1447 45.0761 52.2392 45.0761H51.9139V49.3314C51.9139 50.2874 51.5341 51.2043 50.8581 51.8803C50.1821 52.5563 49.2653 52.936 48.3093 52.936H24.7298C23.2526 52.936 21.836 52.3492 20.7915 51.3047C19.747 50.2603 19.1602 48.8436 19.1602 47.3665V23.787C19.1602 22.3098 19.747 20.8932 20.7915 19.8487ZM50.2742 37.2164L50.2597 37.2163H44.3794C43.7719 37.2163 43.1894 37.4576 42.7599 37.8871C42.3304 38.3166 42.0891 38.8992 42.0891 39.5066C42.0891 40.114 42.3304 40.6965 42.7599 41.126C43.1894 41.5555 43.7719 41.7968 44.3794 41.7968H50.5995V37.2163H50.2887L50.2742 37.2164ZM48.6346 29.6818V33.937H44.3794C42.9022 33.937 41.4856 34.5238 40.4411 35.5683C39.3966 36.6128 38.8098 38.0294 38.8098 39.5066C38.8098 40.9837 39.3966 42.4004 40.4411 43.4449C41.4856 44.4893 42.9022 45.0761 44.3794 45.0761H48.6346V49.3314C48.6346 49.4177 48.6003 49.5004 48.5393 49.5614C48.4783 49.6225 48.3956 49.6567 48.3093 49.6567H24.7298C24.1224 49.6567 23.5398 49.4154 23.1103 48.9859C22.6808 48.5564 22.4395 47.9739 22.4395 47.3665V28.8639C23.1526 29.1856 23.9324 29.3565 24.7298 29.3565H48.3093C48.3956 29.3565 48.4783 29.3908 48.5393 29.4518C48.6003 29.5128 48.6346 29.5956 48.6346 29.6818ZM22.4395 23.787C22.4395 24.3944 22.6808 24.9769 23.1103 25.4064C23.5398 25.8359 24.1224 26.0772 24.7298 26.0772H44.7047V21.822C44.7047 21.7357 44.6704 21.653 44.6094 21.592C44.5484 21.531 44.4656 21.4967 44.3794 21.4967H24.7298C24.1224 21.4967 23.5398 21.738 23.1103 22.1675C22.6808 22.597 22.4395 23.1796 22.4395 23.787Z" fill="#27EE76"/>
</svg>
