<svg width="69" height="61" viewBox="0 0 69 61" fill="none" xmlns="http://www.w3.org/2000/svg">
<mask id="mask0_1916_132" style="mask-type:alpha" maskUnits="userSpaceOnUse" x="0" y="0" width="69" height="61">
<path fill-rule="evenodd" clip-rule="evenodd" d="M2.72125 2.8897C4.25855 1.35241 6.34357 0.48877 8.51763 0.48877H50.0372C52.2113 0.488771 54.2963 1.35241 55.8336 2.8897C57.3709 4.427 58.2345 6.51202 58.2345 8.68608V13.553H59.8354C62.0095 13.553 64.0945 14.4166 65.6318 15.9539C67.1691 17.4912 68.0327 19.5762 68.0327 21.7503V51.8126C68.0327 53.9866 67.1691 56.0716 65.6318 57.6089C64.0945 59.1462 62.0095 60.0099 59.8354 60.0099L8.51762 60.0099C6.34356 60.0099 4.25855 59.1462 2.72125 57.6089C1.18396 56.0716 0.320312 53.9866 0.320312 51.8126L0.320315 8.68608C0.320315 6.51201 1.18396 4.427 2.72125 2.8897ZM8.51763 3.81918C7.22684 3.81918 5.98893 4.33194 5.07621 5.24466C4.16349 6.15738 3.65072 7.3953 3.65072 8.68608C3.65072 9.97686 4.16349 11.2148 5.07621 12.1275C5.98893 13.0402 7.22684 13.553 8.51763 13.553L54.9041 13.553V8.68608C54.9041 7.3953 54.3914 6.15738 53.4787 5.24466C52.5659 4.33194 51.328 3.81918 50.0372 3.81918L8.51763 3.81918ZM4.40176 15.7752L3.65072 15.3392L3.65072 51.8126C3.65072 53.1033 4.16349 54.3413 5.07621 55.254C5.98893 56.1667 7.22684 56.6795 8.51762 56.6795H59.8354C61.1262 56.6795 62.3641 56.1667 63.2768 55.254C64.1895 54.3413 64.7023 53.1033 64.7023 51.8126V44.3279H49.5529C45.2054 44.3279 41.681 40.8035 41.681 36.456C41.681 32.1084 45.2054 28.584 49.5529 28.584H64.7023V21.7503C64.7023 20.4595 64.1895 19.2216 63.2768 18.3089C62.3641 17.3961 61.1262 16.8834 59.8354 16.8834L8.51762 16.8834C7.05951 16.8834 5.64144 16.4949 4.40176 15.7752ZM49.5529 31.9144C47.0447 31.9144 45.0114 33.9478 45.0114 36.456C45.0114 38.9642 47.0447 40.9975 49.5529 40.9975H64.7023V31.9144H49.5529Z" fill="white"/>
</mask>
<g mask="url(#mask0_1916_132)">
<g filter="url(#filter0_f_1916_132)">
<circle cx="56.0325" cy="64.1149" r="60.9343" fill="#00A3FF"/>
</g>
<g filter="url(#filter1_f_1916_132)">
<circle cx="-1.75512" cy="0.735603" r="60.9343" fill="#27EE76"/>
</g>
</g>
<defs>
<filter id="filter0_f_1916_132" x="-38.9019" y="-30.8195" width="189.869" height="189.869" filterUnits="userSpaceOnUse" color-interpolation-filters="sRGB">
<feFlood flood-opacity="0" result="BackgroundImageFix"/>
<feBlend mode="normal" in="SourceGraphic" in2="BackgroundImageFix" result="shape"/>
<feGaussianBlur stdDeviation="17" result="effect1_foregroundBlur_1916_132"/>
</filter>
<filter id="filter1_f_1916_132" x="-96.6895" y="-94.1987" width="189.869" height="189.869" filterUnits="userSpaceOnUse" color-interpolation-filters="sRGB">
<feFlood flood-opacity="0" result="BackgroundImageFix"/>
<feBlend mode="normal" in="SourceGraphic" in2="BackgroundImageFix" result="shape"/>
<feGaussianBlur stdDeviation="17" result="effect1_foregroundBlur_1916_132"/>
</filter>
</defs>
</svg>
