<svg width="56" height="6" viewBox="0 0 56 6" fill="none" xmlns="http://www.w3.org/2000/svg">
<path fill-rule="evenodd" clip-rule="evenodd" d="M5.02485 2.91161C5.02485 4.23015 3.95596 5.29903 2.63743 5.29903C1.31889 5.29903 0.25 4.23015 0.25 2.91161C0.25 1.59307 1.31889 0.524185 2.63743 0.524185C3.95596 0.524185 5.02485 1.59307 5.02485 2.91161ZM17.767 2.91161C17.767 4.23015 16.6982 5.29903 15.3796 5.29903C14.0611 5.29903 12.9922 4.23015 12.9922 2.91161C12.9922 1.59307 14.0611 0.524185 15.3796 0.524185C16.6982 0.524185 17.767 1.59307 17.767 2.91161ZM28.1218 5.29903C29.4403 5.29903 30.5092 4.23015 30.5092 2.91161C30.5092 1.59307 29.4403 0.524185 28.1218 0.524185C26.8033 0.524185 25.7344 1.59307 25.7344 2.91161C25.7344 4.23015 26.8033 5.29903 28.1218 5.29903ZM43.2514 2.91161C43.2514 4.23015 42.1825 5.29903 40.864 5.29903C39.5454 5.29903 38.4766 4.23015 38.4766 2.91161C38.4766 1.59307 39.5454 0.524185 40.864 0.524185C42.1825 0.524185 43.2514 1.59307 43.2514 2.91161ZM53.6062 5.29903C54.9247 5.29903 55.9936 4.23015 55.9936 2.91161C55.9936 1.59307 54.9247 0.524185 53.6062 0.524185C52.2876 0.524185 51.2188 1.59307 51.2188 2.91161C51.2188 4.23015 52.2876 5.29903 53.6062 5.29903Z" fill="#353742"/>
</svg>
