<svg width="71" height="70" viewBox="0 0 71 70" fill="none" xmlns="http://www.w3.org/2000/svg">
<circle cx="35.6773" cy="34.9116" r="34.8189" fill="#2B2B30"/>
<path d="M32.1326 40.7391L31.9846 34.7821H33.1316C34.5129 34.7821 35.7956 34.6464 36.9796 34.3751C38.1883 34.1038 39.1626 33.5734 39.9026 32.7841C40.6426 31.9948 41.0126 30.8108 41.0126 29.2321C41.0126 27.7028 40.5316 26.4941 39.5696 25.6061C38.6323 24.7181 37.3866 24.2741 35.8326 24.2741C34.2539 24.2741 33.0083 24.7058 32.0956 25.5691C31.1829 26.4324 30.7266 27.5918 30.7266 29.0471H27.7666C27.7666 27.5671 28.0996 26.2721 28.7656 25.1621C29.4563 24.0521 30.4059 23.1888 31.6146 22.5721C32.8233 21.9554 34.2293 21.6471 35.8326 21.6471C37.4359 21.6471 38.8543 21.9554 40.0876 22.5721C41.3209 23.1888 42.2829 24.0644 42.9736 25.1991C43.6643 26.3338 44.0096 27.6781 44.0096 29.2321C44.0096 31.0574 43.6149 32.5374 42.8256 33.6721C42.0609 34.8068 40.9879 35.6331 39.6066 36.1511C38.2499 36.6691 36.6959 36.9281 34.9446 36.9281L34.8336 40.7391H32.1326ZM33.4646 48.1761C32.8479 48.1761 32.3299 47.9788 31.9106 47.5841C31.5159 47.1648 31.3186 46.6591 31.3186 46.0671C31.3186 45.4751 31.5159 44.9818 31.9106 44.5871C32.3299 44.1678 32.8479 43.9581 33.4646 43.9581C34.0813 43.9581 34.5869 44.1678 34.9816 44.5871C35.3763 44.9818 35.5736 45.4751 35.5736 46.0671C35.5736 46.6591 35.3763 47.1648 34.9816 47.5841C34.5869 47.9788 34.0813 48.1761 33.4646 48.1761Z" fill="#5E606F"/>
</svg>
