<svg width="31" height="30" viewBox="0 0 31 30" fill="none" xmlns="http://www.w3.org/2000/svg">
<path d="M19.2418 9.64075H14.7757C14.065 9.64075 13.3834 9.92306 12.8809 10.4256C12.3784 10.9281 12.0961 11.6097 12.0961 12.3204C12.0961 13.0311 12.3784 13.7126 12.8809 14.2152C13.3834 14.7177 14.065 15 14.7757 15H16.5621C17.2728 15 17.9544 15.2823 18.4569 15.7849C18.9594 16.2874 19.2418 16.969 19.2418 17.6796C19.2418 18.3903 18.9594 19.0719 18.4569 19.5744C17.9544 20.077 17.2728 20.3593 16.5621 20.3593H12.0961" stroke="currentColor" stroke-width="2" stroke-linecap="round" stroke-linejoin="round"/>
<path d="M15.6689 20.3593V22.1457M15.6689 7.85431V9.64073" stroke="currentColor" stroke-width="2" stroke-linecap="round" stroke-linejoin="round"/>
</svg>
