<svg width="22" height="22" viewBox="0 0 22 22" fill="none" xmlns="http://www.w3.org/2000/svg">
<g clip-path="url(#clip0_755_97026)">
<path d="M9.16667 5.5V7.33333H4.58333V17.4167H14.6667V12.8333H16.5V18.3333C16.5 18.5764 16.4034 18.8096 16.2315 18.9815C16.0596 19.1534 15.8264 19.25 15.5833 19.25H3.66667C3.42355 19.25 3.19039 19.1534 3.01849 18.9815C2.84658 18.8096 2.75 18.5764 2.75 18.3333V6.41667C2.75 6.17355 2.84658 5.94039 3.01849 5.76849C3.19039 5.59658 3.42355 5.5 3.66667 5.5H9.16667ZM19.25 2.75V10.0833H17.4167V5.87858L10.2731 13.0231L8.97692 11.7269L16.1196 4.58333H11.9167V2.75H19.25Z" fill="#7A7A7A"/>
</g>
<defs>
<clipPath id="clip0_755_97026">
<rect width="22" height="22" fill="white"/>
</clipPath>
</defs>
</svg>
