<svg xmlns="http://www.w3.org/2000/svg"  viewBox="0 0 64 64" width="96px" height="96px" fill="currentColor"><path d="M 32 10 C 19.85 10 10 19.85 10 32 C 10 44.15 19.85 54 32 54 C 44.15 54 54 44.15 54 32 C 54 19.85 44.15 10 32 10 z M 32 14 C 41.941 14 50 22.059 50 32 C 50 41.941 41.941 50 32 50 C 22.059 50 14 41.941 14 32 C 14 22.059 22.059 14 32 14 z M 25.5 24 C 24.119 24 23 25.343 23 27 C 23 28.657 24.119 30 25.5 30 C 26.881 30 28 28.657 28 27 C 28 25.343 26.881 24 25.5 24 z M 38.5 24 C 37.119 24 36 25.343 36 27 C 36 28.657 37.119 30 38.5 30 C 39.881 30 41 28.657 41 27 C 41 25.343 39.881 24 38.5 24 z M 24.863281 37.224609 C 24.584439 37.21585 24.365016 37.297219 24.205078 37.511719 C 23.178078 38.888719 26.835 43 32 43 C 37.165 43 40.821922 38.888719 39.794922 37.511719 C 38.941922 36.367719 36.418 39 32 39 C 28.410375 39 26.071599 37.262568 24.863281 37.224609 z"/></svg>