<svg width="19" height="19" viewBox="0 0 19 19" fill="none" xmlns="http://www.w3.org/2000/svg">
<path d="M9.50001 13.3C10.7462 13.3 11.8056 14.0998 12.1928 15.2142L12.2392 15.2064L12.35 15.2H18.05C18.5747 15.2 19 15.6253 19 16.15C19 16.6372 18.6333 17.0388 18.1608 17.0936L18.05 17.1H12.35C12.2963 17.1 12.2436 17.0955 12.1923 17.087C11.8056 18.2002 10.7462 19 9.5 19C8.25377 19 7.19445 18.2002 6.80719 17.0858L6.7608 17.0936L6.65001 17.1H0.950007C0.425301 17.1 6.73022e-06 16.6747 6.73022e-06 16.15C6.73022e-06 15.6628 0.366741 15.2612 0.839196 15.2064L0.949993 15.2H6.64999C6.70367 15.2 6.75642 15.2045 6.80771 15.213C7.19443 14.0998 8.25378 13.3 9.50001 13.3V13.3ZM9.50001 15.2C8.9753 15.2 8.55001 15.6253 8.55001 16.15C8.55001 16.6747 8.9753 17.1 9.50001 17.1C10.0247 17.1 10.45 16.6747 10.45 16.15C10.45 15.6253 10.0247 15.2 9.50001 15.2ZM2.85001 6.65C4.0962 6.65 5.15556 7.44984 5.54282 8.56419L5.5892 8.55637L5.7 8.55001H18.05C18.5747 8.55001 19 8.9753 19 9.50001C19 9.98719 18.6333 10.3888 18.1608 10.4436L18.05 10.45H5.70001C5.64634 10.45 5.59359 10.4455 5.5423 10.437C5.15558 11.5502 4.09623 12.35 2.85 12.35C1.27602 12.35 0 11.074 0 9.5C0 7.92602 1.27602 6.64999 2.85 6.64999L2.85001 6.65ZM2.85001 8.55001C2.3253 8.55001 1.90001 8.9753 1.90001 9.50001C1.90001 10.0247 2.3253 10.45 2.85001 10.45C3.37471 10.45 3.80001 10.0247 3.80001 9.50001C3.80001 8.9753 3.37471 8.55001 2.85001 8.55001ZM13.3 0C14.5462 0 15.6056 0.799833 15.9928 1.91418L16.0392 1.90636L16.15 1.9H18.05C18.5747 1.9 19 2.3253 19 2.85C19 3.33718 18.6333 3.73876 18.1608 3.79362L18.05 3.79999H16.15C16.0963 3.79999 16.0436 3.79548 15.9923 3.787C15.6056 4.90016 14.5462 5.69999 13.3 5.69999C12.0538 5.69999 10.9945 4.90016 10.6072 3.78581L10.5608 3.79363L10.45 3.79999H0.950007C0.425301 3.79999 6.73022e-06 3.3747 6.73022e-06 2.84999C6.73022e-06 2.36281 0.366741 1.96123 0.839196 1.90637L0.949993 1.90001H10.45C10.5037 1.90001 10.5564 1.90451 10.6077 1.913C10.9944 0.799833 12.0538 0 13.3 0V0ZM13.3 1.9C12.7753 1.9 12.35 2.3253 12.35 2.85C12.35 3.37471 12.7753 3.8 13.3 3.8C13.8247 3.8 14.25 3.37471 14.25 2.85C14.25 2.3253 13.8247 1.9 13.3 1.9Z" fill="currentColor"/>
</svg>
