<svg xmlns="http://www.w3.org/2000/svg" width="16" height="16" viewBox="0 0 16 16" fill="none">
<path d="M2 2H8.25467C8.37844 2.00007 8.49975 2.03459 8.60502 2.0997C8.71028 2.16481 8.79534 2.25795 8.85067 2.36867L9.33333 3.33333H13.3333C13.5101 3.33333 13.6797 3.40357 13.8047 3.5286C13.9298 3.65362 14 3.82319 14 4V11.3333C14 11.5101 13.9298 11.6797 13.8047 11.8047C13.6797 11.9298 13.5101 12 13.3333 12H9.07867C8.95489 11.9999 8.83358 11.9654 8.72832 11.9003C8.62305 11.8352 8.53799 11.7421 8.48267 11.6313L8 10.6667H3.33333V14.6667H2V2Z" fill="white"/>
</svg>