<svg width="56" height="56" viewBox="0 0 56 56" fill="none" xmlns="http://www.w3.org/2000/svg">
<path d="M56 28C56 43.464 43.464 56 28 56C12.536 56 0 43.464 0 28C0 12.536 12.536 0 28 0C43.464 0 56 12.536 56 28Z" fill="#474DFF"/>
<path d="M32.6456 19.6071C33.6629 18.5886 35.319 18.5886 36.3363 19.6071C37.3535 20.6255 37.3535 22.2838 36.3363 23.3022C35.7471 23.8921 34.9407 24.1591 34.122 24.0412C34.0847 24.0349 34.0413 24.0349 34.0041 24.0412C33.7621 24.0102 33.5079 24.0412 33.2659 24.153C32.9248 24.3082 32.6828 24.594 32.5651 24.923C32.4472 25.2459 32.4533 25.6124 32.6085 25.9415C33.483 27.8357 33.0798 30.1025 31.6036 31.5805C30.1273 33.0585 27.8633 33.4621 25.9714 32.5865C25.6302 32.4312 25.2644 32.4251 24.9355 32.5493C24.613 32.6672 24.3401 32.9094 24.185 33.2448C24.0858 33.4621 24.0485 33.6857 24.0609 33.9092C24.0548 33.9527 24.0548 33.9963 24.0609 34.0397C24.1974 34.8719 23.9245 35.7227 23.3291 36.3189C22.3118 37.3374 20.6557 37.3374 19.6383 36.3189C19.1422 35.8221 18.8754 35.17 18.8754 34.4683C18.8754 33.7727 19.1483 33.1143 19.6383 32.6175C20.2276 32.0276 21.0341 31.7606 21.8528 31.8785C21.8651 31.8785 21.8775 31.8785 21.8962 31.8785C21.983 31.8972 22.0698 31.9096 22.1629 31.9096C22.3552 31.9096 22.5474 31.8723 22.7274 31.7854C23.0623 31.6301 23.298 31.3569 23.4221 31.0401C23.5462 30.711 23.5462 30.3384 23.3849 29.9968C22.5103 28.1027 22.9134 25.836 24.3897 24.358C25.866 22.8798 28.1301 22.4762 30.0218 23.3518C30.3568 23.5071 30.729 23.5133 31.0516 23.3953C31.374 23.2773 31.6532 23.0352 31.8083 22.6997C31.9262 22.439 31.9571 22.1595 31.9137 21.8924V21.8862C31.7773 21.0541 32.0502 20.2033 32.6456 19.6071ZM30.0652 30.0403C31.1942 28.91 31.1942 27.078 30.0652 25.9478C28.9364 24.8175 27.1066 24.8175 25.9777 25.9478C24.8487 27.078 24.8487 28.91 25.9777 30.0403C27.1066 31.1705 28.9364 31.1705 30.0652 30.0403ZM27.9997 10.5091C37.6451 10.5091 45.4668 18.3402 45.4668 27.9971C45.4668 37.6541 37.6513 45.4914 27.9997 45.4914C18.3482 45.4914 10.5327 37.6603 10.5327 27.9971C10.5327 18.334 18.3544 10.5091 27.9997 10.5091ZM37.3101 24.2772C38.8546 22.7309 38.8546 20.2281 37.3101 18.6818C35.7656 17.1353 33.2659 17.1353 31.7215 18.6818C31.1508 19.2531 30.7911 19.9611 30.6422 20.7001C27.8447 19.6444 24.6316 20.3151 22.4916 22.4576C20.3518 24.6001 19.6817 27.817 20.7424 30.624C19.9982 30.7731 19.291 31.1333 18.7142 31.7108C17.1696 33.2571 17.1696 35.7599 18.7142 37.3064C20.2587 38.8527 22.7584 38.8527 24.3029 37.3064C24.8797 36.7287 25.2457 36.0083 25.3884 35.2632C26.2567 35.5861 27.1624 35.7475 28.0618 35.7475C30.0652 35.7475 32.0439 34.9713 33.514 33.4994C35.6416 31.3693 36.3178 28.171 35.2819 25.3701C36.02 25.2149 36.7333 24.8547 37.3101 24.2772Z" fill="white"/>
</svg>
