<svg width="19" height="19" viewBox="0 0 19 19" fill="none" xmlns="http://www.w3.org/2000/svg">
  <path d="M11.8113 4.90883C12.3483 4.37193 13.2225 4.37193 13.7595 4.90883C14.2965 5.44572 14.2965 6.3198 13.7595 6.85669C13.4484 7.16772 13.0228 7.30847 12.5905 7.24629C12.5709 7.24302 12.548 7.24302 12.5283 7.24629C12.4007 7.2299 12.2664 7.24629 12.1387 7.3052C11.9586 7.38704 11.8309 7.53763 11.7687 7.71116C11.7065 7.88139 11.7098 8.07452 11.7916 8.24805C12.2533 9.24654 12.0405 10.4415 11.2612 11.2206C10.4819 11.9998 9.28678 12.2126 8.28811 11.751C8.10801 11.6691 7.91482 11.6658 7.74129 11.7313C7.57101 11.7935 7.42694 11.9212 7.3451 12.098C7.29271 12.2126 7.27305 12.3304 7.27962 12.4483C7.27632 12.4712 7.27632 12.4941 7.27962 12.517C7.35164 12.9557 7.20757 13.4042 6.89324 13.7185C6.35624 14.2554 5.48201 14.2554 4.94501 13.7185C4.68307 13.4566 4.54227 13.1128 4.54227 12.7429C4.54227 12.3762 4.68635 12.0292 4.94501 11.7673C5.25607 11.4563 5.68175 11.3155 6.11394 11.3777C6.12049 11.3777 6.12706 11.3777 6.13687 11.3777C6.18272 11.3876 6.22856 11.3941 6.27765 11.3941C6.37918 11.3941 6.48068 11.3745 6.57561 11.3286C6.75244 11.2468 6.87685 11.1027 6.94236 10.9358C7.00783 10.7623 7.00783 10.5658 6.92269 10.3858C6.46102 9.38731 6.67384 8.19239 7.45315 7.41324C8.23242 6.6341 9.42755 6.4213 10.4262 6.8829C10.603 6.96474 10.7995 6.96801 10.9698 6.90581C11.14 6.8436 11.2874 6.71594 11.3692 6.53914C11.4314 6.40166 11.4478 6.25434 11.4249 6.11357V6.1103C11.3529 5.67161 11.4969 5.2231 11.8113 4.90883ZM10.4492 10.4087C11.0451 9.81288 11.0451 8.84715 10.4492 8.25132C9.85323 7.6555 8.88731 7.6555 8.29138 8.25132C7.69545 8.84715 7.69545 9.81288 8.29138 10.4087C8.88731 11.0045 9.85323 11.0045 10.4492 10.4087ZM9.3588 0.112793C14.4504 0.112793 18.5793 4.24098 18.5793 9.33165C18.5793 14.4223 14.4537 18.5538 9.3588 18.5538C4.26394 18.5538 0.138306 14.4256 0.138306 9.33165C0.138306 4.2377 4.26722 0.112793 9.3588 0.112793ZM14.2736 7.37067C15.0889 6.55553 15.0889 5.23619 14.2736 4.42105C13.4583 3.60588 12.1387 3.60588 11.3234 4.42105C11.0222 4.72221 10.8322 5.09542 10.7537 5.48502C9.27693 4.92846 7.58086 5.28204 6.4512 6.41148C5.32155 7.5409 4.96792 9.23672 5.52785 10.7164C5.13493 10.795 4.76164 10.9849 4.45713 11.2894C3.64183 12.1045 3.64183 13.4238 4.45713 14.239C5.27243 15.0542 6.592 15.0542 7.4073 14.239C7.71181 13.9345 7.905 13.5548 7.9803 13.1619C8.43873 13.3322 8.91676 13.4173 9.39155 13.4173C10.4492 13.4173 11.4937 13.0081 12.2697 12.2322C13.3928 11.1093 13.7497 9.42331 13.2029 7.94686C13.5925 7.86502 13.969 7.67513 14.2736 7.37067Z" fill="currentColor" />
</svg>