<svg xmlns="http://www.w3.org/2000/svg" width="32" height="32" viewBox="0 0 32 32" fill="none">
<circle cx="16" cy="16" r="16" fill="transparent"/>
<path d="M20.2557 8.32242C21.1875 7.39074 22.7045 7.39074 23.6363 8.32242C24.5682 9.25401 24.5682 10.7708 23.6363 11.7024C23.0966 12.2422 22.3579 12.4864 21.6079 12.3785C21.5738 12.3728 21.5341 12.3728 21.4999 12.3785C21.2784 12.3501 21.0455 12.3785 20.8238 12.4807C20.5114 12.6227 20.2898 12.884 20.1818 13.1851C20.0739 13.4806 20.0795 13.8157 20.2216 14.1168C21.0227 15.8495 20.6534 17.923 19.3011 19.275C17.9488 20.627 15.875 20.9962 14.142 20.1953C13.8295 20.0533 13.4943 20.0476 13.1932 20.1611C12.8977 20.2691 12.6477 20.4906 12.5057 20.7974C12.4147 20.9962 12.3807 21.2007 12.392 21.4053C12.3863 21.445 12.3863 21.4848 12.392 21.5246C12.5171 22.2858 12.2671 23.0641 11.7216 23.6094C10.7898 24.5411 9.27274 24.5411 8.3409 23.6094C7.88634 23.155 7.64202 22.5585 7.64202 21.9166C7.64202 21.2803 7.89202 20.6781 8.3409 20.2237C8.88066 19.684 9.6193 19.4397 10.3693 19.5477C10.3807 19.5477 10.392 19.5477 10.4091 19.5477C10.4887 19.5647 10.5682 19.5761 10.6534 19.5761C10.8295 19.5761 11.0057 19.542 11.1704 19.4624C11.4773 19.3204 11.6931 19.0705 11.8068 18.7807C11.9204 18.4797 11.9204 18.1388 11.7727 17.8264C10.9715 16.0938 11.3409 14.0203 12.6931 12.6682C14.0455 11.3162 16.1193 10.9469 17.8523 11.7479C18.1591 11.8899 18.5 11.8956 18.7955 11.7877C19.0909 11.6797 19.3466 11.4582 19.4886 11.1514C19.5966 10.9128 19.625 10.6572 19.5852 10.4129V10.4072C19.4603 9.64601 19.7103 8.86777 20.2557 8.32242ZM17.892 17.8662C18.9262 16.8322 18.9262 15.1564 17.892 14.1225C16.8579 13.0886 15.1819 13.0886 14.1477 14.1225C13.1136 15.1564 13.1136 16.8322 14.1477 17.8662C15.1819 18.9 16.8579 18.9 17.892 17.8662ZM16 0C24.8352 0 32 7.16349 32 15.9971C32 24.8308 24.8409 32 16 32C7.15907 32 0 24.8365 0 15.9971C0 7.15781 7.16474 0 16 0ZM24.5284 12.5943C25.9431 11.1799 25.9431 8.89041 24.5284 7.47596C23.1136 6.06142 20.8239 6.06142 19.4091 7.47596C18.8863 7.99858 18.5568 8.64617 18.4204 9.32225C15.8579 8.35649 12.9148 8.97001 10.9545 10.9299C8.99426 12.8897 8.38066 15.8324 9.35226 18.4001C8.67042 18.5365 8.02274 18.866 7.49426 19.3942C6.07955 20.8088 6.07955 23.0982 7.49426 24.5126C8.90906 25.9272 11.1989 25.9272 12.6136 24.5126C13.142 23.9843 13.4773 23.3254 13.6079 22.6437C14.4034 22.939 15.2329 23.0868 16.0568 23.0868C17.892 23.0868 19.7046 22.3766 21.0511 21.0303C22.9999 19.0818 23.6193 16.1562 22.6704 13.5942C23.3466 13.4522 24 13.1227 24.5284 12.5943Z" fill="#2755F8"/>
</svg>