<svg width="25" height="24" viewBox="0 0 25 24" fill="none" xmlns="http://www.w3.org/2000/svg">
<g id="Frame 6997">
<path id="Vector 11" d="M24.3536 12.3536C24.5488 12.1583 24.5488 11.8417 24.3536 11.6464L21.1716 8.46447C20.9763 8.2692 20.6597 8.2692 20.4645 8.46447C20.2692 8.65973 20.2692 8.97631 20.4645 9.17157L23.2929 12L20.4645 14.8284C20.2692 15.0237 20.2692 15.3403 20.4645 15.5355C20.6597 15.7308 20.9763 15.7308 21.1716 15.5355L24.3536 12.3536ZM11.5 0V8H12.5V0H11.5ZM16 12.5H24V11.5H16V12.5ZM11.5 8C11.5 10.4853 13.5147 12.5 16 12.5V11.5C14.067 11.5 12.5 9.933 12.5 8H11.5Z" fill="#B8B8B8"/>
</g>
</svg>
