<svg width="70" height="70" viewBox="0 0 70 70" fill="none" xmlns="http://www.w3.org/2000/svg">
<g filter="url(#filter0_b_5154_99)">
<circle cx="34.551" cy="34.551" r="34.551" fill="#19FC9C" fill-opacity="0.16"/>
</g>
<path fill-rule="evenodd" clip-rule="evenodd" d="M25.7381 26.219C30.6059 21.3512 38.498 21.3512 43.3657 26.219C48.2335 31.0867 48.2335 38.9789 43.3657 43.8466C42.4123 44.8 42.4123 46.3459 43.3657 47.2993C44.3192 48.2527 45.865 48.2527 46.8185 47.2993C53.5931 40.5247 53.5931 29.5409 46.8185 22.7663C40.0438 15.9916 29.06 15.9916 22.2854 22.7663C15.5108 29.5409 15.5108 40.5247 22.2854 47.2993C23.2389 48.2527 24.7847 48.2527 25.7381 47.2993C26.6916 46.3459 26.6916 44.8 25.7381 43.8466C20.8704 38.9789 20.8704 31.0867 25.7381 26.219ZM34.5513 35.6816C33.2029 35.6816 32.1098 36.7211 32.1098 38.0034V47.2667C32.1098 48.549 33.2029 49.5885 34.5513 49.5885C35.8996 49.5885 36.9927 48.549 36.9927 47.2667L36.9927 38.0034C36.9927 36.7211 35.8996 35.6816 34.5513 35.6816ZM32.1098 31.0218C32.1098 29.6735 33.2029 28.5804 34.5513 28.5804C35.8996 28.5804 36.9927 29.6735 36.9927 31.0218V31.0554C36.9927 32.4037 35.8996 33.4968 34.5513 33.4968C33.2029 33.4968 32.1098 32.4037 32.1098 31.0554V31.0218Z" fill="#19FC9C"/>
<defs>
<filter id="filter0_b_5154_99" x="-34" y="-34" width="137.102" height="137.102" filterUnits="userSpaceOnUse" color-interpolation-filters="sRGB">
<feFlood flood-opacity="0" result="BackgroundImageFix"/>
<feGaussianBlur in="BackgroundImage" stdDeviation="17"/>
<feComposite in2="SourceAlpha" operator="in" result="effect1_backgroundBlur_5154_99"/>
<feBlend mode="normal" in="SourceGraphic" in2="effect1_backgroundBlur_5154_99" result="shape"/>
</filter>
</defs>
</svg>
