<svg width="17" height="15" viewBox="0 0 17 15" fill="none" xmlns="http://www.w3.org/2000/svg">
<path d="M12.4079 3.9119C10.2493 1.75336 6.74967 1.75336 4.59113 3.9119C2.43259 6.07044 2.43259 9.57012 4.59113 11.7287C5.01392 12.1514 5.01392 12.8369 4.59113 13.2597C4.16834 13.6825 3.48286 13.6825 3.06007 13.2597C0.0559464 10.2556 0.0559467 5.38496 3.06007 2.38084C6.06419 -0.623283 10.9348 -0.623283 13.9389 2.38084C16.9431 5.38496 16.9431 10.2556 13.9389 13.2597C13.5162 13.6825 12.8307 13.6825 12.4079 13.2597C11.9851 12.8369 11.9851 12.1514 12.4079 11.7287C14.5664 9.57012 14.5664 6.07044 12.4079 3.9119Z" fill="black"/>
<path d="M8.49977 8.10799C9.09769 8.10799 9.58239 8.56895 9.58239 9.13758L9.5824 13.2452C9.5824 13.8139 9.09769 14.2748 8.49977 14.2748C7.90185 14.2748 7.41715 13.8139 7.41715 13.2452V9.13758C7.41715 8.56895 7.90185 8.10799 8.49977 8.10799Z" fill="black"/>
<path d="M9.58239 6.04168C9.58239 5.44376 9.09769 4.95905 8.49977 4.95905C7.90185 4.95905 7.41715 5.44376 7.41715 6.04168V6.05654C7.41715 6.65446 7.90185 7.13917 8.49977 7.13917C9.09769 7.13917 9.58239 6.65446 9.58239 6.05654V6.04168Z" fill="black"/>
</svg>
