<svg
  width="22"
  height="22"
  viewBox="0 0 22 22"
  fill="none"
  xmlns="http://www.w3.org/2000/svg"
>
  <circle
    cx="11"
    cy="11"
    r="11"
    fill="transparent"
  />
  <path
    d="M11 22C17.0751 22 22 17.0751 22 11C22 4.92486 17.0751 0 11 0C4.92486 0 0 4.92486 0 11C0 17.0751 4.92486 22 11 22ZM13.9472 13.8946C15.5749 12.2687 15.5749 9.63256 13.9472 8.00667C12.3195 6.38073 9.68047 6.38073 8.05277 8.00667C6.42507 9.63256 6.42507 12.2687 8.05277 13.8946C8.3716 14.2131 8.3716 14.7294 8.05277 15.0479C7.73395 15.3663 7.21703 15.3663 6.89825 15.0479C4.63289 12.785 4.63289 9.11621 6.89825 6.85339C9.16356 4.59052 12.8364 4.59052 15.1018 6.85339C17.3671 9.11621 17.3671 12.785 15.1018 15.0479C14.783 15.3663 14.2661 15.3663 13.9472 15.0479C13.6284 14.7294 13.6284 14.2131 13.9472 13.8946ZM11.0002 11.1673C11.4511 11.1673 11.8166 11.5146 11.8166 11.9429V15.037C11.8166 15.4653 11.4511 15.8125 11.0002 15.8125C10.5493 15.8125 10.1838 15.4653 10.1838 15.037V11.9429C10.1838 11.5146 10.5493 11.1673 11.0002 11.1673ZM11.0002 8.7954C11.4511 8.7954 11.8166 9.16051 11.8166 9.61091V9.62208C11.8166 10.0725 11.4511 10.4376 11.0002 10.4376C10.5493 10.4376 10.1838 10.0725 10.1838 9.62208V9.61091C10.1838 9.16051 10.5493 8.7954 11.0002 8.7954Z"
    fill="currentColor"
  />
</svg>
