<svg width="85" height="84" viewBox="0 0 85 84" fill="none" xmlns="http://www.w3.org/2000/svg">
  <path fill-rule="evenodd" clip-rule="evenodd" d="M40.1838 21.6529L40.1838 51.9321C40.1838 55.983 36.9 59.2668 32.8491 59.2668C29.1206 59.2668 26.0419 56.4849 25.5755 52.8835C25.5351 52.572 25.5143 52.2545 25.5143 51.932L25.5143 51.9168C25.5143 51.9158 25.5143 51.9148 25.5143 51.9138V21.6529H40.1838ZM32.8491 55.3169C30.9797 55.3169 29.4642 53.8015 29.4642 51.9321C29.4642 50.0627 30.9797 48.5472 32.8491 48.5472C34.7185 48.5472 36.2339 50.0627 36.2339 51.9321C36.2339 53.8015 34.7185 55.3169 32.8491 55.3169ZM39.2314 59.2668H63.1283V44.5973L42.5717 44.5973V47.9404H59.7852V55.9237L41.7172 55.9237C41.1365 57.2118 40.2834 58.3506 39.2314 59.2668ZM54.8689 54.341C53.5385 54.341 52.46 53.2625 52.46 51.9321C52.46 50.6017 53.5385 49.5232 54.8689 49.5232C56.1993 49.5232 57.2778 50.6017 57.2778 51.9321C57.2778 53.2625 56.1993 54.341 54.8689 54.341Z" fill="currentColor" />
</svg>