<svg width="39" height="39" viewBox="0 0 39 39" fill="none" xmlns="http://www.w3.org/2000/svg">
  <path fill-rule="evenodd" clip-rule="evenodd" d="M15.1838 0.652863L15.1838 30.9321C15.1838 34.983 11.9 38.2668 7.84909 38.2668C4.12062 38.2668 1.04192 35.4849 0.575483 31.8835C0.535146 31.572 0.514343 31.2545 0.514343 30.932L0.514343 30.9168C0.514345 30.9158 0.514347 30.9148 0.51435 30.9139V0.652863H15.1838ZM7.84907 34.3169C5.97967 34.3169 4.46422 32.8015 4.46422 30.9321C4.46422 29.0627 5.97967 27.5472 7.84907 27.5472C9.71847 27.5472 11.2339 29.0627 11.2339 30.9321C11.2339 32.8015 9.71847 34.3169 7.84907 34.3169ZM14.2314 38.2668L38.1283 38.2668V23.5973L17.5717 23.5973V26.9404L34.7852 26.9404V34.9237L16.7172 34.9237C16.1365 36.2118 15.2834 37.3506 14.2314 38.2668ZM29.8689 33.341C28.5385 33.341 27.46 32.2625 27.46 30.9321C27.46 29.6017 28.5385 28.5232 29.8689 28.5232C31.1993 28.5232 32.2778 29.6017 32.2778 30.9321C32.2778 32.2625 31.1993 33.341 29.8689 33.341Z" fill="currentColor" />
</svg>