<svg width="11" height="12" viewBox="0 0 11 12" fill="none" xmlns="http://www.w3.org/2000/svg">
  <path fill-rule="evenodd" clip-rule="evenodd" d="M4.03674 5.37295H7.04703V3.34321C7.04703 2.51195 6.37315 1.83807 5.54189 1.83807C4.71062 1.83807 4.03674 2.51195 4.03674 3.34321V5.37295ZM2.53674 5.37295H1.62708C1.07479 5.37295 0.627075 5.82066 0.627075 6.37295V10.4785C0.627075 11.0308 1.07479 11.4785 1.62708 11.4785H9.45659C10.0089 11.4785 10.4566 11.0308 10.4566 10.4785V6.37295C10.4566 5.82066 10.0089 5.37295 9.45659 5.37295H8.54703V3.34321C8.54703 1.68352 7.20158 0.33807 5.54189 0.33807C3.88219 0.33807 2.53674 1.68352 2.53674 3.34321V5.37295Z" fill="currentColor" />
</svg>