<svg width="20px" height="20px" viewBox="0 0 24 24" xmlns="http://www.w3.org/2000/svg" fill="currentColor" stroke="currentColor" stroke-width="0.00024000000000000003">
  <g id="SVGRepo_bgCarrier" stroke-width="0"></g>
  <g id="SVGRepo_tracerCarrier" stroke-linecap="round" stroke-linejoin="round"></g>
  <g id="SVGRepo_iconCarrier">
    <g>
      <path fill="none" d="M0 0h24v24H0z"></path>
      <path d="M12 14v8H4a8 8 0 0 1 8-8zm0-1c-3.315 0-6-2.685-6-6s2.685-6 6-6 6 2.685 6 6-2.685 6-6 6zm8.828 7.828L18 23.657l-2.828-2.829a4 4 0 1 1 5.656 0zM18 17a1 1 0 1 0 0 2 1 1 0 0 0 0-2z"></path>
    </g>
  </g>
</svg>