<svg width="25" height="6" viewBox="0 0 25 6" fill="none" xmlns="http://www.w3.org/2000/svg">
<path fill-rule="evenodd" clip-rule="evenodd" d="M3.38053 5.84621C4.84009 5.84621 6.0233 4.663 6.0233 3.20344C6.0233 1.74388 4.84009 0.560669 3.38053 0.560669C1.92097 0.560669 0.737762 1.74388 0.737762 3.20344C0.737762 4.663 1.92097 5.84621 3.38053 5.84621ZM15.484 3.20344C15.484 4.663 14.3008 5.84621 12.8412 5.84621C11.3816 5.84621 10.1984 4.663 10.1984 3.20344C10.1984 1.74388 11.3816 0.560669 12.8412 0.560669C14.3008 0.560669 15.484 1.74388 15.484 3.20344ZM24.9447 3.20344C24.9447 4.663 23.7614 5.84621 22.3019 5.84621C20.8423 5.84621 19.6591 4.663 19.6591 3.20344C19.6591 1.74388 20.8423 0.560669 22.3019 0.560669C23.7614 0.560669 24.9447 1.74388 24.9447 3.20344Z" fill="white"/>
</svg>
