<svg xmlns="http://www.w3.org/2000/svg" width="36" height="36" viewBox="0 0 36 36" fill="none">
<circle cx="18" cy="18" r="18" fill="black"/>
<path d="M35.5 18C35.5 27.665 27.665 35.5 18 35.5C8.33503 35.5 0.5 27.665 0.5 18C0.5 8.33501 8.33503 0.5 18 0.5C27.665 0.5 35.5 8.33501 35.5 18ZM12.1438 12.3363C12.1438 11.309 11.311 10.4762 10.2836 10.4762C9.25636 10.4762 8.42356 11.309 8.42356 12.3363V23.6636C8.42356 24.691 9.25634 25.5238 10.2836 25.5238C11.311 25.5238 12.1438 24.691 12.1438 23.6636V12.3363ZM27.5766 12.3364C27.5766 11.3091 26.7438 10.4762 25.7165 10.4762C24.6891 10.4762 23.8563 11.309 23.8563 12.3364V23.6637C23.8563 24.691 24.6891 25.5238 25.7165 25.5238C26.7438 25.5238 27.5766 24.691 27.5766 23.6637V12.3364ZM23.7183 16.732C23.7183 15.7047 22.8855 14.8719 21.8582 14.8719C20.8308 14.8719 19.998 15.7047 19.998 16.732V23.6637C19.998 24.691 20.8308 25.5238 21.8582 25.5238C22.8855 25.5238 23.7183 24.691 23.7183 23.6637V16.732ZM16.002 16.732C16.002 15.7047 15.1691 14.8719 14.1419 14.8719C13.1145 14.8719 12.2817 15.7047 12.2817 16.732V23.6637C12.2817 24.691 13.1145 25.5238 14.1419 25.5238C15.1691 25.5238 16.002 24.691 16.002 23.6637V16.732ZM19.86 20.7896C19.86 19.7622 19.0272 18.9294 17.9998 18.9294C16.9725 18.9294 16.1397 19.7622 16.1397 20.7896V23.6636C16.1397 24.691 16.9725 25.5238 17.9998 25.5238C19.0272 25.5238 19.86 24.691 19.86 23.6636V20.7896Z" fill="#009EF8" stroke="#009EF8"/>
</svg>