<svg
  width="22"
  height="22"
  viewBox="0 0 22 22"
  fill="none"
  xmlns="http://www.w3.org/2000/svg"
>
  <circle
    cx="11"
    cy="11"
    r="11"
    fill="transparent"
  />
  <path
    d="M21.5 11C21.5 16.799 16.799 21.5 11 21.5C5.20102 21.5 0.5 16.799 0.5 11C0.5 5.20101 5.20102 0.5 11 0.5C16.799 0.5 21.5 5.20101 21.5 11ZM7.61567 7.53886C7.61567 6.80366 7.01965 6.2077 6.28445 6.2077C5.54928 6.2077 4.95329 6.80369 4.95329 7.53886V14.4611C4.95329 15.1963 5.54926 15.7923 6.28445 15.7923C6.79623 15.7923 7.24055 15.5035 7.46335 15.08C7.68614 15.5035 8.13047 15.7923 8.64225 15.7923C9.15394 15.7923 9.59826 15.5036 9.82109 15.0801C10.0439 15.5036 10.4882 15.7923 10.9999 15.7923C11.5117 15.7923 11.956 15.5035 12.1788 15.0799C12.4016 15.5035 12.846 15.7923 13.3578 15.7923C13.8696 15.7923 14.3139 15.5035 14.5367 15.0799C14.7595 15.5035 15.2038 15.7923 15.7156 15.7923C16.4508 15.7923 17.0468 15.1963 17.0468 14.4612V7.53891C17.0468 6.80371 16.4508 6.2077 15.7156 6.2077C14.9804 6.2077 14.3844 6.80369 14.3844 7.53891V9.37771C14.1403 9.08224 13.771 8.89395 13.3578 8.89395C12.6226 8.89395 12.0266 9.48992 12.0266 10.2251V11.8573C11.7824 11.5618 11.4131 11.3735 10.9999 11.3735C10.5868 11.3735 10.2176 11.5617 9.97346 11.857V10.2251C9.97346 9.4899 9.37738 8.89395 8.64225 8.89395C8.22906 8.89395 7.85984 9.08219 7.61567 9.37758V7.53886Z"
    fill="currentColor"
    stroke="currentColor"
  />
</svg>
