<svg width="102" height="102" viewBox="0 0 102 102" fill="none" xmlns="http://www.w3.org/2000/svg">
<g filter="url(#filter0_b_5154_100)">
<circle cx="50.9951" cy="50.9951" r="50.9951" fill="#0167F9" fill-opacity="0.26"/>
</g>
<path fill-rule="evenodd" clip-rule="evenodd" d="M31.1391 32.9211C33.0721 32.9211 34.639 34.4881 34.639 36.4211V65.5688C34.639 67.5018 33.0721 69.0687 31.1391 69.0687C29.2061 69.0687 27.6392 67.5018 27.6392 65.5688V36.4211C27.6392 34.4881 29.2061 32.9211 31.1391 32.9211ZM70.8514 32.9211C72.7843 32.9211 74.3513 34.4881 74.3513 36.4211V65.5688C74.3513 67.5018 72.7843 69.0687 70.8514 69.0687C68.9184 69.0687 67.3514 67.5018 67.3514 65.5688V36.4211C67.3514 34.4881 68.9184 32.9211 70.8514 32.9211ZM64.424 47.732C64.424 45.799 62.857 44.2321 60.924 44.2321C58.9911 44.2321 57.4241 45.799 57.4241 47.732V65.5687C57.4241 67.5016 58.9911 69.0686 60.924 69.0686C62.857 69.0686 64.424 67.5016 64.424 65.5687L64.424 47.732ZM41.0664 44.2321C42.9994 44.2321 44.5664 45.799 44.5664 47.732V65.5687C44.5664 67.5016 42.9994 69.0686 41.0664 69.0686C39.1335 69.0686 37.5665 67.5016 37.5665 65.5687L37.5665 47.732C37.5665 45.799 39.1335 44.2321 41.0664 44.2321ZM54.4949 58.1732C54.4949 56.2402 52.9279 54.6732 50.9949 54.6732C49.062 54.6732 47.495 56.2402 47.495 58.1732V65.5689C47.495 67.5018 49.062 69.0688 50.9949 69.0688C52.9279 69.0688 54.4949 67.5018 54.4949 65.5689V58.1732Z" fill="#0167F9"/>
<defs>
<filter id="filter0_b_5154_100" x="-34" y="-34" width="169.99" height="169.99" filterUnits="userSpaceOnUse" color-interpolation-filters="sRGB">
<feFlood flood-opacity="0" result="BackgroundImageFix"/>
<feGaussianBlur in="BackgroundImage" stdDeviation="17"/>
<feComposite in2="SourceAlpha" operator="in" result="effect1_backgroundBlur_5154_100"/>
<feBlend mode="normal" in="SourceGraphic" in2="effect1_backgroundBlur_5154_100" result="shape"/>
</filter>
</defs>
</svg>
