<svg width="13" height="10" viewBox="0 0 13 10" fill="none" xmlns="http://www.w3.org/2000/svg">
<path fill-rule="evenodd" clip-rule="evenodd" d="M1.84476 0.872681C2.32307 0.872681 2.71082 1.26079 2.71082 1.73955V8.95892C2.71082 9.43768 2.32307 9.82579 1.84476 9.82579C1.36646 9.82579 0.978714 9.43768 0.978714 8.95892V1.73955C0.978714 1.26079 1.36646 0.872681 1.84476 0.872681ZM11.6714 0.872681C12.1497 0.872681 12.5375 1.26079 12.5375 1.73955V8.95892C12.5375 9.43768 12.1497 9.82579 11.6714 9.82579C11.1931 9.82579 10.8054 9.43768 10.8054 8.95892V1.73955C10.8054 1.26079 11.1931 0.872681 11.6714 0.872681ZM10.0808 4.5411C10.0808 4.06234 9.69308 3.67423 9.21477 3.67423C8.73647 3.67423 8.34872 4.06234 8.34872 4.5411V8.95892C8.34872 9.43768 8.73647 9.82579 9.21477 9.82579C9.69308 9.82579 10.0808 9.43768 10.0808 8.95892V4.5411ZM4.30144 3.67423C4.77974 3.67423 5.16749 4.06234 5.16749 4.5411V8.95892C5.16749 9.43768 4.77974 9.82579 4.30144 9.82579C3.82313 9.82579 3.43539 9.43768 3.43539 8.95892L3.43539 4.5411C3.43539 4.06234 3.82313 3.67423 4.30144 3.67423ZM7.62416 7.12714C7.62416 6.64838 7.23641 6.26026 6.7581 6.26026C6.2798 6.26026 5.89205 6.64838 5.89205 7.12714V8.95891C5.89205 9.43767 6.2798 9.82579 6.7581 9.82579C7.23641 9.82579 7.62416 9.43767 7.62416 8.95891V7.12714Z" fill="currentColor"/>
</svg>
