<svg xmlns="http://www.w3.org/2000/svg" xmlns:xlink="http://www.w3.org/1999/xlink" viewBox="0,0,256,256" width="30px" height="30px" fill-rule="nonzero"><g fill="#ffffff" fill-rule="nonzero" stroke="none" stroke-width="1" stroke-linecap="butt" stroke-linejoin="miter" stroke-miterlimit="10" stroke-dasharray="" stroke-dashoffset="0" font-family="none" style="mix-blend-mode: normal"><g transform="scale(8.53333,8.53333)"><path d="M7.97852,5.98047c-0.81349,0.00101 -1.54534,0.49459 -1.85108,1.24844c-0.30574,0.75385 -0.12447,1.61777 0.4585,2.18515l5.58594,5.58594l-5.58594,5.58594c-0.52247,0.50163 -0.73294,1.24653 -0.55022,1.94741c0.18271,0.70088 0.73006,1.24822 1.43094,1.43094c0.70088,0.18271 1.44578,-0.02775 1.94741,-0.55022l5.58594,-5.58594l5.58594,5.58594c0.50163,0.52248 1.24653,0.73295 1.94742,0.55024c0.70088,-0.18271 1.24823,-0.73006 1.43094,-1.43094c0.18271,-0.70088 -0.02776,-1.44578 -0.55024,-1.94742l-5.58594,-5.58594l5.58594,-5.58594c0.59152,-0.57498 0.76938,-1.45413 0.44787,-2.21383c-0.32151,-0.75969 -1.07643,-1.24409 -1.90099,-1.21977c-0.5196,0.01548 -1.01276,0.23264 -1.375,0.60547l-5.58594,5.58594l-5.58594,-5.58594c-0.37701,-0.38755 -0.89487,-0.60596 -1.43555,-0.60547z"></path></g></g></svg>
