<svg width="16" height="16" viewBox="0 0 16 16" fill="none" xmlns="http://www.w3.org/2000/svg">
<path fill-rule="evenodd" clip-rule="evenodd" d="M8.5926 0.0303345C8.06216 0.0303497 7.55345 0.241058 7.17838 0.616135L0.619581 7.17497C-0.161463 7.95601 -0.161463 9.22234 0.619581 10.0034L5.6597 15.0435C6.44075 15.8246 7.70708 15.8246 8.48813 15.0435L15.0469 8.48466C15.422 8.10959 15.6327 7.60089 15.6327 7.07047L15.6327 2.03033C15.6327 0.925766 14.7373 0.0303345 13.6327 0.0303345H8.5926ZM11.0727 6.27687C12.0041 6.27687 12.7591 5.52182 12.7591 4.59039C12.7591 3.65898 12.0041 2.90392 11.0727 2.90392C10.1412 2.90392 9.38618 3.65898 9.38618 4.59039C9.38618 5.52182 10.1412 6.27687 11.0727 6.27687Z" fill="currentColor"/>
</svg>
