<svg width="20" height="19" viewBox="0 0 20 19" fill="none" xmlns="http://www.w3.org/2000/svg">
<path d="M3.05979 0.480367C2.99397 0.406177 2.91409 0.345788 2.82476 0.3027C2.73543 0.259612 2.63844 0.234681 2.53941 0.229354C2.44038 0.224026 2.34127 0.238407 2.24784 0.271663C2.15441 0.304919 2.0685 0.356389 1.99511 0.423089C1.92171 0.48979 1.86229 0.570394 1.82027 0.660231C1.77826 0.750068 1.75449 0.84735 1.75035 0.946439C1.74621 1.04553 1.76178 1.14445 1.79615 1.23748C1.83053 1.33051 1.88302 1.41579 1.9506 1.48838L2.85463 2.48328H2.50519C1.90889 2.48328 1.33701 2.72016 0.915365 3.14181C0.493716 3.56346 0.256836 4.13534 0.256836 4.73164V15.224C0.256836 15.8203 0.493716 16.3922 0.915365 16.8138C1.33701 17.2355 1.90889 17.4723 2.50519 17.4723H16.4816L16.9397 17.9763C17.0055 18.0505 17.0854 18.1109 17.1747 18.154C17.264 18.1971 17.361 18.222 17.46 18.2274C17.5591 18.2327 17.6582 18.2183 17.7516 18.185C17.845 18.1518 17.9309 18.1003 18.0043 18.0336C18.0777 17.9669 18.1372 17.8863 18.1792 17.7965C18.2212 17.7066 18.245 17.6094 18.2491 17.5103C18.2532 17.4112 18.2377 17.3123 18.2033 17.2192C18.1689 17.1262 18.1164 17.0409 18.0488 16.9683L3.05979 0.480367ZM9.99972 12.9756C9.36161 12.9755 8.7366 12.7944 8.19731 12.4533C7.65802 12.1122 7.22656 11.6251 6.95306 11.0486C6.67956 10.472 6.57523 9.82975 6.6522 9.19629C6.72917 8.56283 6.98427 7.96421 7.38788 7.46995L11.8734 12.406C11.3196 12.7785 10.6671 12.9768 9.99972 12.9756ZM19.7426 4.73164V14.6619C19.7426 14.8132 19.6968 14.9609 19.6113 15.0856C19.5257 15.2104 19.4044 15.3063 19.2633 15.3609C19.1222 15.4154 18.968 15.426 18.8207 15.3912C18.6735 15.3564 18.5403 15.2778 18.4386 15.1659L6.25995 1.76943C6.14768 1.64585 6.07989 1.48832 6.06733 1.32183C6.05477 1.15534 6.09816 0.98943 6.19063 0.850409L6.37799 0.569365C6.44638 0.466526 6.53913 0.382183 6.64798 0.323835C6.75683 0.265487 6.87841 0.234944 7.00191 0.234921H12.9975C13.121 0.234841 13.2425 0.265242 13.3513 0.323422C13.4602 0.381603 13.553 0.465763 13.6215 0.568428L14.8974 2.48328H17.4943C18.0906 2.48328 18.6624 2.72016 19.0841 3.14181C19.5057 3.56346 19.7426 4.13534 19.7426 4.73164Z" fill="white"/>
</svg>
