<svg width="31" height="30" viewBox="0 0 31 30" fill="none" xmlns="http://www.w3.org/2000/svg">
<path d="M15.5812 5.99154C16.0326 5.99161 16.4654 6.17092 16.7845 6.49005C17.1036 6.80917 17.2829 7.24198 17.283 7.69329C18.2605 8.15535 19.0938 8.87473 19.6936 9.7743C20.2934 10.6739 20.637 11.7197 20.6877 12.7997L20.6865 15.3524C20.7505 15.8815 20.9379 16.3882 21.2336 16.8317C21.5293 17.2752 21.925 17.643 22.3888 17.9056L8.77424 17.9062C9.23789 17.6436 9.63341 17.2758 9.92898 16.8325C10.2246 16.3891 10.4119 15.8826 10.476 15.3536L10.4748 12.7997C10.5255 11.7197 10.8691 10.6739 11.4689 9.7743C12.0687 8.87473 12.902 8.15535 13.8795 7.69329C13.8796 7.24198 14.0589 6.80917 14.378 6.49005C14.6971 6.17092 15.1299 5.99161 15.5812 5.99154V5.99154Z" stroke="currentColor" stroke-width="2" stroke-linecap="round" stroke-linejoin="round"/>
<path d="M12.3415 18.2398L12.3415 19.3194C12.3415 20.1787 12.6829 21.0027 13.2905 21.6103C13.898 22.2179 14.7221 22.5592 15.5813 22.5592C16.4405 22.5592 17.2646 22.2179 17.8722 21.6103C18.4797 21.0027 18.8211 20.1787 18.8211 19.3194V18.2398" stroke="currentColor" stroke-width="2" stroke-linecap="round" stroke-linejoin="round"/>
</svg>
