<svg width="27" height="27" viewBox="0 0 27 27" fill="none" xmlns="http://www.w3.org/2000/svg">
<path fill-rule="evenodd" clip-rule="evenodd" d="M13.0564 0.704712C5.87671 0.704712 0.0563965 6.52501 0.0563965 13.7047C0.0563965 20.8844 5.87671 26.7047 13.0564 26.7047C20.2361 26.7047 26.0564 20.8844 26.0564 13.7047C26.0564 6.52501 20.2361 0.704712 13.0564 0.704712ZM8.81378 7.46207C9.939 6.33685 11.4651 5.70471 13.0564 5.70471C14.6477 5.70471 16.1739 6.33685 17.2991 7.46207C18.4243 8.58729 19.0564 10.1134 19.0564 11.7047V15.2907L19.7634 15.9977C19.9032 16.1376 19.9984 16.3157 20.037 16.5097C20.0756 16.7036 20.0558 16.9047 19.9801 17.0874C19.9044 17.2701 19.7763 17.4262 19.6119 17.5361C19.4475 17.646 19.2542 17.7047 19.0564 17.7047H7.05643C6.85867 17.7047 6.66537 17.646 6.50098 17.5361C6.33655 17.4262 6.2084 17.2701 6.13275 17.0874C6.05707 16.9047 6.03726 16.7036 6.07584 16.5097C6.11441 16.3157 6.20963 16.1376 6.34943 15.9977L7.05643 15.2907V11.7047C7.05643 10.1134 7.68857 8.58729 8.81378 7.46207ZM10.9351 20.826C11.4977 21.3886 12.2608 21.7047 13.0564 21.7047C13.8521 21.7047 14.6151 21.3886 15.1777 20.826C15.7404 20.2634 16.0564 19.5004 16.0564 18.7047H10.0564C10.0564 19.5004 10.3725 20.2634 10.9351 20.826Z" fill="currentColor"/>
</svg>
