<svg width="30" height="21" viewBox="0 0 30 21" fill="none" xmlns="http://www.w3.org/2000/svg">
  <path fill-rule="evenodd" clip-rule="evenodd" d="M0.85791 5.14917C0.85791 2.66389 2.87263 0.64917 5.35791 0.64917H24.8483C27.3335 0.64917 29.3483 2.66389 29.3483 5.14917V16.2098C29.3483 18.6951 27.3335 20.7098 24.8483 20.7098H5.35791C2.87263 20.7098 0.85791 18.6951 0.85791 16.2098V5.14917ZM5.35791 3.64917C4.52948 3.64917 3.85791 4.32074 3.85791 5.14917V16.2098C3.85791 17.0382 4.52948 17.7098 5.35791 17.7098H24.8483C25.6767 17.7098 26.3483 17.0382 26.3483 16.2098V5.14917C26.3483 4.32074 25.6767 3.64917 24.8483 3.64917H5.35791Z" fill="currentColor" />
  <path fill-rule="evenodd" clip-rule="evenodd" d="M11.1031 10.6794C11.1031 8.4703 12.8939 6.67944 15.1031 6.67944C17.3122 6.67944 19.1031 8.4703 19.1031 10.6794C19.1031 12.8886 17.3122 14.6794 15.1031 14.6794C12.8939 14.6794 11.1031 12.8886 11.1031 10.6794ZM15.1031 8.67944C13.9985 8.67944 13.1031 9.57487 13.1031 10.6794C13.1031 11.784 13.9985 12.6794 15.1031 12.6794C16.2077 12.6794 17.1031 11.784 17.1031 10.6794C17.1031 9.57487 16.2077 8.67944 15.1031 8.67944Z" fill="currentColor" />
</svg>