<svg width="150" height="34" viewBox="0 0 150 34" fill="none" xmlns="http://www.w3.org/2000/svg">
<g clip-path="url(#clip0_2703_133)">
<path d="M146 0H3.73C2.74074 0 1.792 0.392981 1.09249 1.09249C0.392981 1.792 0 2.74074 0 3.73L0 30.27C0 31.2593 0.392981 32.208 1.09249 32.9075C1.792 33.607 2.74074 34 3.73 34H146C147.061 34 148.078 33.5786 148.828 32.8284C149.579 32.0783 150 31.0609 150 30V4C150 2.93913 149.579 1.92172 148.828 1.17157C148.078 0.421427 147.061 0 146 0V0ZM149 30C149 30.7956 148.684 31.5587 148.121 32.1213C147.559 32.6839 146.796 33 146 33H3.73C3.00677 32.9974 2.31391 32.7089 1.80251 32.1975C1.2911 31.6861 1.00263 30.9932 1 30.27V3.73C1.00263 3.00677 1.2911 2.31391 1.80251 1.80251C2.31391 1.2911 3.00677 1.00263 3.73 1H146C146.796 1 147.559 1.31607 148.121 1.87868C148.684 2.44129 149 3.20435 149 4V30Z" fill="white"/>
<path d="M17.07 11.24H12.77V22H14.69V17.84H17.07C19.47 17.84 20.97 16.68 20.97 14.54C20.97 12.4 19.47 11.24 17.07 11.24ZM16.97 16.24H14.69V12.94H17C18.38 12.94 19.11 13.53 19.11 14.59C19.11 15.65 18.35 16.19 17 16.19L16.97 16.24Z" fill="white"/>
<path d="M25.0999 14C24.5742 13.9939 24.053 14.0979 23.5699 14.3052C23.0867 14.5124 22.6522 14.8185 22.2944 15.2037C21.9365 15.5888 21.6632 16.0446 21.4919 16.5417C21.3207 17.0388 21.2553 17.5662 21.2999 18.09C21.253 18.6167 21.3163 19.1474 21.4857 19.6484C21.6552 20.1493 21.927 20.6095 22.284 20.9996C22.6409 21.3898 23.0752 21.7014 23.5591 21.9145C24.0431 22.1277 24.5661 22.2378 25.0949 22.2378C25.6237 22.2378 26.1467 22.1277 26.6307 21.9145C27.1146 21.7014 27.5489 21.3898 27.9059 20.9996C28.2628 20.6095 28.5347 20.1493 28.7041 19.6484C28.8735 19.1474 28.9368 18.6167 28.8899 18.09C28.9361 17.5667 28.872 17.0395 28.7019 16.5424C28.5318 16.0453 28.2595 15.5894 27.9024 15.2041C27.5453 14.8187 27.1114 14.5125 26.6287 14.3051C26.146 14.0977 25.6252 13.9938 25.0999 14ZM25.0999 20.67C23.8799 20.67 23.0999 19.67 23.0999 18.09C23.0999 16.51 23.8599 15.51 25.0999 15.51C26.3399 15.51 27.0999 16.51 27.0999 18.09C27.0999 19.67 26.3099 20.66 25.0999 20.66V20.67Z" fill="white"/>
<path d="M36.78 19.35L35.37 14.13H33.89L32.49 19.35L31.07 14.13H29.22L31.59 22.01H33.15L34.59 16.85L36.03 22.01H37.59L39.96 14.13H38.18L36.78 19.35Z" fill="white"/>
<path d="M44 14C43.4811 14.0096 42.9696 14.1246 42.4966 14.3379C42.0235 14.5513 41.5988 14.8585 41.2481 15.241C40.8974 15.6235 40.6281 16.0733 40.4565 16.563C40.2849 17.0528 40.2146 17.5723 40.25 18.09C40.2082 18.6157 40.2766 19.1444 40.4508 19.6422C40.625 20.14 40.9011 20.596 41.2616 20.9809C41.6221 21.3659 42.059 21.6714 42.5443 21.8778C43.0296 22.0843 43.5526 22.1872 44.08 22.18C44.805 22.2191 45.524 22.0297 46.1357 21.6386C46.7474 21.2476 47.2211 20.6744 47.49 20L46 19.38C45.883 19.7664 45.6382 20.1016 45.3057 20.3306C44.9732 20.5595 44.5727 20.6686 44.17 20.64C43.8831 20.6468 43.5979 20.5954 43.3315 20.4888C43.0651 20.3821 42.8232 20.2226 42.6203 20.0197C42.4174 19.8168 42.2578 19.5748 42.1512 19.3085C42.0446 19.0421 41.9931 18.7568 42 18.47H47.52V17.87C47.54 15.71 46.32 14 44 14ZM42.07 17.13C42.1401 16.6708 42.3742 16.2526 42.7291 15.9529C43.084 15.6532 43.5355 15.4923 44 15.5C44.2206 15.4813 44.4427 15.5099 44.6515 15.5837C44.8603 15.6576 45.051 15.775 45.2109 15.9283C45.3707 16.0815 45.4961 16.2671 45.5787 16.4726C45.6614 16.678 45.6993 16.8987 45.69 17.12L42.07 17.13Z" fill="white"/>
<path d="M50.6899 15.3V14.13H48.8899V22H50.6899V17.87C50.6739 17.6032 50.7146 17.336 50.8094 17.0861C50.9043 16.8361 51.051 16.6092 51.2401 16.4202C51.4291 16.2311 51.656 16.0844 51.906 15.9895C52.1559 15.8947 52.4231 15.854 52.6899 15.87C52.9096 15.8545 53.1302 15.8545 53.3499 15.87V14.07C53.2099 14.07 53.0499 14.07 52.8399 14.07C52.4013 14.0473 51.9654 14.1511 51.5842 14.3692C51.203 14.5873 50.8926 14.9104 50.6899 15.3Z" fill="white"/>
<path d="M57.4799 14C56.9611 14.0096 56.4496 14.1246 55.9766 14.3379C55.5035 14.5513 55.0787 14.8585 54.728 15.241C54.3773 15.6235 54.108 16.0733 53.9365 16.563C53.7649 17.0528 53.6946 17.5723 53.7299 18.09C53.6881 18.6157 53.7565 19.1444 53.9307 19.6422C54.1049 20.14 54.3811 20.596 54.7416 20.9809C55.1021 21.3659 55.5389 21.6714 56.0242 21.8778C56.5095 22.0843 57.0326 22.1872 57.5599 22.18C58.2783 22.2106 58.9884 22.0172 59.5921 21.6267C60.1958 21.2361 60.6633 20.6677 60.9299 20L59.3899 19.41C59.273 19.7964 59.0282 20.1316 58.6957 20.3606C58.3631 20.5895 57.9627 20.6986 57.5599 20.67C57.279 20.6674 57.0013 20.609 56.7431 20.4982C56.4849 20.3874 56.2513 20.2263 56.0559 20.0244C55.8605 19.8225 55.7072 19.5837 55.6049 19.322C55.5026 19.0603 55.4533 18.7809 55.4599 18.5H60.9999V17.9C60.9999 15.71 59.7599 14 57.4799 14ZM55.5499 17.13C55.622 16.6744 55.8557 16.2599 56.2082 15.9624C56.5608 15.6649 57.0087 15.5043 57.4699 15.51C57.6906 15.4913 57.9127 15.5199 58.1215 15.5937C58.3303 15.6676 58.521 15.785 58.6808 15.9383C58.8407 16.0915 58.9661 16.2771 59.0487 16.4826C59.1313 16.688 59.1692 16.9087 59.1599 17.13H55.5499Z" fill="white"/>
<path d="M67.5601 15C67.2826 14.6744 66.9353 14.4154 66.5441 14.2423C66.1529 14.0692 65.7277 13.9864 65.3001 14C63.0901 14 61.8301 15.85 61.8301 18.09C61.8301 20.33 63.0901 22.18 65.3001 22.18C65.728 22.1958 66.1539 22.114 66.5455 21.9408C66.937 21.7675 67.284 21.5073 67.5601 21.18V22H69.3601V11.24H67.5601V15ZM67.5601 18.35C67.6004 18.6351 67.5787 18.9256 67.4964 19.2016C67.4141 19.4776 67.2732 19.7325 67.0833 19.949C66.8934 20.1655 66.659 20.3384 66.3961 20.4559C66.1332 20.5735 65.848 20.6328 65.5601 20.63C64.2501 20.63 63.5601 19.63 63.5601 18.11C63.5601 16.59 64.2601 15.59 65.5601 15.59C66.6701 15.59 67.5601 16.4 67.5601 17.88V18.35Z" fill="white"/>
<path d="M79.31 14C78.8743 13.9809 78.4401 14.061 78.0399 14.2343C77.6398 14.4075 77.2842 14.6693 77 15V11.24H75.2V22H77V21.17C77.279 21.4964 77.6279 21.7558 78.0209 21.9289C78.4139 22.102 78.8408 22.1844 79.27 22.17C81.47 22.17 82.73 20.31 82.73 18.08C82.73 15.85 81.51 14 79.31 14ZM79 20.6C78.712 20.6028 78.4268 20.5435 78.1639 20.4259C77.901 20.3084 77.6666 20.1355 77.4767 19.919C77.2868 19.7025 77.1459 19.4476 77.0636 19.1716C76.9813 18.8956 76.9596 18.6051 77 18.32V17.85C77 16.37 77.84 15.56 79 15.56C80.3 15.56 81 16.56 81 18.08C81 19.6 80.25 20.6 79 20.6Z" fill="white"/>
<path d="M86.9301 19.66L85.0001 14.13H83.1001L86.0001 21.72L85.7001 22.46C85.6491 22.7135 85.5019 22.9375 85.2893 23.0848C85.0768 23.2321 84.8154 23.2913 84.5601 23.25C84.3604 23.2646 84.1598 23.2646 83.9601 23.25V24.76C84.2017 24.7959 84.4458 24.8127 84.6901 24.81C85.3144 24.8554 85.9349 24.68 86.443 24.3144C86.9511 23.9489 87.3147 23.4164 87.4701 22.81L90.7101 14.19H88.8201L86.9301 19.66Z" fill="white"/>
<path d="M125 12.43C124.605 12.4277 124.214 12.5034 123.848 12.6527C123.483 12.802 123.15 13.022 122.87 13.3L122.73 12.61H120.34V25.53L123.06 24.94V21.81C123.601 22.263 124.284 22.5109 124.99 22.51C126.93 22.51 128.71 20.92 128.71 17.4C128.71 14.18 126.91 12.43 125 12.43ZM124.35 20.06C124.112 20.0737 123.873 20.0342 123.651 19.9443C123.43 19.8543 123.231 19.7162 123.07 19.54V15.43C123.232 15.2473 123.433 15.1031 123.658 15.008C123.883 14.9128 124.126 14.8691 124.37 14.88C125.37 14.88 126.05 16.01 126.05 17.46C126.05 18.91 125.36 20.06 124.35 20.06Z" fill="white"/>
<path d="M133.73 12.43C131.11 12.43 129.52 14.69 129.52 17.54C129.52 20.91 131.4 22.62 134.08 22.62C135.126 22.6371 136.159 22.3857 137.08 21.89V19.64C136.243 20.0621 135.317 20.2748 134.38 20.26C133.3 20.26 132.38 19.87 132.24 18.56H137.62C137.62 18.41 137.62 17.82 137.62 17.56C137.71 14.69 136.35 12.43 133.73 12.43ZM132.26 16.5C132.26 15.24 133.03 14.71 133.71 14.71C134.39 14.71 135.11 15.24 135.11 16.5H132.26Z" fill="white"/>
<path d="M113 13.36L112.83 12.54H110.51V22.25H113.19V15.67C113.432 15.3761 113.758 15.1632 114.124 15.0595C114.491 14.9559 114.88 14.9665 115.24 15.09V12.54C114.831 12.3797 114.377 12.3746 113.965 12.5257C113.552 12.6767 113.209 12.9735 113 13.36Z" fill="white"/>
<path d="M99.46 15.46C99.46 15.02 99.82 14.85 100.39 14.85C101.335 14.8703 102.261 15.1173 103.09 15.57V12.94C102.232 12.5933 101.315 12.4199 100.39 12.43C98.18 12.43 96.71 13.61 96.71 15.59C96.71 18.69 100.85 18.19 100.85 19.52C100.85 20.04 100.41 20.21 99.85 20.21C98.7934 20.1483 97.766 19.84 96.85 19.31V22C97.7941 22.4211 98.8162 22.6391 99.85 22.64C102.11 22.64 103.67 21.49 103.67 19.48C103.62 16.12 99.46 16.72 99.46 15.46Z" fill="white"/>
<path d="M107.28 10.24L104.63 10.82V19.75C104.616 20.1263 104.68 20.5015 104.816 20.8526C104.952 21.2037 105.158 21.5233 105.422 21.7919C105.686 22.0605 106.002 22.2725 106.351 22.4149C106.699 22.5572 107.073 22.6271 107.45 22.62C108.107 22.6494 108.762 22.5226 109.36 22.25V20C109.01 20.15 107.3 20.66 107.3 19V15H109.36V12.66H107.3L107.28 10.24Z" fill="white"/>
<path d="M116.25 11.7L118.98 11.13V8.97L116.25 9.54V11.7Z" fill="white"/>
<path d="M118.98 12.61H116.25V22.25H118.98V12.61Z" fill="white"/>
</g>
<defs>
<clipPath id="clip0_2703_133">
<rect width="150" height="34" fill="white"/>
</clipPath>
</defs>
</svg>
