<svg width="25" height="26" viewBox="0 0 25 26" fill="none" xmlns="http://www.w3.org/2000/svg">
<path d="M25 13C25 13.3978 24.842 13.7794 24.5607 14.0607C24.2794 14.342 23.8978 14.5 23.5 14.5H14V24C14 24.3978 13.842 24.7794 13.5607 25.0607C13.2794 25.342 12.8978 25.5 12.5 25.5C12.1022 25.5 11.7206 25.342 11.4393 25.0607C11.158 24.7794 11 24.3978 11 24V14.5H1.5C1.10218 14.5 0.720644 14.342 0.43934 14.0607C0.158035 13.7794 0 13.3978 0 13C0 12.6022 0.158035 12.2206 0.43934 11.9393C0.720644 11.658 1.10218 11.5 1.5 11.5H11V2C11 1.60218 11.158 1.22064 11.4393 0.93934C11.7206 0.658035 12.1022 0.5 12.5 0.5C12.8978 0.5 13.2794 0.658035 13.5607 0.93934C13.842 1.22064 14 1.60218 14 2V11.5H23.5C23.8978 11.5 24.2794 11.658 24.5607 11.9393C24.842 12.2206 25 12.6022 25 13Z" fill="currentColor"/>
</svg>
