<svg width="36" height="14" viewBox="0 0 36 14" fill="none" xmlns="http://www.w3.org/2000/svg">
<path d="M33.4429 1.92475C33.7203 1.86973 34.0077 1.89819 34.2688 2.00653C34.53 2.11465 34.7532 2.2978 34.9103 2.53281C35.0674 2.76782 35.1513 3.04414 35.1514 3.32682V11.9025C35.1514 12.2816 35.0008 12.6451 34.7327 12.9132C34.4647 13.1812 34.1012 13.3318 33.7221 13.3318H25.1464C24.8636 13.332 24.587 13.2483 24.3517 13.0913C24.1165 12.9342 23.9331 12.7109 23.8249 12.4496C23.7166 12.1883 23.6883 11.9008 23.7435 11.6234C23.7988 11.346 23.9351 11.0912 24.1352 10.8913L27.812 7.21447C25.4894 5.26529 22.1396 3.32682 18 3.32682C13.8604 3.32682 10.5106 5.26529 8.18799 7.21447L11.8648 10.8913C12.0646 11.0913 12.2007 11.3461 12.2557 11.6234C12.3107 11.9007 12.2822 12.1881 12.1739 12.4492C12.0658 12.7104 11.8826 12.9337 11.6476 13.0907C11.4126 13.2478 11.1363 13.3317 10.8536 13.3318H2.27791C1.89885 13.3318 1.5353 13.1812 1.26726 12.9132C0.999218 12.6451 0.848633 12.2816 0.848633 11.9025V3.32682C0.848411 3.04397 0.932116 2.76742 1.08915 2.53217C1.24619 2.29692 1.46949 2.11355 1.7308 2.00528C1.99211 1.89701 2.27966 1.8687 2.55706 1.92394C2.83446 1.97918 3.08924 2.11549 3.28913 2.31561L5.86171 4.88978C7.0241 3.86313 11.3661 0.468262 18 0.468262C24.6339 0.468262 28.9759 3.86313 30.1383 4.88978L32.7109 2.31561C32.9109 2.11578 33.1656 1.97976 33.4429 1.92475Z" fill="#343330"/>
</svg>
