<svg width="29" height="29" viewBox="0 0 29 29" fill="none" xmlns="http://www.w3.org/2000/svg">
<path d="M28.2666 0.730672C27.9524 0.416394 27.5601 0.191542 27.1302 0.0792702C26.7002 -0.0330014 26.2481 -0.0286343 25.8203 0.0919216L25.7928 0.100672L1.80408 7.37317C1.31756 7.51428 0.88539 7.79986 0.564807 8.19209C0.244224 8.58431 0.0503566 9.06467 0.00888284 9.56954C-0.0325909 10.0744 0.0802861 10.58 0.332563 11.0192C0.58484 11.4585 0.964613 11.8108 1.42158 12.0294L11.8741 17.1232L16.9628 27.5794C17.1635 28.0062 17.4818 28.3667 17.8804 28.6187C18.279 28.8707 18.7413 29.0037 19.2128 29.0019C19.2841 29.0019 19.3566 29.0019 19.4291 28.9932C19.9353 28.9542 20.4173 28.7607 20.8099 28.4387C21.2025 28.1168 21.4867 27.682 21.6241 27.1932L28.8966 3.20442C28.9002 3.19551 28.9032 3.18631 28.9053 3.17692C29.0259 2.7492 29.0303 2.29707 28.918 1.8671C28.8057 1.43713 28.5809 1.04485 28.2666 0.730672ZM19.1128 25.1319L14.8166 16.3019L20.5666 10.5582C20.7061 10.4186 20.8168 10.253 20.8923 10.0707C20.9678 9.88839 21.0067 9.693 21.0067 9.49567C21.0067 9.29835 20.9678 9.10295 20.8923 8.92065C20.8168 8.73835 20.7061 8.5727 20.5666 8.43317C20.427 8.29364 20.2614 8.18296 20.0791 8.10745C19.8968 8.03194 19.7014 7.99307 19.5041 7.99307C19.3068 7.99307 19.1114 8.03194 18.9291 8.10745C18.7468 8.18296 18.5811 8.29364 18.4416 8.43317L12.6916 14.1832L3.86533 9.88442L25.7491 3.24817L19.1128 25.1319Z" fill="currentColor"/>
</svg>
