<svg width="21" height="21" viewBox="0 0 21 21" fill="none" xmlns="http://www.w3.org/2000/svg">
  <path d="M7.58838 12.2463C7.79038 11.8423 7.90438 11.3863 7.90438 10.9043C7.90438 10.4223 7.79038 9.96629 7.58838 9.56229M7.58838 12.2463C7.28608 12.8507 6.78858 13.3353 6.17647 13.6217C5.56436 13.908 4.87351 13.9793 4.21582 13.824C3.55813 13.6687 2.97215 13.2959 2.55279 12.766C2.13343 12.236 1.90527 11.5801 1.90527 10.9043C1.90527 10.2285 2.13343 9.57253 2.55279 9.04262C2.97215 8.5127 3.55813 8.13989 4.21582 7.98459C4.87351 7.82928 5.56436 7.90058 6.17647 8.18693C6.78858 8.47327 7.28608 8.9579 7.58838 9.56229M7.58838 12.2463L14.2204 15.5623M7.58838 9.56229L14.2204 6.24629M14.2204 15.5623C13.8645 16.2741 13.8059 17.0982 14.0576 17.8532C14.3092 18.6082 14.8505 19.2324 15.5624 19.5883C16.2742 19.9442 17.0983 20.0028 17.8533 19.7511C18.6083 19.4994 19.2325 18.9581 19.5884 18.2463C19.9443 17.5344 20.0029 16.7104 19.7512 15.9554C19.4995 15.2003 18.9582 14.5762 18.2464 14.2203C17.8939 14.0441 17.5102 13.939 17.1171 13.911C16.724 13.8831 16.3293 13.9329 15.9554 14.0575C15.2004 14.3092 14.5763 14.8504 14.2204 15.5623ZM14.2204 6.24629C14.3966 6.59869 14.6405 6.91293 14.9382 7.17107C15.2359 7.4292 15.5815 7.62618 15.9553 7.75075C16.3291 7.87532 16.7238 7.92504 17.1168 7.89708C17.5098 7.86912 17.8935 7.76402 18.2459 7.58779C18.5983 7.41156 18.9125 7.16764 19.1707 6.86996C19.4288 6.57228 19.6258 6.22668 19.7503 5.85287C19.8749 5.47907 19.9246 5.08439 19.8967 4.69137C19.8687 4.29835 19.7636 3.91469 19.5874 3.56229C19.2315 2.85058 18.6074 2.30941 17.8525 2.05783C17.0975 1.80625 16.2736 1.86487 15.5619 2.22079C14.8502 2.57671 14.309 3.20078 14.0574 3.95571C13.8058 4.71063 13.8645 5.53458 14.2204 6.24629Z" stroke="currentColor" stroke-width="2" stroke-linecap="round" stroke-linejoin="round" />
</svg>