<svg width="36" height="36" viewBox="0 0 36 36" fill="none" xmlns="http://www.w3.org/2000/svg">
<circle cx="17.9523" cy="17.9343" r="17.4499" fill="black"/>
<path d="M27.0736 22.8077L24.0307 26.1523C23.9646 26.225 23.8846 26.2829 23.7956 26.3225C23.7067 26.3621 23.6108 26.3825 23.5138 26.3824H9.08933C9.02051 26.3824 8.95318 26.3618 8.89562 26.3232C8.83807 26.2845 8.79279 26.2294 8.76536 26.1647C8.73793 26.1 8.72953 26.0285 8.7412 25.959C8.75287 25.8895 8.78411 25.8249 8.83106 25.7734L11.8762 22.4287C11.9422 22.3562 12.0219 22.2984 12.1106 22.2589C12.1992 22.2193 12.2949 22.1988 12.3916 22.1986H26.8152C26.8841 22.1986 26.9514 22.2192 27.009 22.2579C27.0665 22.2966 27.1117 22.3516 27.1393 22.4163C27.1667 22.481 27.175 22.5525 27.1634 22.622C27.1517 22.6916 27.1205 22.7561 27.0736 22.8077ZM24.0307 16.0724C23.9646 15.9998 23.8846 15.9419 23.7956 15.9023C23.7067 15.8627 23.6108 15.8423 23.5138 15.8423H9.08933C9.02051 15.8423 8.95318 15.8629 8.89562 15.9016C8.83807 15.9403 8.79279 15.9954 8.76536 16.0601C8.73793 16.1248 8.72953 16.1963 8.7412 16.2658C8.75287 16.3353 8.78411 16.3998 8.83106 16.4514L11.8762 19.7961C11.9422 19.8686 12.0219 19.9263 12.1106 19.9659C12.1992 20.0055 12.2949 20.026 12.3916 20.0262H26.8152C26.8841 20.0262 26.9514 20.0056 27.009 19.9669C27.0665 19.9282 27.1117 19.8731 27.1393 19.8085C27.1667 19.7438 27.175 19.6722 27.1634 19.6027C27.1517 19.5332 27.1205 19.4687 27.0736 19.4171L24.0307 16.0724ZM9.08933 13.6699H23.5138C23.6108 13.67 23.7067 13.6496 23.7956 13.61C23.8846 13.5704 23.9646 13.5125 24.0307 13.4398L27.0736 10.0952C27.1205 10.0436 27.1517 9.97907 27.1634 9.90955C27.175 9.84003 27.1667 9.76853 27.1393 9.70383C27.1117 9.63914 27.0665 9.58406 27.009 9.54538C26.9514 9.5067 26.8841 9.48609 26.8152 9.48608H12.3916C12.2949 9.48625 12.1992 9.50676 12.1106 9.54634C12.0219 9.58593 11.9422 9.64374 11.8762 9.7162L8.83185 13.0609C8.78494 13.1124 8.75372 13.1768 8.74202 13.2463C8.73032 13.3157 8.73865 13.3872 8.76599 13.4518C8.79332 13.5165 8.83848 13.5716 8.89592 13.6103C8.95335 13.6491 9.02057 13.6698 9.08933 13.6699Z" fill="url(#paint0_linear_5917_1358)"/>
<defs>
<linearGradient id="paint0_linear_5917_1358" x1="12.7987" y1="23.0264" x2="22.0818" y2="12.7766" gradientUnits="userSpaceOnUse">
<stop stop-color="#8A2BFF"/>
<stop offset="0.5" stop-color="#369EFF"/>
<stop offset="0.97" stop-color="#19FB9B"/>
</linearGradient>
</defs>
</svg>
