<svg width="36" height="36" viewBox="0 0 36 36" fill="none" xmlns="http://www.w3.org/2000/svg">
<circle cx="17.9523" cy="18.3198" r="17.4499" fill="currentColor"/>
<path d="M27.0736 23.1932L24.0307 26.5378C23.9646 26.6105 23.8846 26.6684 23.7956 26.708C23.7067 26.7476 23.6108 26.768 23.5138 26.7679H9.08933C9.02051 26.7679 8.95318 26.7473 8.89562 26.7087C8.83807 26.67 8.79279 26.6149 8.76536 26.5502C8.73793 26.4855 8.72953 26.414 8.7412 26.3445C8.75287 26.275 8.78411 26.2104 8.83106 26.1589L11.8762 22.8142C11.9422 22.7417 12.0219 22.6839 12.1106 22.6443C12.1992 22.6048 12.2949 22.5843 12.3916 22.5841H26.8152C26.8841 22.5841 26.9514 22.6047 27.009 22.6434C27.0665 22.6821 27.1117 22.7371 27.1393 22.8018C27.1667 22.8665 27.175 22.938 27.1634 23.0075C27.1517 23.0771 27.1205 23.1416 27.0736 23.1932ZM24.0307 16.4579C23.9646 16.3853 23.8846 16.3274 23.7956 16.2878C23.7067 16.2482 23.6108 16.2278 23.5138 16.2278H9.08933C9.02051 16.2278 8.95318 16.2484 8.89562 16.2871C8.83807 16.3258 8.79279 16.3809 8.76536 16.4456C8.73793 16.5103 8.72953 16.5818 8.7412 16.6513C8.75287 16.7208 8.78411 16.7853 8.83106 16.8369L11.8762 20.1816C11.9422 20.2541 12.0219 20.3118 12.1106 20.3514C12.1992 20.391 12.2949 20.4115 12.3916 20.4117H26.8152C26.8841 20.4117 26.9514 20.3911 27.009 20.3524C27.0665 20.3137 27.1117 20.2586 27.1393 20.194C27.1667 20.1292 27.175 20.0577 27.1634 19.9882C27.1517 19.9187 27.1205 19.8542 27.0736 19.8026L24.0307 16.4579ZM9.08933 14.0554H23.5138C23.6108 14.0555 23.7067 14.0351 23.7956 13.9955C23.8846 13.9559 23.9646 13.898 24.0307 13.8253L27.0736 10.4807C27.1205 10.4291 27.1517 10.3646 27.1634 10.295C27.175 10.2255 27.1667 10.154 27.1393 10.0893C27.1117 10.0246 27.0665 9.96956 27.009 9.93088C26.9514 9.89219 26.8841 9.87158 26.8152 9.87158H12.3916C12.2949 9.87175 12.1992 9.89226 12.1106 9.93184C12.0219 9.97142 11.9422 10.0292 11.8762 10.1017L8.83185 13.4464C8.78494 13.4979 8.75372 13.5623 8.74202 13.6318C8.73032 13.7012 8.73865 13.7727 8.76599 13.8373C8.79332 13.902 8.83848 13.9571 8.89592 13.9958C8.95335 14.0346 9.02057 14.0553 9.08933 14.0554Z" fill="url(#paint0_linear_5955_1358)"/>
<defs>
<linearGradient id="paint0_linear_5955_1358" x1="12.7987" y1="23.4119" x2="22.0818" y2="13.1621" gradientUnits="userSpaceOnUse">
<stop stop-color="#8A2BFF"/>
<stop offset="0.5" stop-color="#369EFF"/>
<stop offset="0.97" stop-color="#19FB9B"/>
</linearGradient>
</defs>
</svg>
