<svg width="30" height="26" viewBox="0 0 30 26" fill="none" xmlns="http://www.w3.org/2000/svg">
<path d="M28.8748 6.83116C28.6394 6.56637 28.3506 6.35433 28.0275 6.20892C27.7044 6.06352 27.3542 5.98803 26.9998 5.98741H21.4786C21.3466 4.35975 20.6069 2.84139 19.4064 1.73431C18.206 0.627237 16.6328 0.0125732 14.9998 0.0125732C13.3668 0.0125732 11.7937 0.627237 10.5932 1.73431C9.39277 2.84139 8.65301 4.35975 8.52107 5.98741H3.00982C2.6559 5.98602 2.30571 6.05979 1.98243 6.20385C1.65915 6.34791 1.37014 6.55897 1.13452 6.82306C0.8989 7.08716 0.722041 7.39828 0.615643 7.73583C0.509244 8.07339 0.475731 8.42968 0.51732 8.78116L2.29857 23.7812C2.37226 24.3901 2.66662 24.9509 3.12594 25.3575C3.58525 25.7641 4.17766 25.9882 4.79107 25.9874H25.2086C25.822 25.9882 26.4144 25.7641 26.8737 25.3575C27.333 24.9509 27.6274 24.3901 27.7011 23.7812L29.4823 8.78116C29.524 8.43167 29.4915 8.07732 29.3868 7.74129C29.2821 7.40526 29.1076 7.09511 28.8748 6.83116ZM14.9998 2.98741C15.8414 2.98749 16.6548 3.2908 17.2909 3.84177C17.927 4.39274 18.3433 5.15447 18.4636 5.98741H11.5361C11.6563 5.15447 12.0726 4.39274 12.7088 3.84177C13.3449 3.2908 14.1583 2.98749 14.9998 2.98741ZM24.7736 22.9874H5.22607L3.56232 8.98741H26.4373L24.7736 22.9874Z" fill="currentColor"/>
</svg>
