<svg width="25" height="26" viewBox="0 0 25 26" fill="none" xmlns="http://www.w3.org/2000/svg">
<path d="M25 2.99997V8.99997C25 9.39779 24.842 9.77932 24.5607 10.0606C24.2794 10.3419 23.8978 10.5 23.5 10.5H17.5C17.1022 10.5 16.7206 10.3419 16.4393 10.0606C16.158 9.77932 16 9.39779 16 8.99997C16 8.60214 16.158 8.22061 16.4393 7.93931C16.7206 7.658 17.1022 7.49997 17.5 7.49997H19.875L18.9 6.52497C17.1348 4.75099 14.7376 3.75021 12.235 3.74247H12.1812C9.701 3.73704 7.31834 4.70834 5.54875 6.44622C5.26431 6.72436 4.88102 6.87812 4.48321 6.87367C4.08539 6.86921 3.70565 6.70691 3.4275 6.42247C3.14935 6.13802 2.9956 5.75474 3.00005 5.35692C3.0045 4.95911 3.16681 4.57936 3.45125 4.30122C5.78152 2.01304 8.91914 0.734548 12.185 0.742468H12.25C15.5447 0.751451 18.701 2.06837 21.025 4.40372L22 5.37497V2.99997C22 2.60214 22.158 2.22061 22.4393 1.93931C22.7206 1.658 23.1022 1.49997 23.5 1.49997C23.8978 1.49997 24.2794 1.658 24.5607 1.93931C24.842 2.22061 25 2.60214 25 2.99997ZM19.4513 19.5537C17.6807 21.2925 15.2965 22.2639 12.815 22.2575H12.7612C10.2587 22.2497 7.86147 21.2489 6.09625 19.475L5.125 18.5H7.5C7.89782 18.5 8.27936 18.3419 8.56066 18.0606C8.84196 17.7793 9 17.3978 9 17C9 16.6021 8.84196 16.2206 8.56066 15.9393C8.27936 15.658 7.89782 15.5 7.5 15.5H1.5C1.10218 15.5 0.720644 15.658 0.43934 15.9393C0.158035 16.2206 0 16.6021 0 17V23C0 23.3978 0.158035 23.7793 0.43934 24.0606C0.720644 24.3419 1.10218 24.5 1.5 24.5C1.89782 24.5 2.27936 24.3419 2.56066 24.0606C2.84196 23.7793 3 23.3978 3 23V20.625L3.975 21.6C6.29965 23.9339 9.45586 25.2495 12.75 25.2575H12.82C16.0859 25.2654 19.2235 23.9869 21.5537 21.6987C21.6946 21.561 21.8069 21.3969 21.8843 21.2157C21.9618 21.0346 22.0027 20.84 22.0049 20.643C22.0072 20.446 21.9705 20.2506 21.8972 20.0677C21.8239 19.8849 21.7152 19.7183 21.5775 19.5775C21.4398 19.4366 21.2757 19.3243 21.0945 19.2469C20.9134 19.1695 20.7188 19.1285 20.5218 19.1263C20.3248 19.1241 20.1293 19.1607 19.9465 19.234C19.7637 19.3074 19.5971 19.416 19.4562 19.5537H19.4513Z" fill="currentColor"/>
</svg>
