<svg width="41" height="41" viewBox="0 0 41 41" fill="none" xmlns="http://www.w3.org/2000/svg">
  <path fill-rule="evenodd" clip-rule="evenodd" d="M20.1025 40.1112C31.1482 40.1112 40.1025 31.1569 40.1025 20.1112C40.1025 9.06548 31.1482 0.111176 20.1025 0.111176C9.05685 0.111176 0.102539 9.06548 0.102539 20.1112C0.102539 31.1569 9.05685 40.1112 20.1025 40.1112ZM13.0401 13.8182C13.0401 12.9836 12.3635 12.307 11.5288 12.307C10.6942 12.307 10.0176 12.9836 10.0176 13.8182V26.4041C10.0176 27.2388 10.6942 27.9154 11.5288 27.9154C12.3635 27.9154 13.0401 27.2388 13.0401 26.4041V13.8182ZM30.1876 13.8183C30.1876 12.9836 29.511 12.307 28.6764 12.307C27.8417 12.307 27.1651 12.9836 27.1651 13.8183V26.4042C27.1651 27.2388 27.8417 27.9154 28.6764 27.9154C29.511 27.9154 30.1876 27.2388 30.1876 26.4042V13.8183ZM24.3894 17.1911C25.224 17.1911 25.9006 17.8677 25.9006 18.7023V26.4042C25.9006 27.2388 25.224 27.9154 24.3894 27.9154C23.5547 27.9154 22.8781 27.2388 22.8781 26.4042V18.7023C22.8781 17.8677 23.5547 17.1911 24.3894 17.1911ZM17.327 18.7023C17.327 17.8677 16.6503 17.1911 15.8157 17.1911C14.981 17.1911 14.3044 17.8677 14.3044 18.7023V26.4042C14.3044 27.2388 14.981 27.9154 15.8157 27.9154C16.6503 27.9154 17.327 27.2388 17.327 26.4042V18.7023ZM20.1023 21.6994C20.937 21.6994 21.6136 22.376 21.6136 23.2107V26.4041C21.6136 27.2388 20.937 27.9154 20.1023 27.9154C19.2677 27.9154 18.5911 27.2388 18.5911 26.4041V23.2107C18.5911 22.376 19.2677 21.6994 20.1023 21.6994Z" fill="#009FF9" />
</svg>
