<svg width="18" height="15" viewBox="0 0 18 15" fill="none" xmlns="http://www.w3.org/2000/svg">
<path d="M13.9041 6.96013C13.9041 7.17368 13.8407 7.38244 13.7221 7.56C13.6034 7.73757 13.4348 7.87596 13.2375 7.95768C13.0402 8.03941 12.8231 8.06079 12.6137 8.01913C12.4042 7.97746 12.2118 7.87463 12.0608 7.72362C11.9098 7.57262 11.807 7.38023 11.7653 7.17077C11.7236 6.96132 11.745 6.74422 11.8268 6.54693C11.9085 6.34963 12.0469 6.18099 12.2244 6.06235C12.402 5.94371 12.6108 5.88038 12.8243 5.88038C13.1107 5.88038 13.3853 5.99414 13.5878 6.19663C13.7903 6.39912 13.9041 6.67376 13.9041 6.96013ZM10.9348 3.18102H8.23539C8.02061 3.18102 7.81463 3.26633 7.66276 3.4182C7.5109 3.57007 7.42558 3.77605 7.42558 3.99083C7.42558 4.2056 7.5109 4.41158 7.66276 4.56345C7.81463 4.71532 8.02061 4.80063 8.23539 4.80063H10.9348C11.1495 4.80063 11.3555 4.71532 11.5074 4.56345C11.6592 4.41158 11.7446 4.2056 11.7446 3.99083C11.7446 3.77605 11.6592 3.57007 11.5074 3.4182C11.3555 3.26633 11.1495 3.18102 10.9348 3.18102ZM17.6832 6.42025V8.57975C17.6832 9.07555 17.4884 9.55153 17.1407 9.90501C16.7931 10.2585 16.3204 10.4612 15.8247 10.4693L14.7948 13.3529C14.7012 13.6151 14.5287 13.8419 14.3011 14.0022C14.0735 14.1625 13.8018 14.2485 13.5234 14.2484H12.665C12.3866 14.2485 12.115 14.1625 11.8874 14.0022C11.6598 13.8419 11.4873 13.6151 11.3936 13.3529L11.3262 13.1687H7.84195L7.77447 13.3529C7.6809 13.6147 7.50875 13.8413 7.28154 14.0016C7.05433 14.1619 6.78315 14.2481 6.50509 14.2484H5.64669C5.36829 14.2485 5.09667 14.1625 4.86906 14.0022C4.64144 13.8419 4.46898 13.6151 4.37529 13.3529L3.54524 11.0281C2.83575 10.2114 2.35291 9.22296 2.14494 8.16135C2.06789 8.28732 2.02703 8.43208 2.02685 8.57975C2.02685 8.79452 1.94153 9.0005 1.78966 9.15237C1.63779 9.30424 1.43181 9.38956 1.21704 9.38956C1.00226 9.38956 0.796283 9.30424 0.644414 9.15237C0.492546 9.0005 0.407227 8.79452 0.407227 8.57975C0.407993 8.07075 0.568302 7.57479 0.865605 7.16164C1.16291 6.74849 1.58225 6.43894 2.06464 6.27651C2.23477 4.75833 2.9579 3.35592 4.09605 2.33689C5.2342 1.31785 6.7077 0.753526 8.23539 0.751587H15.2537C15.4685 0.751587 15.6745 0.836906 15.8264 0.988775C15.9782 1.14064 16.0635 1.34662 16.0635 1.5614C16.0635 1.77617 15.9782 1.98215 15.8264 2.13402C15.6745 2.28589 15.4685 2.37121 15.2537 2.37121H14.5789C15.2292 2.96324 15.7463 3.68667 16.0959 4.49358L16.1243 4.56107C16.5607 4.63931 16.9559 4.86829 17.2408 5.20807C17.5256 5.54784 17.6822 5.97685 17.6832 6.42025ZM16.0635 6.42025C16.0635 6.34866 16.0351 6.28 15.9845 6.22938C15.9339 6.17876 15.8652 6.15032 15.7936 6.15032H15.5466C15.3742 6.15031 15.2062 6.09526 15.0673 5.99318C14.9283 5.8911 14.8255 5.74732 14.7739 5.58278C14.4808 4.65113 13.898 3.83731 13.1105 3.25971C12.3229 2.6821 11.3716 2.37084 10.3949 2.37121H8.23539C7.3448 2.37114 6.47344 2.63022 5.72757 3.11686C4.98169 3.60349 4.39354 4.29665 4.03483 5.11179C3.67611 5.92694 3.56235 6.82886 3.7074 7.70755C3.85246 8.58624 4.25006 9.40374 4.85173 10.0603C4.92474 10.1396 4.98098 10.2328 5.01707 10.3343L5.837 12.6288H6.31479L6.50847 12.0889C6.56424 11.9312 6.66749 11.7946 6.80404 11.6979C6.94059 11.6012 7.10373 11.5492 7.27104 11.549H11.8991C12.0664 11.5492 12.2295 11.6012 12.3661 11.6979C12.5026 11.7946 12.6059 11.9312 12.6617 12.0889L12.8554 12.6288H13.3331L14.4912 9.38956C14.5469 9.23182 14.6502 9.09523 14.7867 8.99855C14.9233 8.90188 15.0864 8.84987 15.2537 8.84968H15.7936C15.8652 8.84968 15.9339 8.82124 15.9845 8.77062C16.0351 8.72 16.0635 8.65134 16.0635 8.57975V6.42025Z" fill="currentColor"/>
</svg>
