<svg width="19" height="21" viewBox="0 0 19 21" fill="none" xmlns="http://www.w3.org/2000/svg">
<path opacity="0.2" fill-rule="evenodd" clip-rule="evenodd" d="M7.84131 0.203369C7.31088 0.203369 6.80217 0.414083 6.4271 0.789156C6.05202 1.16423 5.84131 1.67294 5.84131 2.20337V4.20337H1.84131C1.28902 4.20337 0.841309 4.65108 0.841309 5.20337C0.841309 5.75565 1.28902 6.20337 1.84131 6.20337H1.9211L2.84159 17.2492C2.85347 18.0283 3.16811 18.7729 3.71992 19.3247C4.28253 19.8874 5.04559 20.2034 5.84124 20.2034H13.8412C14.6369 20.2034 15.4 19.8874 15.9626 19.3247C16.5144 18.7729 16.829 18.0283 16.8409 17.2492L17.7614 6.20337H17.8413C18.3936 6.20337 18.8413 5.75565 18.8413 5.20337C18.8413 4.65108 18.3936 4.20337 17.8413 4.20337H13.8413V2.20337C13.8413 1.67294 13.6306 1.16423 13.2555 0.789156C12.8804 0.414083 12.3717 0.203369 11.8413 0.203369H7.84131ZM11.8413 4.20337V2.20337H7.84131V4.20337H11.8413ZM6.84131 6.20337H3.92804L4.83779 17.1204C4.84009 17.148 4.84124 17.1757 4.84124 17.2034C4.84124 17.4686 4.9466 17.723 5.13414 17.9105C5.32167 18.0981 5.57603 18.2034 5.84124 18.2034H13.8412C14.1065 18.2034 14.3608 18.0981 14.5483 17.9105C14.7359 17.723 14.8412 17.4686 14.8412 17.2034C14.8412 17.1757 14.8424 17.148 14.8447 17.1204L15.7544 6.20337H12.8413H6.84131ZM7.84131 8.20337C8.39359 8.20337 8.84131 8.65108 8.84131 9.20337V15.2034C8.84131 15.7557 8.39359 16.2034 7.84131 16.2034C7.28902 16.2034 6.84131 15.7557 6.84131 15.2034V9.20337C6.84131 8.65108 7.28902 8.20337 7.84131 8.20337ZM12.8413 9.20337C12.8413 8.65108 12.3936 8.20337 11.8413 8.20337C11.289 8.20337 10.8413 8.65108 10.8413 9.20337V15.2034C10.8413 15.7557 11.289 16.2034 11.8413 16.2034C12.3936 16.2034 12.8413 15.7557 12.8413 15.2034V9.20337Z" fill="white"/>
</svg>
