<svg xmlns="http://www.w3.org/2000/svg" width="17" height="16" viewBox="0 0 17 16" fill="none">
<path d="M9.40104 9.50166V14.667H2.73438C2.73417 13.8529 2.92032 13.0496 3.27857 12.3186C3.63683 11.5876 4.15767 10.9483 4.80119 10.4497C5.44471 9.95108 6.19383 9.60641 6.99114 9.44209C7.78846 9.27776 8.61282 9.29814 9.40104 9.50166V9.50166ZM8.06771 8.66699C5.85771 8.66699 4.06771 6.87699 4.06771 4.66699C4.06771 2.45699 5.85771 0.666992 8.06771 0.666992C10.2777 0.666992 12.0677 2.45699 12.0677 4.66699C12.0677 6.87699 10.2777 8.66699 8.06771 8.66699ZM12.4584 11.3337L11.239 10.115L12.1824 9.17166L15.0104 12.0003L12.1824 14.829L11.239 13.8857L12.4584 12.667H10.0677V11.3337H12.4584Z" fill="white"/>
</svg>