<svg width="16" height="16" viewBox="0 0 16 16" fill="none" xmlns="http://www.w3.org/2000/svg">
<g id="Group">
<path id="Vector" d="M7.99935 9.33366V14.667H2.66602C2.66602 13.2525 3.22792 11.896 4.22811 10.8958C5.22831 9.89556 6.58486 9.33366 7.99935 9.33366ZM11.9993 14.3337L10.04 15.3637L10.414 13.1823L8.82935 11.637L11.02 11.3183L11.9993 9.33366L12.9793 11.3183L15.1693 11.637L13.5847 13.1823L13.958 15.3637L11.9993 14.3337ZM7.99935 8.66699C5.78935 8.66699 3.99935 6.87699 3.99935 4.66699C3.99935 2.45699 5.78935 0.666992 7.99935 0.666992C10.2093 0.666992 11.9993 2.45699 11.9993 4.66699C11.9993 6.87699 10.2093 8.66699 7.99935 8.66699Z" fill="white"/>
</g>
</svg>
