<svg width="28" height="29" viewBox="0 0 28 29" fill="none" xmlns="http://www.w3.org/2000/svg">
<path fill-rule="evenodd" clip-rule="evenodd" d="M4.64094 6.83161V14.2782C4.64094 14.6606 4.95087 14.9705 5.3332 14.9705H10.8156C11.4261 14.9705 11.9757 14.6005 12.2054 14.0348L14.9263 7.33285C15.1728 6.72593 14.7262 6.06262 14.0711 6.06262H9.13129L10.7033 3.16476C10.9835 2.64835 11.0174 2.03355 10.7957 1.48946L10.5771 0.952812C10.3491 0.393195 9.6098 0.272988 9.21626 0.731542L5.14176 5.47907C4.8186 5.85561 4.64094 6.33541 4.64094 6.83161ZM0.0777588 6.06262H1.96433C2.41038 6.06262 2.77197 6.42421 2.77197 6.87026V14.1629C2.77197 14.6089 2.41038 14.9705 1.96433 14.9705H0.0777588V6.06262ZM22.8432 21.9594V14.5128C22.8432 14.1304 22.5333 13.8205 22.1509 13.8205H16.6685C16.058 13.8205 15.5084 14.1905 15.2788 14.7562L12.5578 21.4582C12.3114 22.0651 12.758 22.7284 13.413 22.7284H18.3528L16.7808 25.6263C16.5007 26.1427 16.4668 26.7575 16.6884 27.3016L16.9071 27.8382C17.135 28.3978 17.8743 28.518 18.2679 28.0595L22.3424 23.3119C22.6655 22.9354 22.8432 22.4556 22.8432 21.9594ZM27.4064 22.7284H25.5198C25.0737 22.7284 24.7122 22.3668 24.7122 21.9208V14.6281C24.7122 14.1821 25.0737 13.8205 25.5198 13.8205H27.4064V22.7284Z" fill="#B556FF"/>
</svg>
