<svg width="57" height="57" viewBox="0 0 57 57" fill="none" xmlns="http://www.w3.org/2000/svg">
<path d="M56.6963 28.5343C56.6963 43.9983 44.1603 56.5343 28.6963 56.5343C13.2323 56.5343 0.696289 43.9983 0.696289 28.5343C0.696289 13.0703 13.2323 0.534302 28.6963 0.534302C44.1603 0.534302 56.6963 13.0703 56.6963 28.5343Z" fill="#2E303B"/>
<path fill-rule="evenodd" clip-rule="evenodd" d="M34.8677 18.551C36.2864 17.7394 38.0544 18.764 38.0544 20.4V33.7708C38.0544 35.4057 36.2875 36.4314 34.8677 35.6198L30.5989 33.1808V20.99L34.8677 18.551ZM28.4688 21.7601H23.1434C21.8228 21.7587 20.5488 22.2482 19.5687 23.1333C18.5886 24.0185 17.9724 25.2363 17.8397 26.5502C17.707 27.8642 18.0672 29.1806 18.8505 30.2438C19.6337 31.3071 20.7841 32.0414 22.0784 32.3042V36.1385C22.0784 36.8447 22.3589 37.5219 22.8582 38.0213C23.3576 38.5206 24.0349 38.8012 24.741 38.8012C25.4472 38.8012 26.1245 38.5206 26.6238 38.0213C27.1232 37.5219 27.4037 36.8447 27.4037 36.1385V32.4107H28.4688V21.7601Z" fill="#5E6172"/>
</svg>
