<svg xmlns="http://www.w3.org/2000/svg" width="24" height="24" viewBox="0 0 24 24" fill="none">
  <path d="M1.86523 20.5L11.9997 3L22.1342 20.5H1.86523ZM4.44973 19H19.5497L11.9997 6L4.44973 19ZM11.9997 17.8077C12.2286 17.8077 12.4204 17.7303 12.5752 17.5755C12.7301 17.4207 12.8075 17.2288 12.8075 17C12.8075 16.7712 12.7301 16.5793 12.5752 16.4245C12.4204 16.2697 12.2286 16.1923 11.9997 16.1923C11.7709 16.1923 11.5791 16.2697 11.4242 16.4245C11.2694 16.5793 11.192 16.7712 11.192 17C11.192 17.2288 11.2694 17.4207 11.4242 17.5755C11.5791 17.7303 11.7709 17.8077 11.9997 17.8077ZM11.2497 15.1923H12.7497V10.1923H11.2497V15.1923Z" fill="#F97316"/>
</svg>