<svg width="100" height="100" viewBox="0 0 100 100" fill="none" xmlns="http://www.w3.org/2000/svg">
<path fill-rule="evenodd" clip-rule="evenodd" d="M50 100C77.6142 100 100 77.6142 100 50C100 22.3858 77.6142 0 50 0C22.3858 0 0 22.3858 0 50C0 77.6142 22.3858 100 50 100ZM63.3965 63.1572C70.7952 55.7667 70.7952 43.7844 63.3965 36.3939C55.9978 29.0034 44.0022 29.0034 36.6035 36.3939C29.2048 43.7844 29.2048 55.7667 36.6035 63.1572C38.0527 64.6048 38.0527 66.9518 36.6035 68.3994C35.1543 69.8469 32.8048 69.8469 31.3556 68.3994C21.0586 58.1137 21.0586 41.4374 31.3556 31.1517C41.6526 20.8661 58.3474 20.8661 68.6444 31.1517C78.9414 41.4374 78.9414 58.1137 68.6444 68.3994C67.1952 69.8469 64.8457 69.8469 63.3965 68.3994C61.9473 66.9518 61.9473 64.6048 63.3965 63.1572ZM50.0009 50.7606C52.0503 50.7606 53.7117 52.3389 53.7117 54.2858L53.7118 68.3498C53.7118 70.2967 52.0503 71.875 50.0009 71.875C47.9515 71.875 46.2901 70.2967 46.2901 68.3498V54.2858C46.2901 52.3389 47.9515 50.7606 50.0009 50.7606ZM50.0009 39.9792C52.0503 39.9792 53.7117 41.6387 53.7117 43.6859V43.7368C53.7117 45.784 52.0503 47.4435 50.0009 47.4435C47.9515 47.4435 46.2901 45.784 46.2901 43.7368V43.6859C46.2901 41.6387 47.9515 39.9792 50.0009 39.9792Z" fill="#27EE76"/>
</svg>
