<svg width="300" height="301" viewBox="0 0 300 301" fill="none" xmlns="http://www.w3.org/2000/svg">
<path fill-rule="evenodd" clip-rule="evenodd" d="M150 300.001C232.843 300.001 300 232.844 300 150.001C300 67.1587 232.843 0.00140381 150 0.00140381C67.1572 0.00140381 -6.10352e-05 67.1587 -6.10352e-05 150.001C-6.10352e-05 232.844 67.1572 300.001 150 300.001ZM97.0308 102.804C97.0308 96.5443 91.9562 91.4697 85.6963 91.4697C79.4364 91.4697 74.3618 96.5443 74.3618 102.804V197.198C74.3618 203.458 79.4364 208.533 85.6963 208.533C91.9562 208.533 97.0308 203.458 97.0308 197.198V102.804ZM225.637 102.804C225.637 96.5443 220.562 91.4697 214.302 91.4697C208.042 91.4697 202.968 96.5443 202.968 102.804V197.198C202.968 203.458 208.042 208.533 214.302 208.533C220.562 208.533 225.637 203.458 225.637 197.198V102.804ZM182.151 128.1C188.411 128.1 193.485 133.175 193.485 139.435V197.199C193.485 203.458 188.411 208.533 182.151 208.533C175.891 208.533 170.816 203.458 170.816 197.199V139.435C170.816 133.175 175.891 128.1 182.151 128.1ZM129.182 139.435C129.182 133.175 124.107 128.1 117.848 128.1C111.588 128.1 106.513 133.175 106.513 139.435L106.513 197.199C106.513 203.458 111.588 208.533 117.848 208.533C124.107 208.533 129.182 203.458 129.182 197.199V139.435ZM149.999 161.913C156.259 161.913 161.333 166.988 161.333 173.248V197.198C161.333 203.458 156.259 208.533 149.999 208.533C143.739 208.533 138.665 203.458 138.665 197.198V173.248C138.665 166.988 143.739 161.913 149.999 161.913Z" fill="#009FF9"/>
</svg>
