<svg fill="currentColor" xmlns="http://www.w3.org/2000/svg"  viewBox="0 0 24 24" width="24px" height="24px"><path d="M9 1H3C1.8969727 1 1 1.8969727 1 3v6c0 1.1030273.8969727 2 2 2h6c1.1030273 0 2-.8969727 2-2V3C11 1.8969727 10.1030273 1 9 1zM21 1h-6c-1.1030273 0-2 .8969727-2 2v6c0 1.1030273.8969727 2 2 2h6c1.1030273 0 2-.8969727 2-2V3C23 1.8969727 22.1030273 1 21 1zM9 13H3c-1.1030273 0-2 .8969727-2 2v6c0 1.1030273.8969727 2 2 2h6c1.1030273 0 2-.8969727 2-2v-6C11 13.8969727 10.1030273 13 9 13zM20.5 17H19v-1.5c0-.2763672-.2236328-.5-.5-.5h-1c-.2763672 0-.5.2236328-.5.5V17h-1.5c-.2763672 0-.5.2236328-.5.5v1c0 .2763672.2236328.5.5.5H17v1.5c0 .2763672.2236328.5.5.5h1c.2763672 0 .5-.2236328.5-.5V19h1.5c.2763672 0 .5-.2236328.5-.5v-1C21 17.2236328 20.7763672 17 20.5 17z"/></svg>