<svg width="31" height="32" viewBox="0 0 31 32" fill="none" xmlns="http://www.w3.org/2000/svg">
<path d="M30.7859 19.6287V28.0955C30.7859 28.8974 30.4673 29.6666 29.9002 30.2336C29.3332 30.8007 28.564 31.1193 27.7621 31.1193H3.5713C2.76933 31.1193 2.0002 30.8007 1.43312 30.2336C0.866038 29.6666 0.547455 28.8974 0.547455 28.0955V19.6287C0.547455 19.1475 0.738605 18.686 1.07885 18.3458C1.4191 18.0055 1.88058 17.8144 2.36176 17.8144C2.84295 17.8144 3.30442 18.0055 3.64467 18.3458C3.98492 18.686 4.17607 19.1475 4.17607 19.6287V27.4907H27.1573V19.6287C27.1573 19.1475 27.3484 18.686 27.6887 18.3458C28.0289 18.0055 28.4904 17.8144 28.9716 17.8144C29.4528 17.8144 29.9143 18.0055 30.2545 18.3458C30.5948 18.686 30.7859 19.1475 30.7859 19.6287ZM14.3831 20.9123C14.5516 21.0815 14.7519 21.2157 14.9724 21.3072C15.193 21.3988 15.4294 21.4459 15.6682 21.4459C15.907 21.4459 16.1434 21.3988 16.364 21.3072C16.5845 21.2157 16.7848 21.0815 16.9533 20.9123L23.001 14.8646C23.3419 14.5238 23.5333 14.0615 23.5333 13.5795C23.5333 13.0975 23.3419 12.6352 23.001 12.2944C22.6602 11.9535 22.1979 11.762 21.7159 11.762C21.2339 11.762 20.7716 11.9535 20.4307 12.2944L17.481 15.2441V2.69517C17.481 2.21398 17.2898 1.75251 16.9496 1.41226C16.6093 1.07201 16.1479 0.880859 15.6667 0.880859C15.1855 0.880859 14.724 1.07201 14.3838 1.41226C14.0435 1.75251 13.8524 2.21398 13.8524 2.69517V15.2441L10.9026 12.2974C10.5618 11.9565 10.0995 11.7651 9.61748 11.7651C9.13546 11.7651 8.67318 11.9565 8.33234 12.2974C7.9915 12.6382 7.80002 13.1005 7.80002 13.5825C7.80002 14.0645 7.9915 14.5268 8.33234 14.8677L14.3831 20.9123Z" fill="currentColor"/>
</svg>
