<svg width="13" height="19" viewBox="0 0 13 19" fill="none" xmlns="http://www.w3.org/2000/svg">
<path d="M12.4256 13.0039L8.16447 9.80806L12.4256 6.61224C12.5496 6.51922 12.6503 6.39859 12.7196 6.25992C12.7889 6.12124 12.825 5.96833 12.825 5.81329C12.825 5.65824 12.7889 5.50533 12.7196 5.36666C12.6503 5.22798 12.5496 5.10736 12.4256 5.01433L7.0992 1.01956C6.95082 0.908282 6.77439 0.840516 6.58967 0.82386C6.40495 0.807204 6.21924 0.842315 6.05335 0.925259C5.88746 1.0082 5.74795 1.1357 5.65044 1.29347C5.55294 1.45124 5.50129 1.63305 5.50129 1.81852V7.81067L1.77284 5.01433C1.56094 4.85541 1.29459 4.78717 1.03239 4.82463C0.770179 4.86209 0.533591 5.00218 0.374669 5.21407C0.215748 5.42597 0.14751 5.69232 0.184968 5.95452C0.222426 6.21673 0.362512 6.45332 0.574408 6.61224L4.8355 9.80806L0.574408 13.0039C0.469488 13.0826 0.381094 13.1811 0.314274 13.294C0.247454 13.4068 0.203516 13.5318 0.184968 13.6616C0.166421 13.7914 0.173627 13.9236 0.206176 14.0507C0.238725 14.1777 0.295979 14.2971 0.374669 14.402C0.453359 14.507 0.551945 14.5954 0.664796 14.6622C0.777647 14.729 0.902555 14.7729 1.03239 14.7915C1.16222 14.81 1.29443 14.8028 1.42148 14.7703C1.54853 14.7377 1.66792 14.6805 1.77284 14.6018L5.50129 11.8054V17.7976C5.50129 17.9831 5.55294 18.1649 5.65044 18.3226C5.74795 18.4804 5.88746 18.6079 6.05335 18.6909C6.21924 18.7738 6.40495 18.8089 6.58967 18.7923C6.77439 18.7756 6.95082 18.7078 7.0992 18.5965L12.4256 14.6018C12.5496 14.5088 12.6503 14.3881 12.7196 14.2495C12.7889 14.1108 12.825 13.9579 12.825 13.8028C12.825 13.6478 12.7889 13.4949 12.7196 13.3562C12.6503 13.2175 12.5496 13.0969 12.4256 13.0039ZM7.49867 3.8159L10.1619 5.81329L7.49867 7.81067V3.8159ZM7.49867 15.8002V11.8054L10.1619 13.8028L7.49867 15.8002Z" fill="white"/>
</svg>
