<svg width="28" height="49" viewBox="0 0 28 49" fill="currentColor" xmlns="http://www.w3.org/2000/svg">
<path d="M1.81263 0.5H1.76591L1.72 0.508655C1.00437 0.64357 0.490573 1.27508 0.500131 2.00361V45.9976C0.495345 46.5371 0.782453 47.0331 1.2426 47.302C1.70914 47.5786 2.28403 47.576 2.74937 47.3085L2.75236 47.3067L14.0001 40.7353L25.2479 47.3067L25.2509 47.3085C25.7162 47.576 26.2911 47.5786 26.7577 47.302C27.2178 47.0331 27.505 46.537 27.5001 45.9975V2C27.5001 1.17308 26.8271 0.5 26.0001 0.5H2.00013H1.99995H1.99976H1.99958H1.9994H1.99922H1.99903H1.99885H1.99867H1.99848H1.9983H1.99812H1.99793H1.99775H1.99757H1.99738H1.9972H1.99702H1.99683H1.99665H1.99647H1.99629H1.9961H1.99592H1.99574H1.99555H1.99537H1.99519H1.995H1.99482H1.99464H1.99445H1.99427H1.99409H1.9939H1.99372H1.99354H1.99336H1.99317H1.99299H1.99281H1.99262H1.99244H1.99226H1.99207H1.99189H1.99171H1.99152H1.99134H1.99116H1.99098H1.99079H1.99061H1.99043H1.99024H1.99006H1.98988H1.98969H1.98951H1.98933H1.98914H1.98896H1.98878H1.98859H1.98841H1.98823H1.98805H1.98786H1.98768H1.9875H1.98731H1.98713H1.98695H1.98676H1.98658H1.9864H1.98621H1.98603H1.98585H1.98567H1.98548H1.9853H1.98512H1.98493H1.98475H1.98457H1.98438H1.9842H1.98402H1.98383H1.98365H1.98347H1.98328H1.9831H1.98292H1.98274H1.98255H1.98237H1.98219H1.982H1.98182H1.98164H1.98145H1.98127H1.98109H1.9809H1.98072H1.98054H1.98036H1.98017H1.97999H1.97981H1.97962H1.97944H1.97926H1.97907H1.97889H1.97871H1.97852H1.97834H1.97816H1.97797H1.97779H1.97761H1.97743H1.97724H1.97706H1.97688H1.97669H1.97651H1.97633H1.97614H1.97596H1.97578H1.97559H1.97541H1.97523H1.97505H1.97486H1.97468H1.9745H1.97431H1.97413H1.97395H1.97376H1.97358H1.9734H1.97321H1.97303H1.97285H1.97266H1.97248H1.9723H1.97212H1.97193H1.97175H1.97157H1.97138H1.9712H1.97102H1.97083H1.97065H1.97047H1.97028H1.9701H1.96992H1.96974H1.96955H1.96937H1.96919H1.969H1.96882H1.96864H1.96845H1.96827H1.96809H1.9679H1.96772H1.96754H1.96735H1.96717H1.96699H1.96681H1.96662H1.96644H1.96626H1.96607H1.96589H1.96571H1.96552H1.96534H1.96516H1.96497H1.96479H1.96461H1.96442H1.96424H1.96406H1.96388H1.96369H1.96351H1.96333H1.96314H1.96296H1.96278H1.96259H1.96241H1.96223H1.96204H1.96186H1.96168H1.9615H1.96131H1.96113H1.96095H1.96076H1.96058H1.9604H1.96021H1.96003H1.95985H1.95966H1.95948H1.9593H1.95911H1.95893H1.95875H1.95857H1.95838H1.9582H1.95802H1.95783H1.95765H1.95747H1.95728H1.9571H1.95692H1.95673H1.95655H1.95637H1.95619H1.956H1.95582H1.95564H1.95545H1.95527H1.95509H1.9549H1.95472H1.95454H1.95435H1.95417H1.95399H1.9538H1.95362H1.95344H1.95326H1.95307H1.95289H1.95271H1.95252H1.95234H1.95216H1.95197H1.95179H1.95161H1.95142H1.95124H1.95106H1.95088H1.95069H1.95051H1.95033H1.95014H1.94996H1.94978H1.94959H1.94941H1.94923H1.94904H1.94886H1.94868H1.94849H1.94831H1.94813H1.94795H1.94776H1.94758H1.9474H1.94721H1.94703H1.94685H1.94666H1.94648H1.9463H1.94611H1.94593H1.94575H1.94557H1.94538H1.9452H1.94502H1.94483H1.94465H1.94447H1.94428H1.9441H1.94392H1.94373H1.94355H1.94337H1.94318H1.943H1.94282H1.94264H1.94245H1.94227H1.94209H1.9419H1.94172H1.94154H1.94135H1.94117H1.94099H1.9408H1.94062H1.94044H1.94025H1.94007H1.93989H1.93971H1.93952H1.93934H1.93916H1.93897H1.93879H1.93861H1.93842H1.93824H1.93806H1.93787H1.93769H1.93751H1.93733H1.93714H1.93696H1.93678H1.93659H1.93641H1.93623H1.93604H1.93586H1.93568H1.93549H1.93531H1.93513H1.93494H1.93476H1.93458H1.9344H1.93421H1.93403H1.93385H1.93366H1.93348H1.9333H1.93311H1.93293H1.93275H1.93256H1.93238H1.9322H1.93202H1.93183H1.93165H1.93147H1.93128H1.9311H1.93092H1.93073H1.93055H1.93037H1.93018H1.93H1.92982H1.92963H1.92945H1.92927H1.92909H1.9289H1.92872H1.92854H1.92835H1.92817H1.92799H1.9278H1.92762H1.92744H1.92725H1.92707H1.92689H1.92671H1.92652H1.92634H1.92616H1.92597H1.92579H1.92561H1.92542H1.92524H1.92506H1.92487H1.92469H1.92451H1.92432H1.92414H1.92396H1.92378H1.92359H1.92341H1.92323H1.92304H1.92286H1.92268H1.92249H1.92231H1.92213H1.92194H1.92176H1.92158H1.9214H1.92121H1.92103H1.92085H1.92066H1.92048H1.9203H1.92011H1.91993H1.91975H1.91956H1.91938H1.9192H1.91901H1.91883H1.91865H1.91847H1.91828H1.9181H1.91792H1.91773H1.91755H1.91737H1.91718H1.917H1.91682H1.91663H1.91645H1.91627H1.91609H1.9159H1.91572H1.91554H1.91535H1.91517H1.91499H1.9148H1.91462H1.91444H1.91425H1.91407H1.91389H1.9137H1.91352H1.91334H1.91316H1.91297H1.91279H1.91261H1.91242H1.91224H1.91206H1.91187H1.91169H1.91151H1.91132H1.91114H1.91096H1.91078H1.91059H1.91041H1.91023H1.91004H1.90986H1.90968H1.90949H1.90931H1.90913H1.90894H1.90876H1.90858H1.90839H1.90821H1.90803H1.90785H1.90766H1.90748H1.9073H1.90711H1.90693H1.90675H1.90656H1.90638H1.9062H1.90601H1.90583H1.90565H1.90546H1.90528H1.9051H1.90492H1.90473H1.90455H1.90437H1.90418H1.904H1.90382H1.90363H1.90345H1.90327H1.90308H1.9029H1.90272H1.90254H1.90235H1.90217H1.90199H1.9018H1.90162H1.90144H1.90125H1.90107H1.90089H1.9007H1.90052H1.90034H1.90015H1.89997H1.89979H1.89961H1.89942H1.89924H1.89906H1.89887H1.89869H1.89851H1.89832H1.89814H1.89796H1.89777H1.89759H1.89741H1.89723H1.89704H1.89686H1.89668H1.89649H1.89631H1.89613H1.89594H1.89576H1.89558H1.89539H1.89521H1.89503H1.89484H1.89466H1.89448H1.8943H1.89411H1.89393H1.89375H1.89356H1.89338H1.8932H1.89301H1.89283H1.89265H1.89246H1.89228H1.8921H1.89192H1.89173H1.89155H1.89137H1.89118H1.891H1.89082H1.89063H1.89045H1.89027H1.89008H1.8899H1.88972H1.88953H1.88935H1.88917H1.88899H1.8888H1.88862H1.88844H1.88825H1.88807H1.88789H1.8877H1.88752H1.88734H1.88715H1.88697H1.88679H1.88661H1.88642H1.88624H1.88606H1.88587H1.88569H1.88551H1.88532H1.88514H1.88496H1.88477H1.88459H1.88441H1.88422H1.88404H1.88386H1.88368H1.88349H1.88331H1.88313H1.88294H1.88276H1.88258H1.88239H1.88221H1.88203H1.88184H1.88166H1.88148H1.8813H1.88111H1.88093H1.88075H1.88056H1.88038H1.8802H1.88001H1.87983H1.87965H1.87946H1.87928H1.8791H1.87891H1.87873H1.87855H1.87837H1.87818H1.878H1.87782H1.87763H1.87745H1.87727H1.87708H1.8769H1.87672H1.87653H1.87635H1.87617H1.87598H1.8758H1.87562H1.87544H1.87525H1.87507H1.87489H1.8747H1.87452H1.87434H1.87415H1.87397H1.87379H1.8736H1.87342H1.87324H1.87306H1.87287H1.87269H1.87251H1.87232H1.87214H1.87196H1.87177H1.87159H1.87141H1.87122H1.87104H1.87086H1.87067H1.87049H1.87031H1.87013H1.86994H1.86976H1.86958H1.86939H1.86921H1.86903H1.86884H1.86866H1.86848H1.86829H1.86811H1.86793H1.86775H1.86756H1.86738H1.8672H1.86701H1.86683H1.86665H1.86646H1.86628H1.8661H1.86591H1.86573H1.86555H1.86536H1.86518H1.865H1.86482H1.86463H1.86445H1.86427H1.86408H1.8639H1.86372H1.86353H1.86335H1.86317H1.86298H1.8628H1.86262H1.86244H1.86225H1.86207H1.86189H1.8617H1.86152H1.86134H1.86115H1.86097H1.86079H1.8606H1.86042H1.86024H1.86005H1.85987H1.85969H1.85951H1.85932H1.85914H1.85896H1.85877H1.85859H1.85841H1.85822H1.85804H1.85786H1.85767H1.85749H1.85731H1.85713H1.85694H1.85676H1.85658H1.85639H1.85621H1.85603H1.85584H1.85566H1.85548H1.85529H1.85511H1.85493H1.85474H1.85456H1.85438H1.8542H1.85401H1.85383H1.85365H1.85346H1.85328H1.8531H1.85291H1.85273H1.85255H1.85236H1.85218H1.852H1.85182H1.85163H1.85145H1.85127H1.85108H1.8509H1.85072H1.85053H1.85035H1.85017H1.84998H1.8498H1.84962H1.84943H1.84925H1.84907H1.84889H1.8487H1.84852H1.84834H1.84815H1.84797H1.84779H1.8476H1.84742H1.84724H1.84705H1.84687H1.84669H1.8465H1.84632H1.84614H1.84596H1.84577H1.84559H1.84541H1.84522H1.84504H1.84486H1.84467H1.84449H1.84431H1.84412H1.84394H1.84376H1.84358H1.84339H1.84321H1.84303H1.84284H1.84266H1.84248H1.84229H1.84211H1.84193H1.84174H1.84156H1.84138H1.84119H1.84101H1.84083H1.84065H1.84046H1.84028H1.8401H1.83991H1.83973H1.83955H1.83936H1.83918H1.839H1.83881H1.83863H1.83845H1.83827H1.83808H1.8379H1.83772H1.83753H1.83735H1.83717H1.83698H1.8368H1.83662H1.83643H1.83625H1.83607H1.83588H1.8357H1.83552H1.83534H1.83515H1.83497H1.83479H1.8346H1.83442H1.83424H1.83405H1.83387H1.83369H1.8335H1.83332H1.83314H1.83296H1.83277H1.83259H1.83241H1.83222H1.83204H1.83186H1.83167H1.83149H1.83131H1.83112H1.83094H1.83076H1.83057H1.83039H1.83021H1.83003H1.82984H1.82966H1.82948H1.82929H1.82911H1.82893H1.82874H1.82856H1.82838H1.82819H1.82801H1.82783H1.82765H1.82746H1.82728H1.8271H1.82691H1.82673H1.82655H1.82636H1.82618H1.826H1.82581H1.82563H1.82545H1.82526H1.82508H1.8249H1.82472H1.82453H1.82435H1.82417H1.82398H1.8238H1.82362H1.82343H1.82325H1.82307H1.82288H1.8227H1.82252H1.82234H1.82215H1.82197H1.82179H1.8216H1.82142H1.82124H1.82105H1.82087H1.82069H1.8205H1.82032H1.82014H1.81995H1.81977H1.81959H1.81941H1.81922H1.81904H1.81886H1.81867H1.81849H1.81831H1.81812H1.81794H1.81776H1.81757H1.81739H1.81721H1.81703H1.81684H1.81666H1.81648H1.81629H1.81611H1.81593H1.81574H1.81556H1.81538H1.81519H1.81501H1.81483H1.81464H1.81446H1.81428H1.8141H1.81391H1.81373H1.81355H1.81336H1.81318H1.813H1.81281H1.81263ZM13.2482 37.6931L3.50013 43.3795V3.5H24.5001V43.3795L14.7521 37.6931L14.7517 37.6929C14.2876 37.4227 13.7126 37.4227 13.2485 37.6929L13.2482 37.6931Z" fill="currentColor" stroke="currentColor"/>
</svg>
