<svg width="26" height="24" viewBox="0 0 26 24" fill="none" xmlns="http://www.w3.org/2000/svg">
<g opacity="1.00">
<path d="M12 14V22H4C4 19.8783 4.84285 17.8434 6.34315 16.3431C7.84344 14.8429 9.87827 14 12 14ZM12 13C8.685 13 6 10.315 6 7C6 3.685 8.685 1 12 1C15.315 1 18 3.685 18 7C18 10.315 15.315 13 12 13Z" fill="currentColor"/>
<path fill-rule="evenodd" clip-rule="evenodd" d="M15.2156 17.2844C15.3594 17.4281 15.5375 17.5 15.75 17.5C15.9625 17.5 16.1406 17.4281 16.2844 17.2844C16.4281 17.1406 16.5 16.9625 16.5 16.75C16.5 16.5375 16.4281 16.3594 16.2844 16.2156C16.1406 16.0719 15.9625 16 15.75 16C15.5375 16 15.3594 16.0719 15.2156 16.2156C15.0719 16.3594 15 16.5375 15 16.75C15 16.9625 15.0719 17.1406 15.2156 17.2844ZM17.75 17.25C17.75 17.3881 17.8619 17.5 18 17.5H25.5C25.6381 17.5 25.75 17.3881 25.75 17.25V16.25C25.75 16.1119 25.6381 16 25.5 16H18C17.8619 16 17.75 16.1119 17.75 16.25V17.25ZM15.75 20.5C15.5375 20.5 15.3594 20.4281 15.2156 20.2844C15.0719 20.1406 15 19.9625 15 19.75C15 19.5375 15.0719 19.3594 15.2156 19.2156C15.3594 19.0719 15.5375 19 15.75 19C15.9625 19 16.1406 19.0719 16.2844 19.2156C16.4281 19.3594 16.5 19.5375 16.5 19.75C16.5 19.9625 16.4281 20.1406 16.2844 20.2844C16.1406 20.4281 15.9625 20.5 15.75 20.5ZM18 20.5C17.8619 20.5 17.75 20.3881 17.75 20.25V19.25C17.75 19.1119 17.8619 19 18 19H25.5C25.6381 19 25.75 19.1119 25.75 19.25V20.25C25.75 20.3881 25.6381 20.5 25.5 20.5H18ZM15.75 23.5C15.5375 23.5 15.3594 23.4281 15.2156 23.2844C15.0719 23.1406 15 22.9625 15 22.75C15 22.5375 15.0719 22.3594 15.2156 22.2156C15.3594 22.0719 15.5375 22 15.75 22C15.9625 22 16.1406 22.0719 16.2844 22.2156C16.4281 22.3594 16.5 22.5375 16.5 22.75C16.5 22.9625 16.4281 23.1406 16.2844 23.2844C16.1406 23.4281 15.9625 23.5 15.75 23.5ZM18 23.5C17.8619 23.5 17.75 23.3881 17.75 23.25V22.25C17.75 22.1119 17.8619 22 18 22H25.5C25.6381 22 25.75 22.1119 25.75 22.25V23.25C25.75 23.3881 25.6381 23.5 25.5 23.5H18Z" fill="currentColor"/>
</g>
</svg>
