<svg width="21" height="19" viewBox="0 0 21 19" fill="none" xmlns="http://www.w3.org/2000/svg">
<path fill-rule="evenodd" clip-rule="evenodd" d="M15.6144 2.5761H18.3262C18.9489 2.5761 19.546 2.82346 19.9863 3.26376C20.4266 3.70406 20.674 4.30124 20.674 4.92392V15.8804C20.674 16.5031 20.4266 17.1003 19.9863 17.5406C19.546 17.9809 18.9489 18.2283 18.3262 18.2283H2.674C2.05132 18.2283 1.45414 17.9809 1.01383 17.5406C0.573532 17.1003 0.326172 16.5031 0.326172 15.8804V4.92392C0.326172 4.30124 0.573532 3.70406 1.01383 3.26376C1.45414 2.82346 2.05132 2.5761 2.674 2.5761H5.38476L6.71911 0.576532C6.79054 0.469463 6.88728 0.381666 7.00076 0.320918C7.11423 0.260171 7.24094 0.228349 7.36965 0.228271H13.6305C13.7592 0.228349 13.8859 0.260171 13.9994 0.320918C14.1129 0.381666 14.2096 0.469463 14.2811 0.576532L15.6144 2.5761ZM9.41885 14.359L15.7659 8.01206L14.153 6.39917L9.41886 11.1332L6.88 8.59441L5.26714 10.2073L9.41885 14.359Z" fill="white"/>
</svg>
