<svg width="20" height="20" viewBox="0 0 20 20" fill="none" xmlns="http://www.w3.org/2000/svg">
<path d="M10 2.91064C8.59786 2.91064 7.2272 3.32643 6.06137 4.10542C4.89553 4.8844 3.98687 5.99161 3.45029 7.28702C2.91372 8.58243 2.77332 10.0079 3.04687 11.3831C3.32041 12.7583 3.99561 14.0215 4.98707 15.0129C5.97853 16.0044 7.24174 16.6796 8.61694 16.9531C9.99213 17.2267 11.4176 17.0863 12.713 16.5497C14.0084 16.0131 15.1156 15.1045 15.8946 13.9386C16.6736 12.7728 17.0893 11.4021 17.0893 10C17.0874 8.12039 16.3398 6.31834 15.0107 4.98926C13.6817 3.66018 11.8796 2.91263 10 2.91064ZM13.8173 10.5453H10C9.85537 10.5453 9.71666 10.4879 9.61439 10.3856C9.51212 10.2833 9.45466 10.1446 9.45466 10V6.18265C9.45466 6.03802 9.51212 5.89931 9.61439 5.79704C9.71666 5.69477 9.85537 5.63732 10 5.63732C10.1446 5.63732 10.2833 5.69477 10.3856 5.79704C10.4879 5.89931 10.5453 6.03802 10.5453 6.18265V9.45466H13.8173C13.962 9.45466 14.1007 9.51212 14.203 9.61439C14.3052 9.71666 14.3627 9.85536 14.3627 10C14.3627 10.1446 14.3052 10.2833 14.203 10.3856C14.1007 10.4879 13.962 10.5453 13.8173 10.5453Z" fill="#FF7003"/>
</svg>
