<svg width="47" height="47" viewBox="0 0 47 47" fill="none" xmlns="http://www.w3.org/2000/svg">
<rect width="47" height="47" rx="23.5" fill="#3CCB7F"/>
<path d="M20.4097 13.3462H15.5535C14.9681 13.3462 14.4066 13.5788 13.9927 13.9927C13.5787 14.4067 13.3462 14.9681 13.3462 15.5535V20.4097C13.3462 20.9952 13.5787 21.5566 13.9927 21.9706C14.4066 22.3845 14.9681 22.6171 15.5535 22.6171H20.4097C20.9951 22.6171 21.5566 22.3845 21.9705 21.9706C22.3845 21.5566 22.6171 20.9952 22.6171 20.4097V15.5535C22.6171 14.9681 22.3845 14.4067 21.9705 13.9927C21.5566 13.5788 20.9951 13.3462 20.4097 13.3462ZM19.9682 19.9683H15.995V15.995H19.9682V19.9683ZM20.4097 24.383H15.5535C14.9681 24.383 14.4066 24.6155 13.9927 25.0295C13.5787 25.4435 13.3462 26.0049 13.3462 26.5903V31.4465C13.3462 32.0319 13.5787 32.5934 13.9927 33.0074C14.4066 33.4213 14.9681 33.6539 15.5535 33.6539H20.4097C20.9951 33.6539 21.5566 33.4213 21.9705 33.0074C22.3845 32.5934 22.6171 32.0319 22.6171 31.4465V26.5903C22.6171 26.0049 22.3845 25.4435 21.9705 25.0295C21.5566 24.6155 20.9951 24.383 20.4097 24.383ZM19.9682 31.005H15.995V27.0318H19.9682V31.005ZM31.4465 13.3462H26.5903C26.0049 13.3462 25.4434 13.5788 25.0295 13.9927C24.6155 14.4067 24.3829 14.9681 24.3829 15.5535V20.4097C24.3829 20.9952 24.6155 21.5566 25.0295 21.9706C25.4434 22.3845 26.0049 22.6171 26.5903 22.6171H31.4465C32.0319 22.6171 32.5934 22.3845 33.0073 21.9706C33.4213 21.5566 33.6538 20.9952 33.6538 20.4097V15.5535C33.6538 14.9681 33.4213 14.4067 33.0073 13.9927C32.5934 13.5788 32.0319 13.3462 31.4465 13.3462ZM31.005 19.9683H27.0318V15.995H31.005V19.9683ZM24.3829 28.3562V25.7074C24.3829 25.3561 24.5225 25.0193 24.7709 24.7709C25.0192 24.5225 25.3561 24.383 25.7074 24.383C26.0586 24.383 26.3955 24.5225 26.6439 24.7709C26.8922 25.0193 27.0318 25.3561 27.0318 25.7074V28.3562C27.0318 28.7075 26.8922 29.0443 26.6439 29.2927C26.3955 29.5411 26.0586 29.6806 25.7074 29.6806C25.3561 29.6806 25.0192 29.5411 24.7709 29.2927C24.5225 29.0443 24.3829 28.7075 24.3829 28.3562ZM33.6538 27.4733C33.6538 27.8245 33.5143 28.1614 33.2659 28.4098C33.0176 28.6581 32.6807 28.7977 32.3294 28.7977H31.005V32.3295C31.005 32.6807 30.8655 33.0176 30.6171 33.266C30.3687 33.5143 30.0319 33.6539 29.6806 33.6539H25.7074C25.3561 33.6539 25.0192 33.5143 24.7709 33.266C24.5225 33.0176 24.3829 32.6807 24.3829 32.3295C24.3829 31.9782 24.5225 31.6413 24.7709 31.393C25.0192 31.1446 25.3561 31.005 25.7074 31.005H28.3562V25.7074C28.3562 25.3561 28.4957 25.0193 28.7441 24.7709C28.9925 24.5225 29.3293 24.383 29.6806 24.383C30.0319 24.383 30.3687 24.5225 30.6171 24.7709C30.8655 25.0193 31.005 25.3561 31.005 25.7074V26.1489H32.3294C32.6807 26.1489 33.0176 26.2884 33.2659 26.5368C33.5143 26.7851 33.6538 27.122 33.6538 27.4733Z" fill="white"/>
</svg>
