<svg width="13" height="11" viewBox="0 0 13 11" fill="none" xmlns="http://www.w3.org/2000/svg">
<path d="M12.948 4.0499L10.9493 10.1717C10.9292 10.2334 10.8955 10.2898 10.8506 10.3367C10.8057 10.3836 10.7509 10.4198 10.6901 10.4426C10.6293 10.4653 10.5642 10.4741 10.4996 10.4683C10.435 10.4625 10.3725 10.4422 10.3168 10.4089C10.3043 10.4013 8.92309 9.60564 6.49877 9.60564C4.07445 9.60564 2.69321 10.4013 2.67971 10.4094C2.62402 10.4424 2.56164 10.4624 2.49716 10.4681C2.43269 10.4737 2.36778 10.4648 2.30722 10.442C2.24666 10.4191 2.19199 10.383 2.14726 10.3362C2.10253 10.2895 2.06888 10.2333 2.04878 10.1717L0.0511996 4.04828C0.0109512 3.9257 0.00784965 3.79395 0.0422852 3.66962C0.0767207 3.54528 0.147155 3.4339 0.24473 3.34949C0.342305 3.26508 0.462661 3.2114 0.590662 3.19522C0.718662 3.17904 0.848589 3.20107 0.964101 3.25854L3.67526 4.60899L5.93969 0.846102C5.99789 0.749586 6.08005 0.669748 6.1782 0.614327C6.27634 0.558907 6.38714 0.529785 6.49985 0.529785C6.61256 0.529785 6.72336 0.558907 6.8215 0.614327C6.91965 0.669748 7.00181 0.749586 7.06002 0.846102L9.32444 4.60899L12.0367 3.25854C12.1523 3.20098 12.2824 3.17899 12.4106 3.19532C12.5387 3.21166 12.6591 3.2656 12.7566 3.35033C12.8541 3.43506 12.9244 3.54678 12.9584 3.67139C12.9925 3.796 12.9888 3.9279 12.948 4.05044V4.0499Z" fill="white"/>
</svg>
