<svg width="17" height="17" viewBox="0 0 17 17" fill="none" xmlns="http://www.w3.org/2000/svg">
  <path fill-rule="evenodd" clip-rule="evenodd" d="M8.2829 16.7773C10.4046 16.7773 12.4395 15.9345 13.9398 14.4342C15.44 12.9339 16.2829 10.8991 16.2829 8.77734C16.2829 6.65561 15.44 4.62078 13.9398 3.12049C12.4395 1.6202 10.4046 0.777344 8.2829 0.777344C6.16117 0.777344 4.12633 1.6202 2.62604 3.12049C1.12575 4.62078 0.282898 6.65561 0.282898 8.77734C0.282898 10.8991 1.12575 12.9339 2.62604 14.4342C4.12633 15.9345 6.16117 16.7773 8.2829 16.7773ZM11.9899 8.07034L8.9899 5.07034C8.8013 4.88819 8.54869 4.78739 8.2865 4.78967C8.0243 4.79195 7.77349 4.89712 7.58808 5.08253C7.40267 5.26793 7.2975 5.51875 7.29522 5.78094C7.29295 6.04314 7.39374 6.29574 7.5759 6.48434L8.8689 7.77734H5.2829C5.01768 7.77734 4.76333 7.8827 4.57579 8.07024C4.38826 8.25777 4.2829 8.51213 4.2829 8.77734C4.2829 9.04256 4.38826 9.29691 4.57579 9.48445C4.76333 9.67199 5.01768 9.77734 5.2829 9.77734H8.8689L7.5759 11.0703C7.48039 11.1626 7.40421 11.2729 7.3518 11.3949C7.29939 11.5169 7.2718 11.6482 7.27065 11.7809C7.26949 11.9137 7.2948 12.0454 7.34508 12.1683C7.39536 12.2912 7.46961 12.4028 7.5635 12.4967C7.6574 12.5906 7.76905 12.6649 7.89194 12.7152C8.01484 12.7654 8.14652 12.7907 8.2793 12.7896C8.41208 12.7884 8.5433 12.7609 8.6653 12.7084C8.78731 12.656 8.89765 12.5799 8.9899 12.4843L11.9899 9.48434C12.1774 9.29682 12.2827 9.04251 12.2827 8.77734C12.2827 8.51218 12.1774 8.25787 11.9899 8.07034Z" fill="currentColor" />
</svg>