<svg width="20" height="21" viewBox="0 0 20 21" fill="none" xmlns="http://www.w3.org/2000/svg">
<path d="M15.2034 10.3477L8.41609 17.6198C8.34416 17.6965 8.24922 17.7478 8.14559 17.7659C8.04196 17.784 7.93527 17.7678 7.84161 17.7199C7.74795 17.6721 7.67241 17.595 7.62638 17.5004C7.58036 17.4058 7.56634 17.2988 7.58646 17.1956L8.47487 12.7517L4.98244 11.4403C4.90743 11.4122 4.84054 11.366 4.78775 11.3058C4.73496 11.2456 4.6979 11.1733 4.6799 11.0952C4.66189 11.0172 4.66349 10.9359 4.68456 10.8587C4.70563 10.7814 4.74551 10.7106 4.80063 10.6525L11.5879 3.38037C11.6599 3.30361 11.7548 3.25232 11.8584 3.23426C11.9621 3.21619 12.0688 3.23232 12.1624 3.28021C12.2561 3.3281 12.3316 3.40515 12.3777 3.49974C12.4237 3.59433 12.4377 3.70132 12.4176 3.80457L11.5267 8.25329L15.0192 9.56288C15.0936 9.59113 15.16 9.63728 15.2124 9.69725C15.2647 9.75723 15.3015 9.82918 15.3195 9.90676C15.3375 9.98433 15.3361 10.0651 15.3154 10.142C15.2947 10.2189 15.2554 10.2896 15.201 10.3477H15.2034Z" fill="#FFBF00"/>
</svg>
