<svg width="49" height="49" viewBox="0 0 49 49" fill="none" xmlns="http://www.w3.org/2000/svg">
<circle cx="24.8647" cy="24.8647" r="24.1353" fill="black"/>
<path d="M34.8647 16.1691V21.3865C34.8647 21.7324 34.7273 22.0642 34.4827 22.3088C34.2381 22.5534 33.9063 22.6908 33.5604 22.6908C33.2145 22.6908 32.8827 22.5534 32.6381 22.3088C32.3935 22.0642 32.2561 21.7324 32.2561 21.3865V19.3213L28.3963 23.1821C28.1512 23.4272 27.8189 23.5648 27.4724 23.5648C27.1258 23.5648 26.7935 23.4272 26.5484 23.1821C26.3034 22.9371 26.1657 22.6048 26.1657 22.2582C26.1657 21.9117 26.3034 21.5793 26.5484 21.3343L30.4082 17.4734H28.343C27.9971 17.4734 27.6653 17.336 27.4207 17.0914C27.1761 16.8468 27.0387 16.515 27.0387 16.1691C27.0387 15.8232 27.1761 15.4914 27.4207 15.2468C27.6653 15.0022 27.9971 14.8647 28.343 14.8647H33.5604C33.9063 14.8647 34.2381 15.0022 34.4827 15.2468C34.7273 15.4914 34.8647 15.8232 34.8647 16.1691ZM21.3332 26.5506L17.4734 30.4082V28.343C17.4734 27.9971 17.336 27.6653 17.0914 27.4207C16.8468 27.1761 16.515 27.0387 16.1691 27.0387C15.8232 27.0387 15.4914 27.1761 15.2468 27.4207C15.0022 27.6653 14.8647 27.9971 14.8647 28.343V33.5604C14.8647 33.9063 15.0022 34.2381 15.2468 34.4827C15.4914 34.7273 15.8232 34.8647 16.1691 34.8647H21.3865C21.7324 34.8647 22.0642 34.7273 22.3088 34.4827C22.5534 34.2381 22.6908 33.9063 22.6908 33.5604C22.6908 33.2145 22.5534 32.8827 22.3088 32.6381C22.0642 32.3935 21.7324 32.2561 21.3865 32.2561H19.3213L23.1821 28.3963C23.4272 28.1512 23.5648 27.8189 23.5648 27.4724C23.5648 27.1258 23.4272 26.7935 23.1821 26.5484C22.9371 26.3034 22.6048 26.1657 22.2582 26.1657C21.9117 26.1657 21.5793 26.3034 21.3343 26.5484L21.3332 26.5506ZM33.5604 27.0387C33.2145 27.0387 32.8827 27.1761 32.6381 27.4207C32.3935 27.6653 32.2561 27.9971 32.2561 28.343V30.4082L28.3963 26.5474C28.1512 26.3023 27.8189 26.1647 27.4724 26.1647C27.1258 26.1647 26.7935 26.3023 26.5484 26.5474C26.3034 26.7924 26.1657 27.1247 26.1657 27.4713C26.1657 27.8178 26.3034 28.1501 26.5484 28.3952L30.4082 32.2561H28.343C27.9971 32.2561 27.6653 32.3935 27.4207 32.6381C27.1761 32.8827 27.0387 33.2145 27.0387 33.5604C27.0387 33.9063 27.1761 34.2381 27.4207 34.4827C27.6653 34.7273 27.9971 34.8647 28.343 34.8647H33.5604C33.9063 34.8647 34.2381 34.7273 34.4827 34.4827C34.7273 34.2381 34.8647 33.9063 34.8647 33.5604V28.343C34.8647 27.9971 34.7273 27.6653 34.4827 27.4207C34.2381 27.1761 33.9063 27.0387 33.5604 27.0387ZM19.3213 17.4734H21.3865C21.7324 17.4734 22.0642 17.336 22.3088 17.0914C22.5534 16.8468 22.6908 16.515 22.6908 16.1691C22.6908 15.8232 22.5534 15.4914 22.3088 15.2468C22.0642 15.0022 21.7324 14.8647 21.3865 14.8647H16.1691C15.8232 14.8647 15.4914 15.0022 15.2468 15.2468C15.0022 15.4914 14.8647 15.8232 14.8647 16.1691V21.3865C14.8647 21.7324 15.0022 22.0642 15.2468 22.3088C15.4914 22.5534 15.8232 22.6908 16.1691 22.6908C16.515 22.6908 16.8468 22.5534 17.0914 22.3088C17.336 22.0642 17.4734 21.7324 17.4734 21.3865V19.3213L21.3332 23.1821C21.5783 23.4272 21.9106 23.5648 22.2571 23.5648C22.6037 23.5648 22.936 23.4272 23.1811 23.1821C23.4261 22.9371 23.5637 22.6048 23.5637 22.2582C23.5637 21.9117 23.4261 21.5793 23.1811 21.3343L19.3213 17.4734Z" fill="white"/>
</svg>
