<svg width="18" height="12" viewBox="0 0 18 12" fill="none" xmlns="http://www.w3.org/2000/svg">
<path d="M17.463 5.69922C17.4379 5.64252 16.83 4.29391 15.4785 2.94243C13.6777 1.14165 11.4033 0.189941 8.89983 0.189941C6.3964 0.189941 4.12192 1.14165 2.32114 2.94243C0.969662 4.29391 0.358875 5.64467 0.336626 5.69922C0.303979 5.77265 0.287109 5.85212 0.287109 5.93248C0.287109 6.01284 0.303979 6.09231 0.336626 6.16574C0.361746 6.22244 0.969662 7.57034 2.32114 8.92182C4.12192 10.7219 6.3964 11.6736 8.89983 11.6736C11.4033 11.6736 13.6777 10.7219 15.4785 8.92182C16.83 7.57034 17.4379 6.22244 17.463 6.16574C17.4957 6.09231 17.5126 6.01284 17.5126 5.93248C17.5126 5.85212 17.4957 5.77265 17.463 5.69922ZM8.89983 8.80267C8.33202 8.80267 7.77696 8.6343 7.30484 8.31884C6.83272 8.00338 6.46475 7.555 6.24746 7.03041C6.03017 6.50582 5.97331 5.92858 6.08409 5.37168C6.19486 4.81477 6.46829 4.30323 6.86979 3.90172C7.2713 3.50022 7.78285 3.22679 8.33975 3.11602C8.89665 3.00524 9.47389 3.06209 9.99848 3.27939C10.5231 3.49668 10.9714 3.86465 11.2869 4.33677C11.6024 4.80889 11.7707 5.36395 11.7707 5.93176C11.7707 6.69318 11.4683 7.4234 10.9299 7.9618C10.3915 8.5002 9.66125 8.80267 8.89983 8.80267Z" fill="white"/>
</svg>
