<svg width="22" height="22" viewBox="0 0 22 22" fill="none" xmlns="http://www.w3.org/2000/svg">
<g clip-path="url(#clip0_1367_20221)">
<path d="M11 20.1668C5.93725 20.1668 1.83334 16.0629 1.83334 11.0002C1.83334 5.93741 5.93725 1.8335 11 1.8335C16.0628 1.8335 20.1667 5.93741 20.1667 11.0002C20.1667 16.0629 16.0628 20.1668 11 20.1668ZM16.8254 14.6228V14.5266C16.8254 13.6814 16.8254 13.2955 16.2278 12.9536C16.0357 12.8447 15.8383 12.7453 15.6365 12.6557C15.3001 12.5026 15.0773 12.4027 14.7767 11.9627C14.7408 11.9104 14.7053 11.8579 14.6703 11.805C14.3541 11.3237 14.1258 10.9772 13.2568 11.1147C11.5473 11.3861 11.4208 11.6867 11.3456 12.1946L11.3337 12.278C11.2228 13.0205 11.2026 13.2698 11.5124 13.5952C12.672 14.8117 13.3668 15.6889 13.5777 16.2022C13.6803 16.4525 13.9443 17.2106 13.7628 17.9604C14.8755 17.5172 15.8659 16.8141 16.6513 15.9098C16.7521 15.567 16.8254 15.1398 16.8254 14.6228V14.6228ZM11 3.51375C8.87609 3.51375 6.9575 4.39925 5.59534 5.82008C5.75759 5.93283 5.89875 6.09141 5.99592 6.30958C6.18292 6.7285 6.18292 7.16025 6.18292 7.5425C6.18292 7.84316 6.18292 8.12916 6.27917 8.33541C6.41117 8.61775 6.98134 8.73875 7.48459 8.84325C7.66517 8.88175 7.85034 8.92025 8.019 8.967C8.48284 9.09533 8.84217 9.51241 9.12909 9.847C9.24825 9.98541 9.42517 10.1898 9.51409 10.2412C9.55992 10.2082 9.7075 10.0477 9.77992 9.78466C9.83675 9.583 9.82025 9.40516 9.73867 9.308C9.22534 8.703 9.25375 7.53883 9.41234 7.10891C9.66167 6.4315 10.4408 6.48191 11.011 6.51858C11.2237 6.53233 11.4235 6.54608 11.5738 6.52683C12.144 6.45533 12.32 5.58725 12.4438 5.41766C12.7114 5.051 13.5309 4.49825 14.0388 4.15725C13.0822 3.73191 12.0469 3.51265 11 3.51375V3.51375Z" fill="white"/>
</g>
<defs>
<clipPath id="clip0_1367_20221">
<rect width="22" height="22" fill="white"/>
</clipPath>
</defs>
</svg>
