<svg width="152" height="152" viewBox="0 0 152 152" fill="none" xmlns="http://www.w3.org/2000/svg">
<g filter="url(#filter0_bi_19_1021)">
<path fill-rule="evenodd" clip-rule="evenodd" d="M106.875 44.9598C103.107 41.193 96.9736 41.193 93.2064 44.9598C91.0007 47.1647 89.9902 50.311 90.4956 53.3887L90.4956 53.4117C90.6563 54.3991 90.5413 55.4329 90.1049 56.3973C89.5305 57.6378 88.497 58.5332 87.3022 58.9696C86.1077 59.406 84.7295 59.3833 83.489 58.8089C76.4823 55.5706 68.0975 57.0634 62.63 62.5297C57.1626 67.9959 55.6694 76.3791 58.9085 83.3839C59.5056 84.6474 59.5056 86.0252 59.0462 87.2426C58.5868 88.4138 57.7137 89.4245 56.4732 89.9986C55.8071 90.3203 55.095 90.458 54.3829 90.458C54.0382 90.458 53.7168 90.412 53.3951 90.343H53.2344C50.202 89.9066 47.2155 90.8944 45.0332 93.0763C43.2183 94.9135 42.2075 97.3481 42.2075 99.9204C42.2075 102.516 43.1953 104.927 45.0332 106.765C48.8004 110.531 54.9343 110.531 58.7018 106.765C60.9071 104.56 61.9179 101.413 61.4125 98.3358C61.3895 98.1748 61.3895 98.0142 61.4125 97.8535C61.3665 97.0267 61.5042 96.1999 61.8719 95.3959C62.446 94.1557 63.4568 93.26 64.6517 92.8236C65.8692 92.3642 67.2244 92.3872 68.4879 92.9613C75.4945 96.1999 83.8794 94.7068 89.3468 89.2405C94.8143 83.7746 96.3075 75.3914 93.0683 68.3863C92.4939 67.1692 92.4713 65.814 92.9077 64.6199C93.3441 63.4024 94.2399 62.346 95.5034 61.7719C96.3995 61.3585 97.3413 61.2435 98.2371 61.3585C98.3751 61.3355 98.5358 61.3355 98.6738 61.3585C101.706 61.7949 104.692 60.8071 106.875 58.6252C110.642 54.8585 110.642 48.7265 106.875 44.9598ZM83.6497 68.4093C87.8306 72.5894 87.8306 79.3648 83.6497 83.5449C79.4688 87.7247 72.6918 87.7247 68.5109 83.5449C64.33 79.3648 64.33 72.5894 68.5109 68.4093C72.6918 64.2292 79.4688 64.2292 83.6497 68.4093ZM140.69 75.9884C140.69 40.2743 111.722 11.3126 75.9999 11.3126C40.2778 11.3126 11.3096 40.2514 11.3096 75.9884C11.3096 111.726 40.2548 140.687 75.9999 140.687C111.745 140.687 140.69 111.703 140.69 75.9884ZM110.481 41.5376C116.202 47.2563 116.202 56.5123 110.481 62.2313C108.345 64.3672 105.703 65.6993 102.969 66.2734C106.806 76.6315 104.302 88.4598 96.4225 96.3376C90.978 101.781 83.6497 104.652 76.2296 104.652C72.8985 104.652 69.5447 104.054 66.3286 102.86C65.8002 105.616 64.4446 108.281 62.3083 110.416C56.5882 116.135 47.3302 116.135 41.6102 110.416C35.89 104.698 35.89 95.4419 41.6102 89.7229C43.7467 87.587 46.3654 86.2549 49.1221 85.7038C45.1939 75.3224 47.6749 63.4254 55.6004 55.5016C63.5258 47.578 75.4255 45.0974 85.786 49.0019C86.3374 46.2689 87.6699 43.6506 89.7832 41.5376C95.5034 35.8187 104.761 35.8187 110.481 41.5376Z" fill="white"/>
<path d="M79.761 72.2988C81.7935 74.3308 81.7935 77.6231 79.7611 79.6553H72.3994C70.3671 77.6231 70.3671 74.3308 72.3996 72.2988C74.4327 70.266 77.7279 70.266 79.761 72.2988ZM79.761 79.6554C77.7279 81.6879 74.4327 81.6879 72.3996 79.6554H79.761ZM146.19 75.9884C146.19 37.2356 114.758 5.81256 75.9999 5.81256C37.2427 5.81256 5.80957 37.2114 5.80957 75.9884C5.80957 114.762 37.2159 146.187 75.9999 146.187C114.785 146.187 146.19 114.738 146.19 75.9884Z" stroke="url(#paint0_linear_19_1021)" stroke-opacity="0.2" stroke-width="11"/>
</g>
<defs>
<filter id="filter0_bi_19_1021" x="-11.6904" y="-11.6874" width="175.38" height="175.375" filterUnits="userSpaceOnUse" color-interpolation-filters="sRGB">
<feFlood flood-opacity="0" result="BackgroundImageFix"/>
<feGaussianBlur in="BackgroundImageFix" stdDeviation="6"/>
<feComposite in2="SourceAlpha" operator="in" result="effect1_backgroundBlur_19_1021"/>
<feBlend mode="normal" in="SourceGraphic" in2="effect1_backgroundBlur_19_1021" result="shape"/>
<feColorMatrix in="SourceAlpha" type="matrix" values="0 0 0 0 0 0 0 0 0 0 0 0 0 0 0 0 0 0 127 0" result="hardAlpha"/>
<feOffset dy="0.5"/>
<feGaussianBlur stdDeviation="0.125"/>
<feComposite in2="hardAlpha" operator="arithmetic" k2="-1" k3="1"/>
<feColorMatrix type="matrix" values="0 0 0 0 1 0 0 0 0 1 0 0 0 0 1 0 0 0 0.1 0"/>
<feBlend mode="normal" in2="shape" result="effect2_innerShadow_19_1021"/>
</filter>
<linearGradient id="paint0_linear_19_1021" x1="104.208" y1="11.3126" x2="45.6275" y2="137.787" gradientUnits="userSpaceOnUse">
<stop stop-color="white"/>
<stop offset="1" stop-color="#999999"/>
</linearGradient>
</defs>
</svg>
