<svg width="20" height="20" viewBox="0 0 20 20" fill="none" xmlns="http://www.w3.org/2000/svg">
<path d="M16.5991 5.76076L10.5665 2.46C10.4053 2.37093 10.2242 2.32422 10.04 2.32422C9.85587 2.32422 9.67473 2.37093 9.51355 2.46L3.48099 5.76213C3.30872 5.85639 3.16491 5.99518 3.06458 6.164C2.96425 6.33282 2.91109 6.52548 2.91064 6.72186V13.2781C2.91109 13.4745 2.96425 13.6672 3.06458 13.836C3.16491 14.0048 3.30872 14.1436 3.48099 14.2379L9.51355 17.54C9.67473 17.6291 9.85587 17.6758 10.04 17.6758C10.2242 17.6758 10.4053 17.6291 10.5665 17.54L16.5991 14.2379C16.7713 14.1436 16.9151 14.0048 17.0155 13.836C17.1158 13.6672 17.169 13.4745 17.1694 13.2781V6.72254C17.1693 6.52581 17.1163 6.33273 17.016 6.16351C16.9156 5.9943 16.7716 5.85519 16.5991 5.76076ZM10.04 12.7428C9.49769 12.7428 8.96754 12.5819 8.51661 12.2806C8.06568 11.9793 7.71422 11.5511 7.50668 11.05C7.29914 10.549 7.24484 9.99764 7.35064 9.46573C7.45645 8.93383 7.7176 8.44524 8.10109 8.06175C8.48457 7.67827 8.97316 7.41711 9.50507 7.3113C10.037 7.2055 10.5883 7.2598 11.0894 7.46734C11.5904 7.67488 12.0187 8.02634 12.32 8.47727C12.6213 8.92821 12.7821 9.45836 12.7821 10.0007C12.7821 10.7279 12.4932 11.4254 11.979 11.9396C11.4647 12.4539 10.7673 12.7428 10.04 12.7428Z" fill="currentColor"/>
</svg>
