<svg width="50" height="50" viewBox="0 0 50 50" fill="none" xmlns="http://www.w3.org/2000/svg">
<rect width="50" height="50" rx="25" fill="#5925DC"/>
<path fill-rule="evenodd" clip-rule="evenodd" d="M32.6364 17.323C31.7046 16.3914 30.1875 16.3914 29.2557 17.323C28.7102 17.8684 28.4603 18.6466 28.5853 19.4078L28.5853 19.4135C28.625 19.6577 28.5966 19.9134 28.4887 20.1519C28.3466 20.4587 28.091 20.6802 27.7954 20.7881C27.5 20.896 27.1591 20.8904 26.8523 20.7484C25.1193 19.9474 23.0455 20.3166 21.6932 21.6686C20.3409 23.0206 19.9716 25.0941 20.7728 26.8266C20.9204 27.1391 20.9204 27.4798 20.8068 27.781C20.6932 28.0706 20.4772 28.3206 20.1704 28.4626C20.0057 28.5422 19.8296 28.5762 19.6534 28.5762C19.5682 28.5762 19.4887 28.5648 19.4091 28.5478H19.3694C18.6193 28.4398 17.8807 28.6841 17.341 29.2238C16.8921 29.6782 16.6421 30.2804 16.6421 30.9166C16.6421 31.5585 16.8864 32.1549 17.341 32.6094C18.2727 33.541 19.7898 33.541 20.7216 32.6094C21.2671 32.0641 21.5171 31.2859 21.3921 30.5247C21.3864 30.4848 21.3864 30.4451 21.3921 30.4054C21.3807 30.2009 21.4148 29.9964 21.5057 29.7975C21.6477 29.4908 21.8977 29.2692 22.1932 29.1613C22.4944 29.0477 22.8295 29.0534 23.1421 29.1954C24.875 29.9964 26.9489 29.6271 28.3011 28.2751C29.6534 26.9232 30.0227 24.8498 29.2216 23.1172C29.0795 22.8161 29.0739 22.481 29.1819 22.1856C29.2898 21.8845 29.5114 21.6232 29.8239 21.4812C30.0455 21.379 30.2784 21.3505 30.5 21.379C30.5341 21.3733 30.5739 21.3733 30.608 21.379C31.358 21.4869 32.0966 21.2426 32.6364 20.7029C33.5682 19.7713 33.5682 18.2547 32.6364 17.323ZM26.8921 23.1229C27.9261 24.1567 27.9261 25.8325 26.8921 26.8664C25.858 27.9002 24.1818 27.9002 23.1477 26.8664C22.1137 25.8325 22.1137 24.1567 23.1477 23.1229C24.1818 22.089 25.858 22.089 26.8921 23.1229ZM41 24.9974C41 16.1642 33.8353 9.00098 25 9.00098C16.1648 9.00098 9 16.1585 9 24.9974C9 33.8364 16.1591 40.9996 25 40.9996C33.8409 40.9996 41 33.8307 41 24.9974ZM33.5284 16.4766C34.9432 17.891 34.9432 20.1803 33.5284 21.5948C33.0001 22.1231 32.3466 22.4526 31.6705 22.5946C32.6194 25.1565 32 28.082 30.0512 30.0304C28.7046 31.3767 26.8921 32.0868 25.0568 32.0868C24.2329 32.0868 23.4034 31.9391 22.608 31.6437C22.4773 32.3254 22.142 32.9843 21.6137 33.5126C20.1989 34.9271 17.9091 34.9271 16.4943 33.5126C15.0795 32.0982 15.0795 29.8089 16.4943 28.3944C17.0228 27.8661 17.6705 27.5366 18.3523 27.4004C17.3807 24.8327 17.9943 21.8902 19.9546 19.9304C21.9148 17.9706 24.858 17.3571 27.4204 18.3228C27.5568 17.6468 27.8864 16.9992 28.4091 16.4766C29.8239 15.0621 32.1137 15.0621 33.5284 16.4766Z" fill="white"/>
</svg>
