<svg width="30" height="30" viewBox="0 0 30 30" fill="none" xmlns="http://www.w3.org/2000/svg">
<path fill-rule="evenodd" clip-rule="evenodd" d="M8.46533 0.215332C3.90898 0.215332 0.215332 3.90898 0.215332 8.46533V21.5347C0.215332 26.091 3.90898 29.7847 8.46533 29.7847H21.5347C26.091 29.7847 29.7847 26.091 29.7847 21.5347V8.46533C29.7847 3.90898 26.091 0.215332 21.5347 0.215332H8.46533ZM2.71533 8.46533C2.71533 5.28969 5.28969 2.71533 8.46533 2.71533H21.5347C24.7103 2.71533 27.2847 5.28969 27.2847 8.46533V21.5347C27.2847 24.7103 24.7103 27.2847 21.5347 27.2847H8.46533C5.28969 27.2847 2.71533 24.7103 2.71533 21.5347V8.46533ZM15 5.39966C9.6979 5.39966 5.39966 9.6979 5.39966 15C5.39966 20.3022 9.6979 24.6004 15 24.6004C20.3022 24.6004 24.6004 20.3022 24.6004 15C24.6004 9.6979 20.3022 5.39966 15 5.39966ZM7.89966 15C7.89966 11.0786 11.0786 7.89966 15 7.89966C18.9215 7.89966 22.1004 11.0786 22.1004 15C22.1004 18.9215 18.9215 22.1004 15 22.1004C11.0786 22.1004 7.89966 18.9215 7.89966 15Z" fill="currentColor"/>
</svg>
