<svg width="15" height="16" viewBox="0 0 15 16" fill="none" xmlns="http://www.w3.org/2000/svg">
<path d="M7.5 0.499756C6.02398 0.499756 4.58111 0.937447 3.35384 1.75748C2.12658 2.57751 1.17004 3.74306 0.605192 5.10672C0.0403429 6.47039 -0.107447 7.97093 0.18051 9.41859C0.468467 10.8662 1.17924 12.196 2.22294 13.2397C3.26665 14.2834 4.59641 14.9942 6.04407 15.2821C7.49173 15.5701 8.99226 15.4223 10.3559 14.8575C11.7196 14.2926 12.8851 13.3361 13.7052 12.1088C14.5252 10.8815 14.9629 9.43867 14.9629 7.96265C14.9608 5.98401 14.1739 4.087 12.7748 2.68789C11.3756 1.28878 9.47865 0.501845 7.5 0.499756ZM7.21297 3.94417C7.38328 3.94417 7.54977 3.99467 7.69137 4.08929C7.83298 4.18391 7.94335 4.31839 8.00852 4.47574C8.0737 4.63309 8.09075 4.80623 8.05753 4.97326C8.0243 5.1403 7.94229 5.29374 7.82186 5.41416C7.70143 5.53459 7.548 5.6166 7.38096 5.64983C7.21393 5.68305 7.04079 5.666 6.88344 5.60083C6.72609 5.53565 6.59161 5.42528 6.49699 5.28367C6.40237 5.14207 6.35187 4.97558 6.35187 4.80527C6.35187 4.57689 6.44259 4.35787 6.60408 4.19638C6.76557 4.03489 6.98459 3.94417 7.21297 3.94417ZM8.07407 11.9811C7.76957 11.9811 7.47754 11.8602 7.26222 11.6448C7.0469 11.4295 6.92594 11.1375 6.92594 10.833V7.96265C6.77368 7.96265 6.62767 7.90217 6.52001 7.79451C6.41235 7.68685 6.35187 7.54083 6.35187 7.38858C6.35187 7.23633 6.41235 7.09031 6.52001 6.98265C6.62767 6.87499 6.77368 6.81451 6.92594 6.81451C7.23044 6.81451 7.52247 6.93547 7.73779 7.15079C7.95311 7.36611 8.07407 7.65814 8.07407 7.96265V10.833C8.22633 10.833 8.37234 10.8935 8.48 11.0011C8.58766 11.1088 8.64814 11.2548 8.64814 11.4071C8.64814 11.5593 8.58766 11.7053 8.48 11.813C8.37234 11.9206 8.22633 11.9811 8.07407 11.9811Z" fill="#70707B"/>
</svg>
