<svg xmlns="http://www.w3.org/2000/svg" width="24" height="24" viewBox="0 0 24 24" fill="none">
<circle cx="12" cy="12" r="12" fill="black"/>
<path fill-rule="evenodd" clip-rule="evenodd" d="M12 24C18.6274 24 24 18.6274 24 12C24 5.37258 18.6274 0 12 0C5.37258 0 0 5.37258 0 12C0 18.6274 5.37258 24 12 24ZM15.2152 15.1577C16.9908 13.384 16.9908 10.5083 15.2152 8.73455C13.4395 6.9608 10.5605 6.9608 8.78484 8.73455C7.00917 10.5083 7.00917 13.384 8.78484 15.1577C9.13266 15.5052 9.13266 16.0684 8.78484 16.4159C8.43703 16.7632 7.87313 16.7632 7.52536 16.4159C5.05406 13.9473 5.05406 9.94495 7.52536 7.47642C9.99661 5.00784 14.0034 5.00784 16.4746 7.47642C18.9459 9.94495 18.9459 13.9473 16.4746 16.4159C16.1269 16.7632 15.563 16.7632 15.2152 16.4159C14.8673 16.0684 14.8673 15.5052 15.2152 15.1577ZM12.0002 12.1825C12.4921 12.1825 12.8908 12.5613 12.8908 13.0286V16.404C12.8908 16.8712 12.4921 17.25 12.0002 17.25C11.5083 17.25 11.1096 16.8712 11.1096 16.404V13.0286C11.1096 12.5613 11.5083 12.1825 12.0002 12.1825ZM12.0002 9.59498C12.4921 9.59498 12.8908 9.99328 12.8908 10.4846V10.4968C12.8908 10.9882 12.4921 11.3865 12.0002 11.3865C11.5083 11.3865 11.1096 10.9882 11.1096 10.4968V10.4846C11.1096 9.99328 11.5083 9.59498 12.0002 9.59498Z" fill="#26ED75"/>
</svg>