<svg width="50" height="51" viewBox="0 0 50 51" fill="none" xmlns="http://www.w3.org/2000/svg">
<circle cx="25" cy="25.5" r="25" fill="#00DA7E"/>
<path fill-rule="evenodd" clip-rule="evenodd" d="M32.8766 17.6227C28.5263 13.2724 21.473 13.2724 17.1227 17.6227C12.7724 21.973 12.7724 29.0263 17.1227 33.3766L13.6924 36.8069C7.44758 30.5621 7.44758 20.4372 13.6924 14.1924C19.9372 7.94758 30.0621 7.94758 36.3069 14.1924C42.5518 20.4372 42.5518 30.5621 36.3069 36.8069L32.8766 33.3766C37.227 29.0263 37.227 21.973 32.8766 17.6227ZM28.1943 21.6758C28.1943 23.4401 26.7641 24.8703 24.9997 24.8703C23.2354 24.8703 21.8052 23.4401 21.8052 21.6758C21.8052 19.9115 23.2354 18.4812 24.9997 18.4812C26.7641 18.4812 28.1943 19.9115 28.1943 21.6758ZM22.4546 27.0344L22.4546 41.543L27.3058 41.543L27.3058 27.0344H22.4546Z" fill="white"/>
</svg>
