<svg width="23" height="22" viewBox="0 0 23 22" fill="none" xmlns="http://www.w3.org/2000/svg">
<path d="M17.6368 6.38673C17.6368 6.69026 17.5468 6.98697 17.3781 7.23934C17.2095 7.49171 16.9698 7.68841 16.6894 7.80457C16.409 7.92072 16.1004 7.95111 15.8027 7.8919C15.505 7.83268 15.2316 7.68652 15.017 7.47189C14.8023 7.25727 14.6562 6.98382 14.597 6.68613C14.5378 6.38844 14.5681 6.07987 14.6843 5.79945C14.8005 5.51903 14.9971 5.27935 15.2495 5.11072C15.5019 4.94209 15.7986 4.85208 16.1021 4.85208C16.5091 4.85208 16.8995 5.01377 17.1873 5.30157C17.4751 5.58937 17.6368 5.97972 17.6368 6.38673ZM22.2407 8.56785C22.1654 10.6546 21.2858 12.6313 19.786 14.0841C18.2862 15.5369 16.2824 16.3532 14.1944 16.362H14.1838C13.4161 16.3632 12.6521 16.254 11.9154 16.0378L11.1615 16.7926C11.0545 16.8995 10.9276 16.9842 10.7878 17.042C10.6481 17.0997 10.4984 17.1294 10.3472 17.1293H9.1962V18.2803C9.1962 18.5855 9.07494 18.8783 8.85908 19.0941C8.64323 19.31 8.35047 19.4313 8.04521 19.4313H6.89422V20.5823C6.89422 20.8875 6.77296 21.1803 6.55711 21.3961C6.34126 21.612 6.0485 21.7332 5.74324 21.7332H2.67394C2.16517 21.7332 1.67724 21.5311 1.31748 21.1714C0.95773 20.8116 0.755622 20.3237 0.755622 19.8149V17.0631C0.75494 16.8111 0.804268 16.5615 0.900749 16.3287C0.99723 16.0959 1.13895 15.8845 1.31769 15.7069L6.45109 10.5735C6.12596 9.45541 6.04702 8.28018 6.21971 7.1287C6.3924 5.97722 6.81261 4.87685 7.45141 3.90337C8.09021 2.92989 8.93243 2.10644 9.92004 1.48971C10.9077 0.872994 12.0172 0.477661 13.1723 0.330944C14.3274 0.184226 15.5005 0.289609 16.611 0.639836C17.7214 0.990063 18.7427 1.57681 19.6046 2.35967C20.4665 3.14253 21.1485 4.1029 21.6036 5.17465C22.0586 6.24639 22.276 7.40403 22.2407 8.56785ZM18.2535 4.23534C17.6983 3.67511 17.0329 3.23609 16.2994 2.94603C15.5659 2.65597 14.7802 2.52115 13.992 2.55011C10.9227 2.64602 8.42888 5.22519 8.42888 8.2945C8.4265 9.02312 8.56323 9.74551 8.83172 10.4229C8.92222 10.6343 8.94729 10.868 8.9037 11.0939C8.8601 11.3197 8.74984 11.5273 8.58714 11.6899L3.0576 17.2252V19.4313H4.59225V18.2803C4.59225 17.975 4.71351 17.6823 4.92937 17.4664C5.14522 17.2506 5.43798 17.1293 5.74324 17.1293H6.89422V15.9783C6.89422 15.673 7.01549 15.3803 7.23134 15.1644C7.44719 14.9486 7.73995 14.8273 8.04521 14.8273H9.86761L10.7932 13.9017C10.9559 13.7388 11.1636 13.6284 11.3897 13.5848C11.6157 13.5412 11.8496 13.5664 12.0612 13.6571C12.7367 13.9252 13.4571 14.0619 14.1838 14.06H14.1915C17.2608 14.06 19.838 11.5595 19.9359 8.49688C19.9648 7.7089 19.8302 6.92346 19.5407 6.19004C19.2512 5.45661 18.8129 4.79108 18.2535 4.23534Z" fill="white"/>
</svg>
