<svg width="32" height="30" viewBox="0 0 32 30" fill="none" xmlns="http://www.w3.org/2000/svg">
<path fill-rule="evenodd" clip-rule="evenodd" d="M21.1748 8.23792C21.5858 7.35841 22.4689 6.79639 23.4397 6.79639H29.1071C30.6214 6.79639 31.788 8.13197 31.5844 9.63251L29.1742 27.3963C29.0061 28.6358 27.9477 29.5602 26.6969 29.5602H15.1379C13.3082 29.5602 12.0984 27.6593 12.873 26.0017L21.1748 8.23792ZM23.7579 9.79639L15.9235 26.5602H26.2602L28.5347 9.79639H23.7579Z" fill="currentColor"/>
<path fill-rule="evenodd" clip-rule="evenodd" d="M10.8252 21.7621C10.4142 22.6416 9.53115 23.2036 8.56034 23.2036H2.89288C1.37859 23.2036 0.211987 21.868 0.415581 20.3675L2.82578 2.60366C2.99395 1.3642 4.05227 0.439783 5.30308 0.439783H16.8621C18.6918 0.439783 19.9016 2.34068 19.127 3.99825L10.8252 21.7621ZM8.2421 20.2036L16.0765 3.43978H5.73982L3.4653 20.2036H8.2421Z" fill="currentColor"/>
</svg>
