<svg width="47" height="47" viewBox="0 0 47 47" fill="none" xmlns="http://www.w3.org/2000/svg">
<rect width="47" height="47" rx="23.5" fill="white"/>
<path fill-rule="evenodd" clip-rule="evenodd" d="M27.313 18.7457C27.6158 18.0977 28.2665 17.6836 28.9818 17.6836H33.1577C34.2734 17.6836 35.133 18.6677 34.983 19.7733L33.2071 32.8621C33.0832 33.7754 32.3034 34.4565 31.3818 34.4565H22.8648C21.5167 34.4565 20.6252 33.0559 21.196 31.8345L27.313 18.7457Z" fill="black"/>
<path fill-rule="evenodd" clip-rule="evenodd" d="M19.687 28.7108C19.3842 29.3588 18.7335 29.7729 18.0182 29.7729H13.8423C12.7266 29.7729 11.867 28.7889 12.017 27.6832L13.7929 14.5944C13.9168 13.6812 14.6966 13.0001 15.6182 13.0001H24.1352C25.4833 13.0001 26.3748 14.4007 25.804 15.622L19.687 28.7108Z" fill="black" fill-opacity="0.3"/>
</svg>
