<svg width="33" height="36" viewBox="0 0 33 36" fill="none" xmlns="http://www.w3.org/2000/svg">
<path fill-rule="evenodd" clip-rule="evenodd" d="M14.2533 4.30713C14.2533 2.09799 12.4624 0.307129 10.2533 0.307129H4.12372C1.91458 0.307129 0.123718 2.09799 0.123718 4.30713V28.628C0.123718 32.5298 3.28673 35.6928 7.18849 35.6928C8.4763 35.6928 9.68362 35.3482 10.7233 34.7462C11.2453 34.444 11.7251 34.0768 12.1516 33.6558C13.4491 32.3748 14.2533 30.5953 14.2533 28.628V4.30713ZM17.2141 21.0739V28.3831C17.2141 28.4649 17.2132 28.5466 17.2113 28.628C17.1799 29.9995 16.8857 31.306 16.3769 32.4992C15.8677 33.6934 15.1436 34.7741 14.2533 35.6928H28.543C30.7522 35.6928 32.543 33.9019 32.543 31.6928V25.0739C32.543 22.8648 30.7522 21.0739 28.543 21.0739H17.2141ZM20.4077 24.2675H28.3495C28.9018 24.2675 29.3495 24.7152 29.3495 25.2675V31.4992C29.3495 32.0515 28.9018 32.4992 28.3495 32.4992H19.7776C20.1868 31.1997 20.4077 29.8167 20.4077 28.3831V24.2675ZM4.31725 3.50066C3.76497 3.50066 3.31725 3.94838 3.31725 4.50066V28.628C3.31725 30.766 5.05046 32.4992 7.18849 32.4992C9.32651 32.4992 11.0597 30.766 11.0597 28.628V4.50066C11.0597 3.94838 10.612 3.50066 10.0597 3.50066H4.31725Z" fill="currentColor"/>
<path d="M8.78506 28.4985C8.78506 29.337 8.10536 30.0167 7.26691 30.0167C6.42846 30.0167 5.74876 29.337 5.74876 28.4985C5.74876 27.6601 6.42846 26.9804 7.26691 26.9804C8.10536 26.9804 8.78506 27.6601 8.78506 28.4985Z" fill="currentColor"/>
</svg>
