<svg width="47" height="47" viewBox="0 0 47 47" fill="none" xmlns="http://www.w3.org/2000/svg">
<rect width="47" height="47" rx="23.5" fill="white"/>
<path fill-rule="evenodd" clip-rule="evenodd" d="M21.874 12C23.3731 12 24.5884 13.2153 24.5884 14.7144V31.2188C24.5884 32.5538 24.0427 33.7614 23.1622 34.6307C22.8728 34.9164 22.5472 35.1655 22.193 35.3706C21.4874 35.7791 20.6681 36.013 19.7942 36.013C17.1464 36.013 15 33.8665 15 31.2188V14.7144C15 13.2153 16.2153 12 17.7144 12H21.874ZM26.5977 31.0526V26.0925H34.2856C35.7847 26.0925 37 27.3078 37 28.807V33.2985C37 34.7977 35.7847 36.013 34.2856 36.013H24.5884C25.1926 35.3896 25.684 34.6562 26.0295 33.8458C26.3748 33.0361 26.5745 32.1495 26.5958 31.2188C26.5971 31.1635 26.5977 31.1081 26.5977 31.0526ZM19.7995 33.9694C21.2801 33.9694 22.4804 32.769 22.4804 31.2884C22.4804 29.8077 21.2801 28.6074 19.7995 28.6074C18.3188 28.6074 17.1185 29.8077 17.1185 31.2884C17.1185 32.769 18.3188 33.9694 19.7995 33.9694Z" fill="black"/>
</svg>
