<svg width="29" height="32" viewBox="0 0 29 32" fill="none" xmlns="http://www.w3.org/2000/svg">
<path fill-rule="evenodd" clip-rule="evenodd" d="M8.95811 0.358398C10.9111 0.358398 12.4944 1.94164 12.4944 3.89466V25.3959C12.4944 27.1352 11.7835 28.7084 10.6363 29.8408C10.2593 30.213 9.83517 30.5376 9.37366 30.8048C8.45451 31.337 7.38715 31.6416 6.24865 31.6416C2.79924 31.6416 0.00292969 28.8453 0.00292969 25.3959V3.89466C0.00292969 1.94164 1.58617 0.358398 3.53919 0.358398H8.95811ZM15.112 25.1794V18.7176H25.1274C27.0805 18.7176 28.6637 20.3008 28.6637 22.2539V28.1054C28.6637 30.0584 27.0805 31.6416 25.1274 31.6416H12.4944C13.2815 30.8295 13.9216 29.8741 14.3718 28.8183C14.8216 27.7635 15.0817 26.6084 15.1095 25.3959C15.1111 25.3239 15.112 25.2518 15.112 25.1794ZM6.25549 28.9795C8.18443 28.9795 9.74815 27.4158 9.74815 25.4869C9.74815 23.5579 8.18443 21.9942 6.25549 21.9942C4.32655 21.9942 2.76283 23.5579 2.76283 25.4869C2.76283 27.4158 4.32655 28.9795 6.25549 28.9795Z" fill="black"/>
</svg>
