<svg width="20" height="26" viewBox="0 0 20 26" fill="none" xmlns="http://www.w3.org/2000/svg">
  <path fill-rule="evenodd" clip-rule="evenodd" d="M9.79423 3.37655C7.78038 3.37655 6.1276 5.02933 6.1276 7.04319V10.7098H17.1275C18.4775 10.7098 19.5719 11.8042 19.5719 13.1542V22.9319C19.5719 24.282 18.4775 25.3764 17.1275 25.3764H2.46096C1.11095 25.3764 0.0165405 24.282 0.0165405 22.9319V13.1542C0.0165405 11.8042 1.11095 10.7098 2.46096 10.7098H3.68318V7.04319C3.68318 3.67931 6.43036 0.932129 9.79423 0.932129C13.1581 0.932129 15.9053 3.67931 15.9053 7.04319C15.9053 7.71819 15.3581 8.2654 14.6831 8.2654C14.0081 8.2654 13.4609 7.71819 13.4609 7.04319C13.4609 5.02933 11.8081 3.37655 9.79423 3.37655ZM2.46096 13.1542V22.9319H17.1275V13.1542H2.46096Z" fill="currentColor" />
</svg>