<svg width="27" height="26" viewBox="0 0 27 26" fill="none" xmlns="http://www.w3.org/2000/svg">
<path d="M26.4241 2.81631C26.2445 2.67618 26.0353 2.57881 25.8124 2.53159C25.5895 2.48437 25.3588 2.48854 25.1377 2.54378L17.6756 4.409L10.1747 0.65856C9.85433 0.498258 9.48716 0.457904 9.1396 0.544797L1.13867 2.54503C0.813633 2.62539 0.524822 2.81217 0.318213 3.07564C0.111604 3.33911 -0.000926941 3.66413 -0.00146484 3.99895V22.001C-0.00143033 22.229 0.0505522 22.454 0.150534 22.6588C0.250517 22.8637 0.395869 23.043 0.575552 23.1833C0.755235 23.3236 0.964522 23.4211 1.18752 23.4684C1.41051 23.5157 1.64135 23.5115 1.8625 23.4562L9.32462 21.591L16.8255 25.3414C17.1459 25.5017 17.5131 25.5421 17.8606 25.4552L25.8616 23.455C26.1866 23.3746 26.4754 23.1878 26.682 22.9244C26.8886 22.6609 27.0011 22.3359 27.0017 22.001V3.99895C27.0016 3.77089 26.9496 3.54584 26.8495 3.34091C26.7494 3.13598 26.604 2.95657 26.4241 2.81631ZM10.9998 4.4265L16.0004 6.92679V21.5735L10.9998 19.0732V4.4265ZM2.99889 5.17659L7.99947 3.92644V18.8294L2.99889 20.0796V5.17659ZM24.0013 20.8297L19.0008 22.0798V7.17057L24.0013 5.92042V20.8297Z" fill="currentColor"/>
</svg>
