<svg width="60" height="17" viewBox="0 0 60 17" fill="none" xmlns="http://www.w3.org/2000/svg">
<path opacity="0.3" fill-rule="evenodd" clip-rule="evenodd" d="M12.6279 4.76204C12.1466 4.28077 11.3629 4.28077 10.8816 4.76204C10.5998 5.04376 10.4707 5.4458 10.5352 5.83903V5.84197C10.5558 5.96815 10.5411 6.10021 10.4853 6.22346C10.412 6.38193 10.2799 6.49638 10.1273 6.55213C9.97463 6.60789 9.79852 6.60496 9.64003 6.53159C8.74482 6.11782 7.67351 6.30857 6.97496 7.00699C6.27641 7.70542 6.08563 8.77654 6.49948 9.67159C6.57579 9.83299 6.57579 10.0091 6.51709 10.1646C6.45839 10.3143 6.34685 10.4434 6.18836 10.5167C6.10324 10.5578 6.01225 10.5754 5.92126 10.5754C5.87724 10.5754 5.83615 10.5696 5.79506 10.5608H5.77451C5.38708 10.505 5.00552 10.6312 4.72668 10.91C4.49481 11.1447 4.36567 11.4558 4.36567 11.7845C4.36567 12.1161 4.49188 12.4242 4.72668 12.659C5.20804 13.1403 5.99171 13.1403 6.47306 12.659C6.75483 12.3773 6.88398 11.9752 6.8194 11.582C6.81647 11.5615 6.81647 11.5409 6.8194 11.5204C6.81353 11.4147 6.83114 11.3091 6.8781 11.2064C6.95148 11.0479 7.08063 10.9335 7.23325 10.8777C7.38881 10.819 7.56198 10.8219 7.72341 10.8953C8.61861 11.3091 9.68992 11.1183 10.3885 10.4199C11.087 9.72148 11.2778 8.65036 10.864 7.75531C10.7906 7.59978 10.7876 7.42664 10.8434 7.27404C10.8992 7.11851 11.0136 6.98352 11.1751 6.91015C11.2895 6.85733 11.4099 6.84266 11.5244 6.85733C11.542 6.8544 11.5625 6.8544 11.5801 6.85733C11.9676 6.91309 12.3491 6.7869 12.6279 6.50812C13.1093 6.02685 13.1093 5.24331 12.6279 4.76204ZM9.66057 7.75825C10.1948 8.29234 10.1948 9.15804 9.66057 9.69213C9.12638 10.2262 8.26053 10.2262 7.72635 9.69213C7.19216 9.15804 7.19216 8.29234 7.72635 7.75825C8.26053 7.22415 9.12638 7.22415 9.66057 7.75825ZM16.9484 8.72666C16.9484 4.16339 13.2473 0.462891 8.68319 0.462891C4.11912 0.462891 0.417969 4.16046 0.417969 8.72666C0.417969 13.2929 4.11618 16.9934 8.68319 16.9934C13.2502 16.9934 16.9484 13.2899 16.9484 8.72666ZM13.0888 4.32479C13.8196 5.0555 13.8196 6.23814 13.0888 6.96884C12.8158 7.24176 12.4783 7.41197 12.129 7.48533C12.6191 8.80882 12.2992 10.3201 11.2925 11.3267C10.5969 12.0222 9.66057 12.389 8.71254 12.389C8.28695 12.389 7.85842 12.3127 7.44751 12.1601C7.38 12.5123 7.20683 12.8527 6.93387 13.1256C6.20303 13.8563 5.02019 13.8563 4.28935 13.1256C3.55852 12.3949 3.55852 11.2122 4.28935 10.4815C4.56232 10.2086 4.89692 10.0384 5.24913 9.96798C4.74723 8.64155 5.06422 7.12144 6.07682 6.10901C7.08943 5.09659 8.60981 4.77965 9.93353 5.27853C10.004 4.92932 10.1742 4.59477 10.4442 4.32479C11.1751 3.59408 12.3579 3.59408 13.0888 4.32479ZM42.8839 13.9163C42.3358 13.9163 41.8491 13.8076 41.4238 13.5902C41.0079 13.3729 40.6772 13.0657 40.4314 12.6688L40.2755 13.7462H38.9287V3.53916H40.4314V7.80626C40.6582 7.47548 40.9701 7.1825 41.3671 6.92733C41.764 6.67215 42.2744 6.54456 42.8981 6.54456C43.5786 6.54456 44.1787 6.70523 44.6985 7.02656C45.2183 7.34789 45.6247 7.78736 45.9177 8.34497C46.2201 8.90257 46.3713 9.53579 46.3713 10.2446C46.3713 10.9534 46.2201 11.5866 45.9177 12.1442C45.6247 12.6924 45.2183 13.1271 44.6985 13.4485C44.1787 13.7604 43.5739 13.9163 42.8839 13.9163ZM42.6288 12.6121C43.2714 12.6121 43.8007 12.3947 44.2165 11.96C44.6324 11.5158 44.8403 10.9393 44.8403 10.2304C44.8403 9.76733 44.7458 9.35622 44.5568 8.99708C44.3677 8.63795 44.1078 8.35914 43.7771 8.16067C43.4463 7.95275 43.0635 7.84879 42.6288 7.84879C41.9861 7.84879 41.4569 8.07089 41.041 8.51509C40.6346 8.95928 40.4314 9.53106 40.4314 10.2304C40.4314 10.9393 40.6346 11.5158 41.041 11.96C41.4569 12.3947 41.9861 12.6121 42.6288 12.6121ZM19.6507 3.82269V13.7462H21.1534V6.43115L24.2013 12.3285H25.3638L28.3975 6.41698V13.7462H29.9002V3.82269H28.1282L24.7825 10.4289L21.4227 3.82269H19.6507ZM32.6254 13.4627C33.1641 13.7651 33.769 13.9163 34.44 13.9163C35.111 13.9163 35.7159 13.7651 36.2546 13.4627C36.7933 13.1508 37.2186 12.7208 37.5305 12.1726C37.8518 11.615 38.0125 10.9676 38.0125 10.2304C38.0125 9.49326 37.8518 8.85059 37.5305 8.30244C37.2186 7.74483 36.7933 7.31482 36.2546 7.01238C35.7253 6.7005 35.1252 6.54456 34.4542 6.54456C33.7926 6.54456 33.1925 6.7005 32.6538 7.01238C32.1151 7.31482 31.6851 7.74483 31.3637 8.30244C31.0518 8.85059 30.8959 9.49326 30.8959 10.2304C30.8959 10.9676 31.0518 11.615 31.3637 12.1726C31.6756 12.7208 32.0962 13.1508 32.6254 13.4627ZM35.4324 12.3569C35.1299 12.5365 34.7991 12.6262 34.44 12.6262C34.0809 12.6262 33.7501 12.5365 33.4477 12.3569C33.1452 12.1773 32.8995 11.9127 32.7105 11.563C32.5215 11.2039 32.427 10.7597 32.427 10.2304C32.427 9.70118 32.5215 9.26171 32.7105 8.91202C32.8995 8.55289 33.1452 8.28354 33.4477 8.10397C33.7595 7.9244 34.0951 7.83462 34.4542 7.83462C34.8133 7.83462 35.1441 7.9244 35.4465 8.10397C35.7584 8.28354 36.0041 8.55289 36.1837 8.91202C36.3727 9.26171 36.4672 9.70118 36.4672 10.2304C36.4672 10.7597 36.3727 11.2039 36.1837 11.563C35.9947 11.9127 35.7442 12.1773 35.4324 12.3569ZM47.4296 5.12692C47.6186 5.29704 47.8549 5.3821 48.1384 5.3821C48.4219 5.3821 48.6535 5.29704 48.8331 5.12692C49.0221 4.94735 49.1166 4.72526 49.1166 4.46063C49.1166 4.196 49.0221 3.97863 48.8331 3.80851C48.6535 3.62895 48.4219 3.53916 48.1384 3.53916C47.8549 3.53916 47.6186 3.62895 47.4296 3.80851C47.25 3.97863 47.1602 4.196 47.1602 4.46063C47.1602 4.72526 47.25 4.94735 47.4296 5.12692ZM47.3871 6.71468V13.7462H48.8898V6.71468H47.3871ZM50.1646 13.7462V3.53916H51.6673V13.7462H50.1646ZM54.3075 13.4627C54.8462 13.7651 55.4605 13.9163 56.1504 13.9163C56.9821 13.9163 57.6767 13.6942 58.2344 13.25C58.8014 12.8058 59.1794 12.2529 59.3685 11.5914H57.8658C57.724 11.9221 57.5066 12.1868 57.2136 12.3852C56.9301 12.5743 56.5757 12.6688 56.1504 12.6688C55.6212 12.6688 55.1533 12.4939 54.7469 12.1442C54.35 11.7851 54.1279 11.2653 54.0807 10.5848H59.5528C59.5622 10.4525 59.5669 10.3344 59.5669 10.2304C59.5764 10.117 59.5811 10.0131 59.5811 9.91855C59.5811 9.30424 59.4393 8.74191 59.1558 8.23156C58.8723 7.72121 58.4753 7.31482 57.965 7.01238C57.4546 6.7005 56.8545 6.54456 56.1646 6.54456C55.4558 6.54456 54.832 6.7005 54.2933 7.01238C53.764 7.32427 53.3482 7.75901 53.0458 8.31662C52.7528 8.87422 52.6063 9.52161 52.6063 10.2588C52.6063 10.9865 52.7575 11.6244 53.06 12.1726C53.3624 12.7208 53.7782 13.1508 54.3075 13.4627ZM54.8178 8.23156C55.2053 7.92913 55.6495 7.77791 56.1504 7.77791C56.6891 7.77791 57.138 7.93858 57.4972 8.25991C57.8563 8.58124 58.0501 9.01598 58.0784 9.56414H54.109C54.1941 8.96873 54.4303 8.52454 54.8178 8.23156Z" fill="black"/>
</svg>
