<svg width="20" height="21" viewBox="0 0 20 21" fill="none" xmlns="http://www.w3.org/2000/svg">
<path d="M7.8111 3.3125C7.8111 2.87985 7.93939 2.45692 8.17976 2.09719C8.42013 1.73746 8.76177 1.45708 9.16148 1.29151C9.56119 1.12595 10.001 1.08263 10.4254 1.16703C10.8497 1.25144 11.2395 1.45978 11.5454 1.7657C11.8513 2.07163 12.0597 2.46141 12.1441 2.88574C12.2285 3.31007 12.1852 3.74991 12.0196 4.14962C11.854 4.54933 11.5736 4.89098 11.2139 5.13134C10.8542 5.37171 10.4312 5.5 9.9986 5.5C9.41844 5.5 8.86204 5.26953 8.4518 4.8593C8.04157 4.44906 7.8111 3.89266 7.8111 3.3125ZM17.7799 7.73203C17.7229 7.45201 17.57 7.20065 17.3475 7.02136C17.125 6.84207 16.8468 6.74609 16.5611 6.75H3.4361C3.15112 6.74999 2.87468 6.84735 2.65262 7.02596C2.43055 7.20457 2.27618 7.4537 2.21509 7.73206C2.154 8.01042 2.18987 8.30129 2.31674 8.55648C2.4436 8.81166 2.65386 9.01584 2.91266 9.13516H2.91735L7.12751 10.9891L5.41501 17.4969C5.28432 17.7959 5.27571 18.1341 5.39103 18.4393C5.50636 18.7446 5.73646 18.9926 6.03219 19.1305C6.19748 19.209 6.37813 19.2498 6.5611 19.25C6.79674 19.2503 7.02767 19.1841 7.22728 19.0588C7.42688 18.9336 7.58702 18.7545 7.68923 18.5422L9.9986 14.5625L12.3095 18.5469C12.4533 18.8393 12.7055 19.064 13.0125 19.1732C13.3194 19.2823 13.6569 19.2673 13.953 19.1314C14.2491 18.9954 14.4804 18.7492 14.5976 18.4452C14.7148 18.1412 14.7087 17.8035 14.5806 17.5039L12.8681 10.9961L17.0869 9.13985C17.3487 9.02313 17.5613 8.81842 17.6879 8.56125C17.8145 8.30407 17.847 8.01069 17.7799 7.73203Z" fill="#6938EF"/>
</svg>
