<svg width="47" height="47" viewBox="0 0 47 47" fill="none" xmlns="http://www.w3.org/2000/svg">
<rect width="47" height="47" rx="23.5" fill="#F79009"/>
<path d="M26.4957 11.5303C25.101 11.5311 23.7257 11.8566 22.4786 12.4812C21.2316 13.1057 20.1471 14.012 19.3111 15.1283C18.475 16.2447 17.9104 17.5403 17.662 18.9127C17.4135 20.2851 17.4881 21.6965 17.8797 23.0351L11.9087 29.0049C11.7897 29.1241 11.6953 29.2656 11.6309 29.4213C11.5665 29.577 11.5335 29.7438 11.5336 29.9123V34.1872C11.5336 34.5273 11.6687 34.8535 11.9092 35.094C12.1497 35.3345 12.4759 35.4696 12.8161 35.4696H17.091C17.4311 35.4696 17.7573 35.3345 17.9978 35.094C18.2383 34.8535 18.3734 34.5273 18.3734 34.1872V32.9047H19.6559C19.996 32.9047 20.3222 32.7696 20.5627 32.5291C20.8032 32.2886 20.9384 31.9624 20.9384 31.6222V30.3398H22.2208C22.3893 30.3399 22.5561 30.3069 22.7118 30.2425C22.8675 30.1781 23.009 30.0837 23.1282 29.9647L23.9682 29.1236C25.2027 29.4848 26.5003 29.5765 27.7733 29.3925C29.0464 29.2085 30.265 28.7531 31.3466 28.0571C32.4283 27.3611 33.3478 26.4408 34.0428 25.3586C34.7379 24.2763 35.1922 23.0573 35.3752 21.7841C35.5581 20.511 35.4652 19.2134 35.103 17.9792C34.7407 16.745 34.1175 15.6031 33.2755 14.6308C32.4335 13.6585 31.3924 12.8784 30.2227 12.3435C29.053 11.8085 27.7819 11.5312 26.4957 11.5303ZM26.4957 26.9199C25.6871 26.9216 24.8855 26.7692 24.1338 26.471C23.8981 26.3699 23.6374 26.3419 23.3856 26.3905C23.1337 26.439 22.9022 26.562 22.721 26.7435L21.6865 27.7748H19.6559C19.3158 27.7748 18.9896 27.91 18.749 28.1505C18.5085 28.391 18.3734 28.7172 18.3734 29.0573V30.3398H17.091C16.7508 30.3398 16.4246 30.4749 16.1841 30.7154C15.9436 30.9559 15.8085 31.2821 15.8085 31.6222V32.9047H14.0985V30.4467L20.2597 24.2855C20.441 24.1043 20.5639 23.873 20.6124 23.6214C20.661 23.3697 20.6331 23.1093 20.5322 22.8737C20.0262 21.599 19.9421 20.1957 20.2924 18.8697C20.6427 17.5437 21.4089 16.365 22.4785 15.5066C23.5481 14.6482 24.8648 14.1553 26.2352 14.1004C27.6055 14.0454 28.9574 14.4313 30.0923 15.2013C31.2272 15.9713 32.0853 17.0849 32.5407 18.3786C32.996 19.6723 33.0246 21.0779 32.6222 22.389C32.2198 23.7001 31.4076 24.8476 30.3049 25.6631C29.2023 26.4786 27.8672 26.9191 26.4957 26.9199ZM30.3431 18.3701C30.3431 18.7083 30.2428 19.0389 30.0549 19.3201C29.867 19.6013 29.6 19.8205 29.2875 19.9499C28.9751 20.0793 28.6313 20.1132 28.2996 20.0472C27.9679 19.9812 27.6632 19.8184 27.424 19.5792C27.1849 19.3401 27.022 19.0354 26.9561 18.7037C26.8901 18.372 26.9239 18.0282 27.0534 17.7157C27.1828 17.4033 27.402 17.1362 27.6832 16.9483C27.9644 16.7604 28.295 16.6601 28.6332 16.6601C29.0867 16.6601 29.5216 16.8403 29.8423 17.161C30.163 17.4817 30.3431 17.9166 30.3431 18.3701Z" fill="white"/>
</svg>
