<svg width="19" height="19" viewBox="0 0 19 19" fill="none" xmlns="http://www.w3.org/2000/svg">
<path d="M0.206055 8.6344H8.20605V0.634399H0.206055V8.6344ZM2.20605 2.6344H6.20605V6.6344H2.20605V2.6344Z" fill="currentColor"/>
<path d="M0.206055 18.6344H8.20605V10.6344H0.206055V18.6344ZM2.20605 12.6344H6.20605V16.6344H2.20605V12.6344Z" fill="currentColor"/>
<path d="M10.2061 0.634399V8.6344H18.2061V0.634399H10.2061ZM16.2061 6.6344H12.2061V2.6344H16.2061V6.6344Z" fill="currentColor"/>
<path d="M18.2061 16.6344H16.2061V18.6344H18.2061V16.6344Z" fill="currentColor"/>
<path d="M12.2061 10.6344H10.2061V12.6344H12.2061V10.6344Z" fill="currentColor"/>
<path d="M14.2061 12.6344H12.2061V14.6344H14.2061V12.6344Z" fill="currentColor"/>
<path d="M12.2061 14.6344H10.2061V16.6344H12.2061V14.6344Z" fill="currentColor"/>
<path d="M14.2061 16.6344H12.2061V18.6344H14.2061V16.6344Z" fill="currentColor"/>
<path d="M16.2061 14.6344H14.2061V16.6344H16.2061V14.6344Z" fill="currentColor"/>
<path d="M16.2061 10.6344H14.2061V12.6344H16.2061V10.6344Z" fill="currentColor"/>
<path d="M18.2061 12.6344H16.2061V14.6344H18.2061V12.6344Z" fill="currentColor"/>
</svg>
