<svg width="16" height="16" viewBox="0 0 16 16" fill="none" xmlns="http://www.w3.org/2000/svg">
<g clip-path="url(#clip0_1375_65150)">
<path d="M8 12.6668C8.552 12.6668 9 13.1148 9 13.6668C9 14.2188 8.552 14.6668 8 14.6668C7.448 14.6668 7 14.2188 7 13.6668C7 13.1148 7.448 12.6668 8 12.6668ZM8 1.3335C10.2093 1.3335 12 3.12416 12 5.3335C12 6.77683 11.498 7.52683 10.2173 8.6155C8.93267 9.70683 8.66667 10.1982 8.66667 11.3335H7.33333C7.33333 9.68416 7.858 8.87016 9.354 7.5995C10.3653 6.74016 10.6667 6.2895 10.6667 5.3335C10.6667 3.86016 9.47333 2.66683 8 2.66683C6.52667 2.66683 5.33333 3.86016 5.33333 5.3335V6.00016H4V5.3335C4 3.12416 5.79067 1.3335 8 1.3335Z" fill="white"/>
</g>
<defs>
<clipPath id="clip0_1375_65150">
<rect width="16" height="16" fill="white"/>
</clipPath>
</defs>
</svg>
