<svg width="19" height="19" viewBox="0 0 19 19" fill="none" xmlns="http://www.w3.org/2000/svg">
<path d="M17.0617 8.43818C16.8172 6.6784 16.0008 5.04784 14.7384 3.79768C13.4759 2.54751 11.8375 1.7471 10.0754 1.51974C8.31332 1.29237 6.52536 1.65066 4.98694 2.53943C3.44852 3.42819 2.24499 4.79812 1.56174 6.43818M1.06174 2.43818V6.43818H5.06174" stroke="white" stroke-width="2" stroke-linecap="round" stroke-linejoin="round"/>
<path d="M1.06174 10.438C1.3063 12.1978 2.12267 13.8283 3.3851 15.0785C4.64753 16.3287 6.28598 17.1291 8.04807 17.3564C9.81015 17.5838 11.5981 17.2255 13.1365 16.3367C14.675 15.448 15.8785 14.0781 16.5617 12.438M17.0617 16.438V12.438H13.0617" stroke="white" stroke-width="2" stroke-linecap="round" stroke-linejoin="round"/>
</svg>
