<svg width="19" height="20" viewBox="0 0 19 20" fill="none" xmlns="http://www.w3.org/2000/svg">
<path d="M18.8571 1.78007V5.5229C18.8571 5.82069 18.7388 6.10629 18.5282 6.31687C18.3176 6.52744 18.032 6.64574 17.7342 6.64574C17.4364 6.64574 17.1508 6.52744 16.9402 6.31687C16.7297 6.10629 16.6114 5.82069 16.6114 5.5229V2.90292H13.9914C13.6936 2.90292 13.408 2.78462 13.1974 2.57405C12.9868 2.36347 12.8685 2.07787 12.8685 1.78007C12.8685 1.48228 12.9868 1.19668 13.1974 0.986101C13.408 0.775526 13.6936 0.657227 13.9914 0.657227H17.7342C18.032 0.657227 18.3176 0.775526 18.5282 0.986101C18.7388 1.19668 18.8571 1.48228 18.8571 1.78007ZM5.00861 17.1256H2.38864V14.5057C2.38864 14.2079 2.27034 13.9223 2.05976 13.7117C1.84919 13.5011 1.56359 13.3828 1.26579 13.3828C0.967994 13.3828 0.682393 13.5011 0.471819 13.7117C0.261244 13.9223 0.142944 14.2079 0.142944 14.5057V18.2485C0.142944 18.5463 0.261244 18.8319 0.471819 19.0425C0.682393 19.253 0.967994 19.3713 1.26579 19.3713H5.00861C5.30641 19.3713 5.59201 19.253 5.80259 19.0425C6.01316 18.8319 6.13146 18.5463 6.13146 18.2485C6.13146 17.9507 6.01316 17.6651 5.80259 17.4545C5.59201 17.2439 5.30641 17.1256 5.00861 17.1256ZM17.7342 13.3828C17.4364 13.3828 17.1508 13.5011 16.9402 13.7117C16.7297 13.9223 16.6114 14.2079 16.6114 14.5057V17.1256H13.9914C13.6936 17.1256 13.408 17.2439 13.1974 17.4545C12.9868 17.6651 12.8685 17.9507 12.8685 18.2485C12.8685 18.5463 12.9868 18.8319 13.1974 19.0425C13.408 19.253 13.6936 19.3713 13.9914 19.3713H17.7342C18.032 19.3713 18.3176 19.253 18.5282 19.0425C18.7388 18.8319 18.8571 18.5463 18.8571 18.2485V14.5057C18.8571 14.2079 18.7388 13.9223 18.5282 13.7117C18.3176 13.5011 18.032 13.3828 17.7342 13.3828ZM1.26579 6.64574C1.56359 6.64574 1.84919 6.52744 2.05976 6.31687C2.27034 6.10629 2.38864 5.82069 2.38864 5.5229V2.90292H5.00861C5.30641 2.90292 5.59201 2.78462 5.80259 2.57405C6.01316 2.36347 6.13146 2.07787 6.13146 1.78007C6.13146 1.48228 6.01316 1.19668 5.80259 0.986101C5.59201 0.775526 5.30641 0.657227 5.00861 0.657227H1.26579C0.967994 0.657227 0.682393 0.775526 0.471819 0.986101C0.261244 1.19668 0.142944 1.48228 0.142944 1.78007V5.5229C0.142944 5.82069 0.261244 6.10629 0.471819 6.31687C0.682393 6.52744 0.967994 6.64574 1.26579 6.64574ZM12.8685 15.2542H6.13146C5.63513 15.2542 5.15913 15.0571 4.80817 14.7061C4.45721 14.3552 4.26005 13.8792 4.26005 13.3828V6.64574C4.26005 6.14941 4.45721 5.67341 4.80817 5.32245C5.15913 4.9715 5.63513 4.77433 6.13146 4.77433H12.8685C13.3649 4.77433 13.8409 4.9715 14.1918 5.32245C14.5428 5.67341 14.74 6.14941 14.74 6.64574V13.3828C14.74 13.8792 14.5428 14.3552 14.1918 14.7061C13.8409 15.0571 13.3649 15.2542 12.8685 15.2542ZM12.4943 7.02002H6.50574V13.0085H12.4943V7.02002Z" fill="white"/>
</svg>
