<svg width="19" height="20" viewBox="0 0 19 20" fill="none" xmlns="http://www.w3.org/2000/svg">
  <path d="M17.0388 19.2137L11.2902 13.4639C8.34868 15.5552 4.29537 15.0436 1.96564 12.2871C-0.364094 9.53061 -0.193029 5.44874 2.35917 2.89683C4.9107 0.343805 8.99297 0.171999 11.75 2.50161C14.507 4.83122 15.0188 8.88492 12.9274 11.8267L18.676 17.5765L17.04 19.2125L17.0388 19.2137ZM7.26725 3.17681C5.07319 3.17632 3.1803 4.71645 2.73459 6.86475C2.28889 9.01306 3.41288 11.1791 5.42606 12.0514C7.43923 12.9238 9.78828 12.2627 11.051 10.4684C12.3137 8.67414 12.143 6.23982 10.6423 4.6393L11.3423 5.33351L10.5532 4.54674L10.5393 4.53285C9.6736 3.66182 8.4953 3.1735 7.26725 3.17681Z" fill="currentColor" />
</svg>