<svg width="15" height="16" viewBox="0 0 15 16" fill="none" xmlns="http://www.w3.org/2000/svg">
<path d="M14.4655 13.9564L11.2357 10.7252C12.2041 9.46323 12.6562 7.88014 12.5003 6.29706C12.3445 4.71399 11.5922 3.24947 10.3963 2.20061C9.20033 1.15175 7.65019 0.597075 6.06031 0.649108C4.47043 0.701141 2.95987 1.35598 1.83505 2.4808C0.710233 3.60562 0.0553889 5.11618 0.00335581 6.70606C-0.0486773 8.29594 0.505997 9.84608 1.55486 11.042C2.60372 12.238 4.06823 12.9902 5.65131 13.1461C7.23438 13.302 8.81748 12.8498 10.0795 11.8814L13.3121 15.1147C13.388 15.1906 13.4781 15.2508 13.5773 15.2919C13.6765 15.333 13.7828 15.3541 13.8902 15.3541C13.9975 15.3541 14.1038 15.333 14.203 15.2919C14.3022 15.2508 14.3923 15.1906 14.4683 15.1147C14.5442 15.0388 14.6044 14.9486 14.6455 14.8494C14.6866 14.7503 14.7077 14.6439 14.7077 14.5366C14.7077 14.4292 14.6866 14.3229 14.6455 14.2237C14.6044 14.1245 14.5442 14.0344 14.4683 13.9585L14.4655 13.9564ZM1.646 6.91655C1.646 6.00185 1.91724 5.1077 2.42542 4.34715C2.9336 3.58661 3.6559 2.99384 4.50097 2.6438C5.34604 2.29376 6.27593 2.20217 7.17305 2.38062C8.07018 2.55907 8.89424 2.99954 9.54103 3.64633C10.1878 4.29312 10.6283 5.11718 10.8067 6.0143C10.9852 6.91142 10.8936 7.84131 10.5436 8.68639C10.1935 9.53146 9.60074 10.2537 8.8402 10.7619C8.07965 11.2701 7.1855 11.5413 6.2708 11.5413C5.04461 11.5401 3.86901 11.0524 3.00197 10.1854C2.13492 9.31834 1.64726 8.14274 1.646 6.91655Z" fill="#343330"/>
</svg>
