<svg width="47" height="47" viewBox="0 0 47 47" fill="none" xmlns="http://www.w3.org/2000/svg">
<rect width="47" height="47" rx="23.5" fill="#2970FF"/>
<path d="M27.8612 23.498C27.8607 28.0993 26.7287 32.6298 24.5649 36.6905C24.4736 36.8671 24.3482 37.0237 24.1958 37.1513C24.0435 37.279 23.8673 37.375 23.6775 37.434C23.4877 37.4929 23.2881 37.5136 23.0902 37.4947C22.8924 37.4759 22.7002 37.4179 22.525 37.3241C22.3498 37.2304 22.1949 37.1027 22.0694 36.9486C21.9439 36.7945 21.8503 36.617 21.794 36.4264C21.7377 36.2358 21.7198 36.0359 21.7415 35.8383C21.7631 35.6408 21.8237 35.4495 21.9199 35.2755C23.8515 31.6504 24.8616 27.6057 24.8612 23.498C24.8612 23.2328 24.7558 22.9785 24.5683 22.7909C24.3808 22.6034 24.1264 22.498 23.8612 22.498C23.596 22.498 23.3416 22.6034 23.1541 22.7909C22.9665 22.9785 22.8612 23.2328 22.8612 23.498C22.8612 23.8959 22.7031 24.2774 22.4218 24.5587C22.1405 24.84 21.759 24.998 21.3612 24.998C20.9634 24.998 20.5818 24.84 20.3005 24.5587C20.0192 24.2774 19.8612 23.8959 19.8612 23.498C19.8612 22.4372 20.2826 21.4198 21.0328 20.6696C21.7829 19.9195 22.8003 19.498 23.8612 19.498C24.922 19.498 25.9395 19.9195 26.6896 20.6696C27.4398 21.4198 27.8612 22.4372 27.8612 23.498ZM23.8612 14.498C23.4634 14.498 23.0818 14.6561 22.8005 14.9374C22.5192 15.2187 22.3612 15.6002 22.3612 15.998C22.3612 16.3959 22.5192 16.7774 22.8005 17.0587C23.0818 17.34 23.4634 17.498 23.8612 17.498C25.452 17.4997 26.9771 18.1324 28.102 19.2572C29.2269 20.3821 29.8595 21.9073 29.8612 23.498C29.8612 24.4505 29.8162 25.413 29.7274 26.3568C29.7079 26.5534 29.7275 26.7518 29.7849 26.9408C29.8423 27.1298 29.9365 27.3056 30.0621 27.4581C30.1876 27.6106 30.3421 27.7368 30.5165 27.8295C30.691 27.9221 30.882 27.9794 31.0787 27.998C31.1262 27.998 31.1737 27.998 31.2212 27.998C31.5942 27.9975 31.9536 27.858 32.2294 27.6068C32.5051 27.3556 32.6773 27.0107 32.7124 26.6393C32.8112 25.6018 32.8599 24.5443 32.8599 23.498C32.8573 21.1121 31.9084 18.8247 30.2214 17.1375C28.5344 15.4502 26.2471 14.501 23.8612 14.498ZM19.8612 19.0268C20.1471 18.7588 20.3168 18.3897 20.334 17.9982C20.3512 17.6067 20.2145 17.2241 19.9532 16.9321C19.6919 16.6401 19.3267 16.4619 18.9358 16.4357C18.5448 16.4095 18.1591 16.5373 17.8612 16.7918C16.9182 17.6363 16.1637 18.6699 15.6468 19.8254C15.1299 20.9808 14.8622 22.2322 14.8612 23.498C14.8618 26.0513 14.2113 28.5625 12.9712 30.7943C12.7774 31.1424 12.7299 31.5532 12.839 31.9364C12.9481 32.3195 13.205 32.6436 13.5531 32.8374C13.9012 33.0312 14.312 33.0788 14.6951 32.9696C15.0783 32.8605 15.4024 32.6036 15.5962 32.2555C17.0836 29.5765 17.8632 26.5623 17.8612 23.498C17.8619 22.6541 18.0404 21.8198 18.385 21.0494C18.7296 20.2791 19.2326 19.5899 19.8612 19.0268ZM21.1237 27.0393C20.9319 26.9936 20.7331 26.9861 20.5384 27.0172C20.3438 27.0484 20.1572 27.1176 19.9894 27.2209C19.8215 27.3242 19.6756 27.4596 19.5601 27.6194C19.4446 27.7791 19.3617 27.96 19.3162 28.1518C18.835 30.1746 18.0386 32.109 16.9562 33.8843C16.7493 34.2241 16.6859 34.6322 16.7799 35.0187C16.8739 35.4053 17.1176 35.7387 17.4574 35.9455C17.7972 36.1524 18.2053 36.2158 18.5919 36.1218C18.9784 36.0278 19.3118 35.7841 19.5187 35.4443C20.7643 33.4009 21.6813 31.1747 22.2362 28.8468C22.2819 28.6551 22.2894 28.4562 22.2583 28.2616C22.2271 28.0669 22.1579 27.8803 22.0546 27.7125C21.9512 27.5446 21.8158 27.3987 21.6561 27.2832C21.4964 27.1677 21.3155 27.0848 21.1237 27.0393ZM30.7149 30.048C30.5242 29.9984 30.3255 29.9868 30.1303 30.0139C29.9351 30.0411 29.7471 30.1064 29.5771 30.2063C29.4072 30.3061 29.2586 30.4385 29.1398 30.5958C29.021 30.7531 28.9344 30.9322 28.8849 31.123C28.6079 32.1766 28.2741 33.2143 27.8849 34.2318C27.7429 34.6031 27.7541 35.0156 27.9161 35.3787C28.0781 35.7417 28.3775 36.0256 28.7487 36.168C28.9196 36.2345 29.1015 36.2685 29.2849 36.268C29.5886 36.2681 29.8851 36.176 30.1353 36.0039C30.3855 35.8319 30.5776 35.5879 30.6862 35.3043C31.1152 34.185 31.482 33.0428 31.7849 31.883C31.8354 31.6923 31.8478 31.4935 31.8213 31.2979C31.7949 31.1024 31.7301 30.914 31.6307 30.7435C31.5313 30.5731 31.3992 30.4239 31.2421 30.3045C31.085 30.1852 30.9058 30.098 30.7149 30.048ZM23.8612 9.49805C20.1615 9.50194 16.6133 10.9686 13.9907 13.5781C11.368 16.1877 9.88362 19.7284 9.86118 23.428C9.86118 23.4518 9.86118 23.4755 9.86118 23.4993C9.86141 24.6864 9.64976 25.864 9.23618 26.9768C9.16606 27.1618 9.13324 27.3589 9.1396 27.5566C9.14596 27.7544 9.19138 27.9489 9.27325 28.129C9.35511 28.3092 9.47181 28.4713 9.6166 28.6061C9.7614 28.741 9.93144 28.8458 10.1169 28.9147C10.3024 28.9835 10.4997 29.015 10.6974 29.0072C10.8951 28.9995 11.0893 28.9528 11.2689 28.8696C11.4484 28.7865 11.6098 28.6687 11.7436 28.523C11.8774 28.3773 11.9811 28.2065 12.0487 28.0205C12.5785 26.5964 12.8535 25.0901 12.8612 23.5705C12.8612 23.5468 12.8612 23.523 12.8612 23.4993C12.8529 20.5819 14.0039 17.7807 16.0609 15.712C18.1179 13.6432 20.9125 12.4763 23.8299 12.468C26.7473 12.4598 29.5485 13.6107 31.6173 15.6678C33.686 17.7248 34.8529 20.5194 34.8612 23.4368C34.8612 23.4568 34.8612 23.478 34.8612 23.4993C34.8619 26.0799 34.5794 28.6528 34.0187 31.1718C33.9318 31.56 34.0028 31.9668 34.2158 32.3027C34.4289 32.6387 34.7667 32.8762 35.1549 32.963C35.2637 32.9871 35.3748 32.9989 35.4862 32.998C35.8269 32.9977 36.1573 32.8815 36.4231 32.6684C36.6889 32.4553 36.8743 32.158 36.9487 31.8255C37.552 29.114 37.8579 26.3447 37.8612 23.5668C37.8612 23.5443 37.8612 23.5218 37.8612 23.4993C37.8572 19.7874 36.381 16.2286 33.7564 13.6037C31.1318 10.9789 27.5731 9.50235 23.8612 9.49805Z" fill="white"/>
</svg>
