<svg width="28" height="27" viewBox="0 0 28 27" fill="none" xmlns="http://www.w3.org/2000/svg">
<path d="M27.7437 11.2106C27.7159 11.0698 27.658 10.9366 27.5741 10.8201C27.4902 10.7037 27.3822 10.6066 27.2575 10.5356L23.5287 8.41059L23.5137 4.20809C23.5133 4.06336 23.4814 3.92045 23.4203 3.78924C23.3592 3.65802 23.2704 3.54163 23.16 3.44809C21.8074 2.30397 20.2498 1.42718 18.57 0.864343C18.4377 0.819568 18.2975 0.802998 18.1584 0.8157C18.0193 0.828402 17.8844 0.870095 17.7625 0.938093L14.0012 3.04059L10.2362 0.934343C10.1142 0.865962 9.97911 0.823954 9.8398 0.811035C9.70049 0.798116 9.56002 0.814573 9.42746 0.859343C7.74868 1.42579 6.19277 2.30597 4.84246 3.45309C4.73217 3.54649 4.64344 3.66268 4.58237 3.79367C4.5213 3.92465 4.48935 4.06732 4.48871 4.21184L4.46996 8.41809L0.741214 10.5431C0.616466 10.6141 0.50847 10.7112 0.424566 10.8276C0.340663 10.9441 0.282818 11.0773 0.254965 11.2181C-0.0862903 12.9329 -0.0862903 14.6982 0.254965 16.4131C0.282818 16.5539 0.340663 16.6871 0.424566 16.8036C0.50847 16.92 0.616466 17.0171 0.741214 17.0881L4.46996 19.2131L4.48496 23.4168C4.48542 23.5616 4.51728 23.7045 4.57836 23.8357C4.63943 23.9669 4.72826 24.0833 4.83871 24.1768C6.1913 25.321 7.74891 26.1978 9.42871 26.7606C9.561 26.8054 9.7012 26.8219 9.84027 26.8092C9.97935 26.7965 10.1142 26.7548 10.2362 26.6868L14.0012 24.5781L17.7662 26.6843C17.9152 26.7674 18.0832 26.8104 18.2537 26.8093C18.3629 26.8093 18.4714 26.7916 18.575 26.7568C20.2533 26.1906 21.8091 25.3114 23.16 24.1656C23.2703 24.0722 23.359 23.956 23.4201 23.825C23.4811 23.694 23.5131 23.5514 23.5137 23.4068L23.5325 19.2006L27.2612 17.0756C27.386 17.0046 27.494 16.9075 27.5779 16.7911C27.6618 16.6746 27.7196 16.5414 27.7475 16.4006C28.0868 14.6871 28.0855 12.9236 27.7437 11.2106ZM14.0012 18.8093C13.0123 18.8093 12.0456 18.5161 11.2234 17.9667C10.4011 17.4173 9.76025 16.6364 9.38182 15.7228C9.00338 14.8091 8.90436 13.8038 9.09729 12.8339C9.29021 11.864 9.76642 10.9731 10.4657 10.2738C11.1649 9.57455 12.0559 9.09834 13.0258 8.90542C13.9957 8.71249 15.001 8.81151 15.9146 9.18995C16.8283 9.56838 17.6092 10.2092 18.1586 11.0315C18.708 11.8537 19.0012 12.8204 19.0012 13.8093C19.0012 15.1354 18.4744 16.4072 17.5367 17.3449C16.5991 18.2826 15.3273 18.8093 14.0012 18.8093Z" fill="white"/>
</svg>
