<svg width="41" height="41" viewBox="0 0 41 41" fill="none" xmlns="http://www.w3.org/2000/svg">
  <path d="M26.2171 10.5142C27.3819 9.3496 29.2781 9.3496 30.4429 10.5142C31.6077 11.6787 31.6077 13.5747 30.4429 14.7392C29.7682 15.4139 28.8449 15.7192 27.9074 15.5843C27.8648 15.5772 27.8151 15.5772 27.7724 15.5843C27.4955 15.5488 27.2043 15.5843 26.9273 15.7121C26.5367 15.8896 26.2597 16.2162 26.1247 16.5926C25.9898 16.9619 25.9969 17.3808 26.1745 17.7572C27.1759 19.923 26.7142 22.5149 25.0239 24.2049C23.3335 25.895 20.7412 26.3565 18.575 25.3553C18.1844 25.1778 17.7653 25.1707 17.389 25.3126C17.0196 25.4476 16.7071 25.7245 16.5296 26.108C16.4159 26.3565 16.3733 26.6121 16.3875 26.8678C16.3804 26.9175 16.3804 26.9672 16.3875 27.0169C16.5438 27.9685 16.2313 28.9413 15.5495 29.623C14.3847 30.7876 12.4884 30.7876 11.3236 29.623C10.7554 29.0549 10.45 28.3093 10.45 27.5069C10.45 26.7116 10.7625 25.9588 11.3236 25.3908C11.9983 24.7162 12.9216 24.4108 13.8591 24.5458C13.8733 24.5458 13.8875 24.5458 13.9088 24.5458C14.0083 24.5671 14.1077 24.5813 14.2142 24.5813C14.4344 24.5813 14.6546 24.5387 14.8605 24.4392C15.2441 24.2617 15.5139 23.9493 15.656 23.5871C15.798 23.2108 15.798 22.7847 15.6133 22.3942C14.6119 20.2284 15.0736 17.6365 16.7639 15.9464C18.4543 14.2564 21.0466 13.7948 23.2128 14.7961C23.5963 14.9736 24.0225 14.9807 24.3918 14.8458C24.7611 14.7108 25.0807 14.4339 25.2582 14.0504C25.3932 13.7522 25.4287 13.4327 25.379 13.1273V13.1202C25.2228 12.1687 25.5353 11.1959 26.2171 10.5142ZM23.2625 22.4439C24.5552 21.1515 24.5552 19.0567 23.2625 17.7643C21.9699 16.4719 19.8748 16.4719 18.5821 17.7643C17.2895 19.0567 17.2895 21.1515 18.5821 22.4439C19.8748 23.7362 21.9699 23.7362 23.2625 22.4439ZM20.8975 0.111176C31.9415 0.111176 40.8975 9.06554 40.8975 20.1076C40.8975 31.1497 31.9486 40.1112 20.8975 40.1112C9.84631 40.1112 0.897461 31.1568 0.897461 20.1076C0.897461 9.05844 9.8534 0.111176 20.8975 0.111176ZM31.558 15.8541C33.3264 14.086 33.3264 11.2242 31.558 9.45613C29.7895 7.68796 26.9273 7.68796 25.1588 9.45613C24.5054 10.1094 24.0935 10.9189 23.923 11.764C20.7199 10.5568 17.041 11.3237 14.5906 13.7735C12.1403 16.2233 11.3733 19.9017 12.5878 23.1113C11.7355 23.2818 10.9259 23.6937 10.2653 24.354C8.4969 26.1222 8.4969 28.9839 10.2653 30.752C12.0338 32.5202 14.8961 32.5202 16.6645 30.752C17.325 30.0916 17.7441 29.2679 17.9074 28.4158C18.9017 28.785 19.9386 28.9697 20.9685 28.9697C23.2625 28.9697 25.5282 28.082 27.2114 26.3991C29.6474 23.9635 30.4216 20.3064 29.2355 17.1039C30.0807 16.9264 30.8975 16.5145 31.558 15.8541Z" fill="currentColor" />
</svg>