<svg width="21" height="21" viewBox="0 0 21 21" fill="none" xmlns="http://www.w3.org/2000/svg">
  <path d="M10.1722 20.7772C4.64939 20.7772 0.172241 16.3001 0.172241 10.7772C0.172241 5.25437 4.64939 0.777222 10.1722 0.777222C15.6951 0.777222 20.1722 5.25437 20.1722 10.7772C20.1662 16.2976 15.6926 20.7712 10.1722 20.7772ZM2.17224 10.9492C2.21956 15.3505 5.81335 18.8868 10.2148 18.8632C14.6162 18.8394 18.1718 15.2647 18.1718 10.8632C18.1718 6.46173 14.6162 2.887 10.2148 2.86322C5.81335 2.83968 2.21956 6.37598 2.17224 10.7772V10.9492ZM11.1722 15.7772H9.17224V11.7772H5.17224V9.77722H9.17224V5.77722H11.1722V9.77722H15.1722V11.7772H11.1722V15.7772Z" fill="currentColor" />
</svg>