<svg width="21" height="21" viewBox="0 0 21 21" fill="none" xmlns="http://www.w3.org/2000/svg">
  <path d="M10.1722 20.7024C4.64939 20.7024 0.172241 16.2252 0.172241 10.7024C0.172241 5.17954 4.64939 0.702393 10.1722 0.702393C15.6951 0.702393 20.1722 5.17954 20.1722 10.7024C20.1662 16.2227 15.6926 20.6963 10.1722 20.7024ZM2.17224 10.8744C2.21956 15.2756 5.81335 18.8119 10.2148 18.7884C14.6162 18.7646 18.1718 15.1899 18.1718 10.7884C18.1718 6.3869 14.6162 2.81217 10.2148 2.78839C5.81335 2.76485 2.21956 6.30115 2.17224 10.7024V10.8744ZM15.1722 11.7024H5.17224V9.70239H15.1722V11.7024Z" fill="currentColor" />
</svg>