<svg width="24" height="24" viewBox="0 0 24 24" fill="none" xmlns="http://www.w3.org/2000/svg">
<path d="M4 18V14.3C4 13.9022 3.84196 13.5206 3.56066 13.2393C3.27936 12.958 2.89782 12.8 2.5 12.8H2V11.2H2.5C2.69698 11.2 2.89204 11.1612 3.07403 11.0858C3.25601 11.0104 3.42137 10.8999 3.56066 10.7607C3.69995 10.6214 3.81044 10.456 3.88582 10.274C3.9612 10.092 4 9.89698 4 9.7V6C4 5.20435 4.31607 4.44129 4.87868 3.87868C5.44129 3.31607 6.20435 3 7 3H8V5H7C6.73478 5 6.48043 5.10536 6.29289 5.29289C6.10536 5.48043 6 5.73478 6 6V10.1C6.0001 10.521 5.86735 10.9313 5.62064 11.2725C5.37393 11.6136 5.02586 11.8682 4.626 12C5.02586 12.1318 5.37393 12.3864 5.62064 12.7275C5.86735 13.0687 6.0001 13.479 6 13.9V18C6 18.2652 6.10536 18.5196 6.29289 18.7071C6.48043 18.8946 6.73478 19 7 19H8V21H7C6.20435 21 5.44129 20.6839 4.87868 20.1213C4.31607 19.5587 4 18.7956 4 18V18ZM20 14.3V18C20 18.7956 19.6839 19.5587 19.1213 20.1213C18.5587 20.6839 17.7956 21 17 21H16V19H17C17.2652 19 17.5196 18.8946 17.7071 18.7071C17.8946 18.5196 18 18.2652 18 18V13.9C17.9999 13.479 18.1327 13.0687 18.3794 12.7275C18.6261 12.3864 18.9741 12.1318 19.374 12C18.9741 11.8682 18.6261 11.6136 18.3794 11.2725C18.1327 10.9313 17.9999 10.521 18 10.1V6C18 5.73478 17.8946 5.48043 17.7071 5.29289C17.5196 5.10536 17.2652 5 17 5H16V3H17C17.7956 3 18.5587 3.31607 19.1213 3.87868C19.6839 4.44129 20 5.20435 20 6V9.7C20 10.0978 20.158 10.4794 20.4393 10.7607C20.7206 11.042 21.1022 11.2 21.5 11.2H22V12.8H21.5C21.1022 12.8 20.7206 12.958 20.4393 13.2393C20.158 13.5206 20 13.9022 20 14.3V14.3Z" fill="white"/>
</svg>
