<svg xmlns="http://www.w3.org/2000/svg" width="17" height="16" viewBox="0 0 17 16" fill="none">
<path d="M9.86589 9.50166V14.667H3.19922C3.19901 13.8529 3.38517 13.0496 3.74342 12.3186C4.10167 11.5876 4.62251 10.9483 5.26603 10.4497C5.90955 9.95108 6.65867 9.60641 7.45599 9.44209C8.25331 9.27776 9.07766 9.29814 9.86589 9.50166V9.50166ZM8.53255 8.66699C6.32255 8.66699 4.53255 6.87699 4.53255 4.66699C4.53255 2.45699 6.32255 0.666992 8.53255 0.666992C10.7426 0.666992 12.5326 2.45699 12.5326 4.66699C12.5326 6.87699 10.7426 8.66699 8.53255 8.66699ZM13.1992 11.0577L14.6132 9.64299L15.5566 10.5863L14.1419 12.0003L15.5566 13.4143L14.6132 14.3577L13.1992 12.943L11.7852 14.3577L10.8419 13.4143L12.2566 12.0003L10.8419 10.5863L11.7852 9.64299L13.1992 11.0577Z" fill="#DBE0E6"/>
</svg>