<svg width="26" height="24" viewBox="0 0 26 24" fill="none" xmlns="http://www.w3.org/2000/svg">
<path d="M21.0007 14C21.0007 14.3956 20.8834 14.7822 20.6636 15.1111C20.4439 15.44 20.1315 15.6964 19.766 15.8478C19.4006 15.9991 18.9985 16.0387 18.6105 15.9616C18.2225 15.8844 17.8662 15.6939 17.5865 15.4142C17.3068 15.1345 17.1163 14.7781 17.0391 14.3902C16.9619 14.0022 17.0015 13.6001 17.1529 13.2346C17.3043 12.8692 17.5606 12.5568 17.8895 12.3371C18.2184 12.1173 18.6051 12 19.0007 12C19.5311 12 20.0398 12.2107 20.4149 12.5858C20.79 12.9609 21.0007 13.4696 21.0007 14ZM26.0007 9.5V19.5C26.0007 20.5609 25.5792 21.5783 24.8291 22.3284C24.079 23.0786 23.0615 23.5 22.0007 23.5H4.00068C2.93981 23.5 1.9224 23.0786 1.17225 22.3284C0.422104 21.5783 0.000677017 20.5609 0.000677017 19.5V4.615C-0.0147073 4.08012 0.0773867 3.54758 0.271506 3.04893C0.465626 2.55027 0.757824 2.09564 1.1308 1.71194C1.50378 1.32823 1.94995 1.02327 2.44291 0.815098C2.93586 0.606926 3.46557 0.499779 4.00068 0.5H20.5007C20.8985 0.5 21.28 0.658036 21.5613 0.93934C21.8426 1.22064 22.0007 1.60218 22.0007 2C22.0007 2.39783 21.8426 2.77936 21.5613 3.06066C21.28 3.34197 20.8985 3.5 20.5007 3.5H4.00068C3.86658 3.49993 3.73383 3.52683 3.61033 3.57911C3.48684 3.63138 3.37512 3.70796 3.28183 3.80429C3.18853 3.90062 3.11556 4.01473 3.06726 4.13983C3.01896 4.26493 2.99632 4.39847 3.00068 4.5325V4.5425C3.02168 4.80727 3.14319 5.05398 3.34029 5.23202C3.53739 5.41006 3.79514 5.50594 4.06068 5.5H22.0007C23.0615 5.5 24.079 5.92143 24.8291 6.67157C25.5792 7.42172 26.0007 8.43913 26.0007 9.5ZM23.0007 9.5C23.0007 9.23478 22.8953 8.98043 22.7078 8.79289C22.5202 8.60536 22.2659 8.5 22.0007 8.5H4.06068C3.70305 8.50015 3.34685 8.45479 3.00068 8.365V19.5C3.00068 19.7652 3.10603 20.0196 3.29357 20.2071C3.48111 20.3946 3.73546 20.5 4.00068 20.5H22.0007C22.2659 20.5 22.5202 20.3946 22.7078 20.2071C22.8953 20.0196 23.0007 19.7652 23.0007 19.5V9.5Z" fill="currentColor"/>
</svg>
