<svg width="19" height="19" viewBox="0 0 19 19" fill="none" xmlns="http://www.w3.org/2000/svg">
<path d="M11.8111 4.90883C12.3481 4.37193 13.2224 4.37193 13.7594 4.90883C14.2964 5.44572 14.2964 6.3198 13.7594 6.85669C13.4483 7.16772 13.0226 7.30847 12.5904 7.24629C12.5708 7.24302 12.5479 7.24302 12.5282 7.24629C12.4005 7.2299 12.2663 7.24629 12.1386 7.3052C11.9585 7.38704 11.8308 7.53763 11.7686 7.71116C11.7064 7.88139 11.7096 8.07452 11.7915 8.24805C12.2532 9.24654 12.0403 10.4415 11.2611 11.2206C10.4818 11.9998 9.28666 12.2126 8.28798 11.751C8.10789 11.6691 7.9147 11.6658 7.74117 11.7313C7.57089 11.7935 7.42682 11.9212 7.34497 12.098C7.29259 12.2126 7.27293 12.3304 7.2795 12.4483C7.2762 12.4712 7.2762 12.4941 7.2795 12.517C7.35152 12.9557 7.20745 13.4042 6.89312 13.7185C6.35612 14.2554 5.48189 14.2554 4.94489 13.7185C4.68295 13.4566 4.54215 13.1128 4.54215 12.7429C4.54215 12.3762 4.68623 12.0292 4.94489 11.7673C5.25595 11.4563 5.68162 11.3155 6.11382 11.3777C6.12036 11.3777 6.12693 11.3777 6.13675 11.3777C6.1826 11.3876 6.22844 11.3941 6.27753 11.3941C6.37906 11.3941 6.48056 11.3745 6.57549 11.3286C6.75232 11.2468 6.87673 11.1027 6.94223 10.9358C7.00771 10.7623 7.00771 10.5658 6.92257 10.3858C6.4609 9.38731 6.67372 8.19239 7.45302 7.41324C8.2323 6.6341 9.42743 6.4213 10.4261 6.8829C10.6029 6.96474 10.7994 6.96801 10.9696 6.90581C11.1399 6.8436 11.2872 6.71594 11.3691 6.53914C11.4313 6.40166 11.4477 6.25434 11.4248 6.11357V6.1103C11.3527 5.67161 11.4968 5.2231 11.8111 4.90883ZM10.449 10.4087C11.045 9.81288 11.045 8.84715 10.449 8.25132C9.85311 7.6555 8.88719 7.6555 8.29126 8.25132C7.69533 8.84715 7.69533 9.81288 8.29126 10.4087C8.88719 11.0045 9.85311 11.0045 10.449 10.4087ZM9.35868 0.112793C14.4503 0.112793 18.5792 4.24098 18.5792 9.33165C18.5792 14.4223 14.4535 18.5538 9.35868 18.5538C4.26382 18.5538 0.138184 14.4256 0.138184 9.33165C0.138184 4.2377 4.2671 0.112793 9.35868 0.112793ZM14.2734 7.37067C15.0887 6.55553 15.0887 5.23619 14.2734 4.42105C13.4581 3.60588 12.1386 3.60588 11.3233 4.42105C11.022 4.72221 10.8321 5.09542 10.7535 5.48502C9.27681 4.92846 7.58073 5.28204 6.45108 6.41148C5.32143 7.5409 4.9678 9.23672 5.52773 10.7164C5.13481 10.795 4.76152 10.9849 4.45701 11.2894C3.64171 12.1045 3.64171 13.4238 4.45701 14.239C5.27231 15.0542 6.59188 15.0542 7.40718 14.239C7.71169 13.9345 7.90488 13.5548 7.98018 13.1619C8.4386 13.3322 8.91664 13.4173 9.39143 13.4173C10.449 13.4173 11.4935 13.0081 12.2696 12.2322C13.3926 11.1093 13.7496 9.42331 13.2027 7.94686C13.5924 7.86502 13.9689 7.67513 14.2734 7.37067Z" fill="white"/>
</svg>
