<svg width="15" height="14" viewBox="0 0 15 14" fill="none" xmlns="http://www.w3.org/2000/svg">
<g clip-path="url(#clip0_26_4)">
<path fill-rule="evenodd" clip-rule="evenodd" d="M3.35055 7.02412C3.35055 5.38357 2.05442 4.03498 0.395898 3.87888C0.218585 3.86219 0.0737305 3.7245 0.0737305 3.55269V0.456594C0.0737305 0.284772 0.218477 0.144754 0.396456 0.152398C4.18569 0.315144 7.20595 3.32946 7.20595 7.02412C7.20595 10.7188 4.18569 13.7331 0.396456 13.8958C0.218475 13.9035 0.0737305 13.7635 0.0737305 13.5916V10.4955C0.0737305 10.3237 0.218583 10.186 0.395898 10.1693C2.05442 10.0133 3.35055 8.66467 3.35055 7.02412Z" fill="#009FF9"/>
<path fill-rule="evenodd" clip-rule="evenodd" d="M11.563 7.0241C11.563 8.66465 12.8591 10.0132 14.5176 10.1693C14.6949 10.186 14.8398 10.3237 14.8398 10.4955V13.5916C14.8398 13.7634 14.695 13.9035 14.5171 13.8958C10.7278 13.7331 7.70758 10.7188 7.70758 7.0241C7.70758 3.32946 10.7278 0.315142 14.5171 0.152398C14.695 0.144754 14.8398 0.284772 14.8398 0.456594V3.55268C14.8398 3.7245 14.6949 3.86219 14.5176 3.87888C12.8591 4.03496 11.563 5.38355 11.563 7.0241Z" fill="#27EE76"/>
</g>
<defs>
<clipPath id="clip0_26_4">
<rect width="15" height="14" fill="white"/>
</clipPath>
</defs>
</svg>
